Russolo-24ptLight.ufo
<glyph name="exclam" format="2">
  <advance width="481.0883720930233"/>
  <unicode hex="0021"/>
  <note>
exclam
</note>
  <outline>
    <contour>
      <point x="218.8186046511628" y="317.75426356589145" type="curve"/>
      <point x="262.7062015503876" y="317.75426356589145" type="line"/>
      <point x="259.9651162790698" y="775.44496124031"/>
      <point x="320.3984496124031" y="1074.5674418604651"/>
      <point x="320.3984496124031" y="1219.0767441860464" type="curve" smooth="yes"/>
      <point x="320.3984496124031" y="1295.4325581395349"/>
      <point x="267.2147286821705" y="1325.5891472868218"/>
      <point x="271.52945736434106" y="1462.4364341085272" type="curve"/>
      <point x="210.22713178294575" y="1462.4364341085272" type="line"/>
      <point x="214.54186046511626" y="1325.5891472868218"/>
      <point x="160.75813953488372" y="1295.4325581395349"/>
      <point x="160.75813953488372" y="1219.0767441860464" type="curve" smooth="yes"/>
      <point x="160.75813953488372" y="1074.5674418604651"/>
      <point x="221.19147286821703" y="775.44496124031"/>
    </contour>
    <contour>
      <point x="240.5782945736434" y="-16.441085271317828" type="curve" smooth="yes"/>
      <point x="284.7015503875969" y="-16.441085271317828"/>
      <point x="316.78837209302327" y="19.927906976744186"/>
      <point x="316.78837209302327" y="67.3968992248062" type="curve" smooth="yes"/>
      <point x="316.78837209302327" y="114.49767441860465"/>
      <point x="284.0015503875969" y="149.23488372093024"/>
      <point x="240.5782945736434" y="149.23488372093024" type="curve" smooth="yes"/>
      <point x="197.15503875968992" y="149.23488372093024"/>
      <point x="164.36821705426357" y="114.49767441860465"/>
      <point x="164.36821705426357" y="67.3968992248062" type="curve" smooth="yes"/>
      <point x="164.36821705426357" y="19.927906976744186"/>
      <point x="196.45503875968993" y="-16.441085271317828"/>
    </contour>
  </outline>
</glyph>
<glyph name="quotedbl" format="2">
  <advance width="530.5364341085271"/>
  <unicode hex="0022"/>
  <note>
quotedbl
</note>
  <outline>
    <contour>
      <point x="321.6387596899225" y="834.3217054263566" type="line"/>
      <point x="376.5682170542636" y="834.3217054263566" type="line"/>
      <point x="396.2728682170543" y="1356.7410852713178" type="line"/>
      <point x="304.73875968992246" y="1356.7410852713178" type="line"/>
    </contour>
    <contour>
      <point x="152.23178294573643" y="834.3217054263566" type="line"/>
      <point x="206.42480620155038" y="834.3217054263566" type="line"/>
      <point x="226.4294573643411" y="1356.7410852713178" type="line"/>
      <point x="135.26356589147287" y="1356.7410852713178" type="line"/>
    </contour>
  </outline>
</glyph>
<glyph name="numbersign" format="2">
  <advance width="1285.2891472868216"/>
  <unicode hex="0023"/>
  <note>
numbersign
</note>
  <outline>
    <contour>
      <point x="713.8178294573644" y="0.0" type="line"/>
      <point x="812.1658914728682" y="0.0" type="line"/>
      <point x="1086.8666666666668" y="1431.1046511627908" type="line"/>
      <point x="988.5186046511628" y="1431.1046511627908" type="line"/>
    </contour>
    <contour>
      <point x="102.63178294573643" y="485.0581395348837" type="line"/>
      <point x="1118.8937984496124" y="485.0581395348837" type="line"/>
      <point x="1118.8937984496124" y="542.1736434108527" type="line"/>
      <point x="102.63178294573643" y="542.1736434108527" type="line"/>
    </contour>
    <contour>
      <point x="217.4581395348837" y="0.0" type="line"/>
      <point x="315.87441860465117" y="0.0" type="line"/>
      <point x="591.2434108527132" y="1431.1046511627908" type="line"/>
      <point x="492.8953488372093" y="1431.1046511627908" type="line"/>
    </contour>
    <contour>
      <point x="163.92713178294574" y="894.5674418604651" type="line"/>
      <point x="1180.5573643410853" y="894.5674418604651" type="line"/>
      <point x="1180.5573643410853" y="952.0511627906977" type="line"/>
      <point x="163.92713178294574" y="952.0511627906977" type="line"/>
    </contour>
  </outline>
</glyph>
<glyph name="percent" format="2">
  <advance width="1618.1186046511627"/>
  <unicode hex="0025"/>
  <note>
percent
</note>
  <outline>
    <contour>
      <point x="276.5891472868217" y="-34.986046511627904" type="line"/>
      <point x="366.0333333333333" y="-34.986046511627904" type="line"/>
      <point x="1315.8116279069768" y="1447.6589147286822" type="line"/>
      <point x="1226.667441860465" y="1447.6589147286822" type="line"/>
    </contour>
    <contour>
      <point x="1195.74496124031" y="-21.57751937984496" type="curve" smooth="yes"/>
      <point x="1373.7093023255813" y="-21.57751937984496"/>
      <point x="1484.9232558139536" y="151.78604651162792"/>
      <point x="1484.9232558139536" y="382.95891472868215" type="curve" smooth="yes"/>
      <point x="1484.9232558139536" y="614.2635658914729"/>
      <point x="1369.2728682170543" y="787.2317829457364"/>
      <point x="1195.74496124031" y="787.2317829457364" type="curve" smooth="yes"/>
      <point x="1023.253488372093" y="787.2317829457364"/>
      <point x="907.5666666666667" y="613.5953488372093"/>
      <point x="907.5666666666667" y="382.95891472868215" type="curve" smooth="yes"/>
      <point x="907.5666666666667" y="153.18604651162792"/>
      <point x="1018.3806201550387" y="-21.57751937984496"/>
    </contour>
    <contour>
      <point x="1195.74496124031" y="29.837984496124037" type="curve" smooth="yes"/>
      <point x="1073.7418604651164" y="29.837984496124037"/>
      <point x="1004.4744186046512" y="168.20542635658916"/>
      <point x="1004.4744186046512" y="382.95891472868215" type="curve" smooth="yes"/>
      <point x="1004.4744186046512" y="598.4488372093024"/>
      <point x="1073.7418604651164" y="737.4480620155039"/>
      <point x="1195.74496124031" y="737.4480620155039" type="curve" smooth="yes"/>
      <point x="1318.1162790697674" y="737.4480620155039"/>
      <point x="1388.3837209302326" y="598.7124031007752"/>
      <point x="1388.3837209302326" y="382.95891472868215" type="curve" smooth="yes"/>
      <point x="1388.3837209302326" y="168.20542635658916"/>
      <point x="1319.1162790697674" y="29.837984496124037"/>
    </contour>
    <contour>
      <point x="421.7418604651163" y="658.1131782945737" type="curve" smooth="yes"/>
      <point x="599.4062015503876" y="658.1131782945737"/>
      <point x="710.9883720930233" y="831.1767441860466"/>
      <point x="710.9883720930233" y="1062.386046511628" type="curve" smooth="yes"/>
      <point x="710.9883720930233" y="1293.6542635658914"/>
      <point x="594.9015503875969" y="1466.9906976744187"/>
      <point x="421.7418604651163" y="1466.9906976744187" type="curve" smooth="yes"/>
      <point x="248.58217054263565" y="1466.9906976744187"/>
      <point x="133.1953488372093" y="1293.286046511628"/>
      <point x="133.1953488372093" y="1062.386046511628" type="curve" smooth="yes"/>
      <point x="133.1953488372093" y="832.8767441860465"/>
      <point x="244.0093023255814" y="658.1131782945737"/>
    </contour>
    <contour>
      <point x="421.7418604651163" y="708.8968992248062" type="curve" smooth="yes"/>
      <point x="299.73875968992246" y="708.8968992248062"/>
      <point x="230.47131782945738" y="847.5961240310078"/>
      <point x="230.47131782945738" y="1062.386046511628" type="curve" smooth="yes"/>
      <point x="230.47131782945738" y="1278.875968992248"/>
      <point x="299.73875968992246" y="1416.206976744186"/>
      <point x="421.7418604651163" y="1416.206976744186" type="curve" smooth="yes"/>
      <point x="543.7449612403101" y="1416.206976744186"/>
      <point x="614.0124031007751" y="1278.4713178294573"/>
      <point x="614.0124031007751" y="1062.386046511628" type="curve" smooth="yes"/>
      <point x="614.0124031007751" y="848.4007751937985"/>
      <point x="544.44496124031" y="708.8968992248062"/>
    </contour>
  </outline>
</glyph>
<glyph name="ampersand" format="2">
  <advance width="1264.346511627907"/>
  <unicode hex="0026"/>
  <note>
ampersand
</note>
  <outline>
    <contour>
      <point x="557.0069767441861" y="-28.804651162790698" type="curve" smooth="yes"/>
      <point x="687.1124031007752" y="-28.804651162790698"/>
      <point x="826.3116279069767" y="-9.063565891472868"/>
      <point x="894.3031007751938" y="34.02325581395349" type="curve"/>
      <point x="861.0875968992248" y="92.68837209302326" type="line"/>
      <point x="809.6062015503876" y="53.72015503875969"/>
      <point x="648.7333333333333" y="30.906201550387596"/>
      <point x="551.0069767441861" y="30.906201550387596" type="curve" smooth="yes"/>
      <point x="319.4038759689922" y="30.906201550387596"/>
      <point x="255.02713178294573" y="191.61937984496123"/>
      <point x="255.02713178294573" y="391.65038759689924" type="curve" smooth="yes"/>
      <point x="255.02713178294573" y="625.1945736434109"/>
      <point x="372.9263565891473" y="751.6217054263566"/>
      <point x="568.984496124031" y="751.1852713178295" type="curve"/>
      <point x="574.7162790697674" y="813.9643410852714" type="line"/>
      <point x="406.59457364341085" y="811.8914728682171"/>
      <point x="333.62713178294575" y="943.2682170542636"/>
      <point x="333.62713178294575" y="1092.3813953488373" type="curve" smooth="yes"/>
      <point x="333.62713178294575" y="1265.4806201550387"/>
      <point x="433.653488372093" y="1400.7255813953489"/>
      <point x="603.7612403100775" y="1400.7255813953489" type="curve" smooth="yes"/>
      <point x="760.953488372093" y="1400.7255813953489" type="line"/>
      <point x="760.953488372093" y="1460.4364341085272" type="line"/>
      <point x="599.7612403100775" y="1460.4364341085272" type="line" smooth="yes"/>
      <point x="359.87751937984495" y="1460.4364341085272"/>
      <point x="226.3" y="1301.1232558139534"/>
      <point x="226.3" y="1091.6813953488372" type="curve" smooth="yes"/>
      <point x="226.3" y="952.3"/>
      <point x="289.51317829457366" y="833.9728682170543"/>
      <point x="431.1488372093023" y="786.6" type="curve"/>
      <point x="267.93565891472866" y="746.6813953488372"/>
      <point x="135.62713178294572" y="609.6038759689923"/>
      <point x="135.62713178294572" y="385.65038759689924" type="curve" smooth="yes"/>
      <point x="135.62713178294572" y="137.23178294573643"/>
      <point x="266.4108527131783" y="-28.804651162790698"/>
    </contour>
    <contour>
      <point x="976.6263565891472" y="-26.804651162790698" type="curve" smooth="yes"/>
      <point x="1033.4186046511627" y="-26.804651162790698"/>
      <point x="1104.0596899224806" y="-14.0"/>
      <point x="1145.2147286821705" y="9.545736434108527" type="curve"/>
      <point x="1145.2147286821705" y="90.22093023255815" type="line"/>
      <point x="1094.153488372093" y="52.701550387596896"/>
      <point x="1044.0767441860464" y="38.27441860465116"/>
      <point x="1003.122480620155" y="38.27441860465116" type="curve" smooth="yes"/>
      <point x="955.3550387596899" y="38.27441860465116"/>
      <point x="954.6418604651162" y="116.81085271317829"/>
      <point x="954.6418604651162" y="228.4922480620155" type="curve" smooth="yes"/>
      <point x="954.6418604651162" y="751.1852713178295" type="line"/>
      <point x="1096.2100775193799" y="751.1852713178295" type="line"/>
      <point x="1096.2100775193799" y="813.5961240310078" type="line"/>
      <point x="954.6418604651162" y="813.5961240310078" type="line"/>
      <point x="954.6418604651162" y="1092.346511627907" type="line"/>
      <point x="892.5162790697674" y="1092.346511627907" type="line"/>
      <point x="899.075968992248" y="844.7248062015503"/>
      <point x="874.0015503875969" y="813.5961240310078"/>
      <point x="727.6325581395349" y="813.5961240310078" type="curve" smooth="yes"/>
      <point x="557.6341085271317" y="813.5961240310078" type="line"/>
      <point x="547.8976744186047" y="751.1852713178295" type="line"/>
      <point x="847.1372093023256" y="751.1852713178295" type="line"/>
      <point x="847.1372093023256" y="201.59147286821707" type="line" smooth="yes"/>
      <point x="847.1372093023256" y="37.96356589147287"/>
      <point x="869.7209302325581" y="-26.804651162790698"/>
    </contour>
  </outline>
</glyph>
<glyph name="quotesingle" format="2">
  <advance width="360.32480620155036"/>
  <unicode hex="0027"/>
  <note>
quotesingle
</note>
  <outline>
    <contour>
      <point x="152.23178294573643" y="834.3217054263566" type="line"/>
      <point x="206.42480620155038" y="834.3217054263566" type="line"/>
      <point x="226.4294573643411" y="1356.7410852713178" type="line"/>
      <point x="135.26356589147287" y="1356.7410852713178" type="line"/>
    </contour>
  </outline>
</glyph>
<glyph name="parenleft" format="2">
  <advance width="560.1658914728682"/>
  <unicode hex="0028"/>
  <note>
parenleft
</note>
  <outline>
    <contour>
      <point x="440.5232558139535" y="-394.5906976744186" type="curve"/>
      <point x="478.0751937984496" y="-358.6953488372093" type="line"/>
      <point x="334.1341085271318" y="-130.96201550387596"/>
      <point x="203.78449612403102" y="225.78682170542635"/>
      <point x="203.78449612403102" y="559.1643410852713" type="curve" smooth="yes"/>
      <point x="203.78449612403102" y="895.3007751937985"/>
      <point x="337.8612403100775" y="1268.8581395348838"/>
      <point x="481.5705426356589" y="1491.1286821705426" type="curve"/>
      <point x="438.05968992248063" y="1519.2558139534883" type="line"/>
      <point x="198.8186046511628" y="1172.129457364341"/>
      <point x="100.5953488372093" y="903.0922480620155"/>
      <point x="100.5953488372093" y="561.0054263565892" type="curve" smooth="yes"/>
      <point x="100.5953488372093" y="215.33255813953488"/>
      <point x="200.57751937984497" y="-64.95891472868217"/>
    </contour>
  </outline>
</glyph>
<glyph name="parenright" format="2">
  <advance width="560.2341085271318"/>
  <unicode hex="0029"/>
  <note>
parenright
</note>
  <outline>
    <contour>
      <point x="120.0108527131783" y="-394.5906976744186" type="line"/>
      <point x="360.09302325581393" y="-64.8906976744186"/>
      <point x="459.6387596899225" y="215.33255813953488"/>
      <point x="459.6387596899225" y="561.0054263565892" type="curve" smooth="yes"/>
      <point x="459.6387596899225" y="902.7240310077519"/>
      <point x="361.78372093023256" y="1172.129457364341"/>
      <point x="122.17441860465117" y="1519.5558139534883" type="curve"/>
      <point x="78.5953488372093" y="1491.1286821705426" type="line"/>
      <point x="222.97286821705427" y="1268.6945736434109"/>
      <point x="356.8178294573643" y="895.1643410852713"/>
      <point x="356.8178294573643" y="559.1643410852713" type="curve" smooth="yes"/>
      <point x="356.8178294573643" y="225.41860465116278"/>
      <point x="226.03178294573644" y="-131.46666666666667"/>
      <point x="82.0906976744186" y="-358.6953488372093" type="curve"/>
    </contour>
  </outline>
</glyph>
<glyph name="asterisk" format="2">
  <advance width="751.8201550387597"/>
  <unicode hex="002A"/>
  <note>
asterisk
</note>
  <outline>
    <contour>
      <point x="374.7193798449612" y="1130.4945736434108" type="line"/>
      <point x="480.4565891472868" y="1189.5271317829458"/>
      <point x="550.2108527131783" y="1195.7356589147287"/>
      <point x="586.0883720930233" y="1215.808527131783" type="curve" smooth="yes"/>
      <point x="598.606976744186" y="1223.086046511628"/>
      <point x="597.437984496124" y="1255.6860465116279"/>
      <point x="627.3248062015504" y="1273.4635658914729" type="curve"/>
      <point x="613.2837209302326" y="1297.777519379845" type="line"/>
      <point x="583.4651162790698" y="1280.7"/>
      <point x="565.0837209302325" y="1300.7961240310078"/>
      <point x="543.6968992248062" y="1288.2186046511629" type="curve" smooth="yes"/>
      <point x="504.31937984496125" y="1265.3457364341086"/>
      <point x="466.5472868217054" y="1212.2457364341085"/>
      <point x="363.1007751937984" y="1149.6953488372094" type="curve"/>
    </contour>
    <contour>
      <point x="124.53643410852713" y="983.1124031007752" type="line"/>
      <point x="154.05503875968992" y="999.8899224806202"/>
      <point x="180.5046511627907" y="982.9937984496124"/>
      <point x="194.4232558139535" y="990.6713178294574" type="curve" smooth="yes"/>
      <point x="232.40077519379844" y="1012.1441860465117"/>
      <point x="271.04108527131785" y="1068.0124031007751"/>
      <point x="374.7193798449612" y="1130.4945736434108" type="curve"/>
      <point x="363.1007751937984" y="1149.6953488372094" type="line"/>
      <point x="257.2953488372093" y="1091.6627906976744"/>
      <point x="189.6093023255814" y="1084.1860465116279"/>
      <point x="152.73178294573643" y="1063.0813953488373" type="curve" smooth="yes"/>
      <point x="139.34496124031008" y="1055.3356589147286"/>
      <point x="140.31395348837208" y="1024.5038759689924"/>
      <point x="110.4953488372093" y="1007.4263565891473" type="curve"/>
    </contour>
    <contour>
      <point x="354.168992248062" y="849.0937984496124" type="curve"/>
      <point x="382.6511627906977" y="849.0937984496124" type="line"/>
      <point x="382.6511627906977" y="883.6488372093023"/>
      <point x="411.3015503875969" y="897.2527131782946"/>
      <point x="411.3015503875969" y="913.6077519379845" type="curve" smooth="yes"/>
      <point x="411.3015503875969" y="952.5170542635659"/>
      <point x="381.88759689922483" y="1018.6302325581395"/>
      <point x="379.8968992248062" y="1139.44496124031" type="curve"/>
      <point x="356.9232558139535" y="1139.44496124031" type="line"/>
      <point x="354.9325581395349" y="1018.862015503876"/>
      <point x="327.5186046511628" y="952.2852713178295"/>
      <point x="327.5186046511628" y="913.6077519379845" type="curve" smooth="yes"/>
      <point x="327.5186046511628" y="896.9527131782945"/>
      <point x="354.168992248062" y="883.5806201550388"/>
    </contour>
    <contour>
      <point x="362.7325581395349" y="1130.4945736434108" type="curve"/>
      <point x="374.7193798449612" y="1149.6953488372094" type="line"/>
      <point x="271.2728682170543" y="1212.2457364341085"/>
      <point x="233.50077519379846" y="1266.0457364341084"/>
      <point x="194.1232558139535" y="1288.2186046511629" type="curve" smooth="yes"/>
      <point x="184.63643410852714" y="1293.7961240310078"/>
      <point x="153.98682170542637" y="1280.0"/>
      <point x="124.16821705426358" y="1297.4093023255814" type="curve"/>
      <point x="110.4953488372093" y="1272.7635658914728" type="line"/>
      <point x="140.0139534883721" y="1255.6860465116279"/>
      <point x="140.61317829457366" y="1223.086046511628"/>
      <point x="152.43178294573644" y="1215.808527131783" type="curve" smooth="yes"/>
      <point x="191.10930232558138" y="1192.9356589147287"/>
      <point x="257.6953488372093" y="1188.4589147286822"/>
    </contour>
    <contour>
      <point x="543.3968992248062" y="990.6713178294574" type="curve" smooth="yes"/>
      <point x="559.415503875969" y="981.5937984496124"/>
      <point x="583.7651162790697" y="999.8899224806202"/>
      <point x="613.2837209302326" y="982.4124031007752" type="curve"/>
      <point x="627.3248062015504" y="1007.0581395348837" type="line"/>
      <point x="597.5062015503876" y="1024.1356589147288"/>
      <point x="606.1751937984496" y="1050.4356589147287"/>
      <point x="585.0883720930233" y="1062.3813953488373" type="curve" smooth="yes"/>
      <point x="555.2108527131783" y="1078.586046511628"/>
      <point x="480.2248062015504" y="1091.6627906976744"/>
      <point x="374.7193798449612" y="1149.6953488372094" type="curve"/>
      <point x="362.7325581395349" y="1130.4945736434108" type="line"/>
      <point x="467.47906976744184" y="1067.6441860465115"/>
      <point x="506.81937984496125" y="1012.1441860465117"/>
    </contour>
    <contour>
      <point x="356.9232558139535" y="1139.44496124031" type="curve"/>
      <point x="379.8968992248062" y="1139.44496124031" type="line"/>
      <point x="381.88759689922483" y="1260.9596899224807"/>
      <point x="411.3015503875969" y="1326.7046511627907"/>
      <point x="411.3015503875969" y="1365.2821705426356" type="curve" smooth="yes"/>
      <point x="411.3015503875969" y="1381.6372093023256"/>
      <point x="382.6511627906977" y="1395.2410852713178"/>
      <point x="382.6511627906977" y="1429.7961240310078" type="curve"/>
      <point x="354.168992248062" y="1429.7961240310078" type="line"/>
      <point x="354.168992248062" y="1394.941085271318"/>
      <point x="327.5186046511628" y="1381.568992248062"/>
      <point x="327.5186046511628" y="1365.2821705426356" type="curve" smooth="yes"/>
      <point x="327.5186046511628" y="1327.3046511627906"/>
      <point x="354.9325581395349" y="1260.7279069767442"/>
    </contour>
  </outline>
</glyph>
<glyph name="plus" format="2">
  <advance width="1041.237984496124"/>
  <unicode hex="002B"/>
  <note>
plus
</note>
  <outline>
    <contour>
      <point x="120.53643410852713" y="627.8751937984496" type="line"/>
      <point x="920.7015503875969" y="627.8751937984496" type="line"/>
      <point x="920.7015503875969" y="708.2883720930232" type="line"/>
      <point x="120.53643410852713" y="708.2883720930232" type="line"/>
    </contour>
    <contour>
      <point x="488.51317829457366" y="267.99922480620154" type="line"/>
      <point x="552.7248062015503" y="267.99922480620154" type="line"/>
      <point x="552.7248062015503" y="1068.1643410852714" type="line"/>
      <point x="488.51317829457366" y="1068.1643410852714" type="line"/>
    </contour>
  </outline>
</glyph>
<glyph name="comma" format="2">
  <advance width="475.38992248062016"/>
  <unicode hex="002C"/>
  <note>
comma
</note>
  <outline>
    <contour>
      <point x="136.12713178294572" y="-138.6782945736434" type="curve"/>
      <point x="228.90697674418604" y="-138.6782945736434" type="line"/>
      <point x="279.6937984496124" y="-43.52325581395349"/>
      <point x="319.52635658914727" y="61.51007751937985"/>
      <point x="345.0627906976744" y="158.79224806201552" type="curve"/>
      <point x="219.768992248062" y="158.79224806201552" type="line"/>
      <point x="187.3186046511628" y="86.12325581395349"/>
      <point x="149.24108527131784" y="-57.41782945736434"/>
    </contour>
  </outline>
</glyph>
<glyph name="hyphen" format="2">
  <advance width="577.7868217054264"/>
  <unicode hex="002D"/>
  <note>
hyphen
</note>
  <outline>
    <contour>
      <point x="74.99069767441861" y="456.6488372093023" type="line"/>
      <point x="469.68527131782946" y="456.6488372093023" type="line"/>
      <point x="503.1643410852713" y="560.2612403100775" type="line"/>
      <point x="107.73333333333333" y="560.2612403100775" type="line"/>
    </contour>
  </outline>
</glyph>
<glyph name="period" format="2">
  <advance width="434.16279069767444"/>
  <unicode hex="002E"/>
  <note>
period
</note>
  <outline>
    <contour>
      <point x="217.04728682170543" y="-11.654263565891473" type="curve" smooth="yes"/>
      <point x="264.92093023255813" y="-11.654263565891473"/>
      <point x="302.8992248062016" y="23.310077519379846"/>
      <point x="302.8992248062016" y="75.12945736434108" type="curve" smooth="yes"/>
      <point x="302.8992248062016" y="127.0170542635659"/>
      <point x="264.22093023255815" y="160.64961240310078"/>
      <point x="217.04728682170543" y="160.64961240310078" type="curve" smooth="yes"/>
      <point x="169.9418604651163" y="160.64961240310078"/>
      <point x="131.26356589147287" y="126.94883720930233"/>
      <point x="131.26356589147287" y="75.12945736434108" type="curve" smooth="yes"/>
      <point x="131.26356589147287" y="23.610077519379846"/>
      <point x="168.8736434108527" y="-11.654263565891473"/>
    </contour>
  </outline>
</glyph>
<glyph name="slash" format="2">
  <advance width="658.4341085271318"/>
  <unicode hex="002F"/>
  <note>
slash
</note>
  <outline>
    <contour>
      <point x="48.363565891472874" y="-400.3953488372093" type="line"/>
      <point x="125.44728682170543" y="-400.3953488372093" type="line"/>
      <point x="610.070542635659" y="1497.1" type="line"/>
      <point x="533.2868217054264" y="1497.1" type="line"/>
    </contour>
  </outline>
</glyph>
<glyph name="zero" format="2">
  <advance width="1267.3271317829458"/>
  <unicode hex="0030"/>
  <note>
zero
</note>
  <anchor x="629.9472868217055" y="715.7" name="center"/>
  <outline>
    <contour>
      <point x="633.6294573643411" y="-25.704651162790697" type="curve" smooth="yes"/>
      <point x="956.3441860465116" y="-25.704651162790697"/>
      <point x="1174.1317829457364" y="272.57751937984494"/>
      <point x="1174.1317829457364" y="715.7" type="curve" smooth="yes"/>
      <point x="1174.1317829457364" y="1154.1038759689923"/>
      <point x="951.9937984496124" y="1456.4728682170542"/>
      <point x="633.6294573643411" y="1456.4728682170542" type="curve" smooth="yes"/>
      <point x="314.2968992248062" y="1456.4728682170542"/>
      <point x="93.19534883720931" y="1154.7720930232558"/>
      <point x="93.19534883720931" y="715.7" type="curve" smooth="yes"/>
      <point x="93.19534883720931" y="274.0503875968992"/>
      <point x="312.0875968992248" y="-25.704651162790697"/>
    </contour>
    <contour>
      <point x="633.6294573643411" y="36.07441860465117" type="curve" smooth="yes"/>
      <point x="381.02635658914727" y="36.07441860465117"/>
      <point x="214.51782945736434" y="305.0968992248062"/>
      <point x="214.51782945736434" y="715.7" type="curve" smooth="yes"/>
      <point x="214.51782945736434" y="1125.9348837209302"/>
      <point x="381.02635658914727" y="1394.9937984496123"/>
      <point x="633.6294573643411" y="1394.9937984496123" type="curve" smooth="yes"/>
      <point x="886.3007751937985" y="1394.9937984496123"/>
      <point x="1052.577519379845" y="1125.2666666666667"/>
      <point x="1052.577519379845" y="715.7" type="curve" smooth="yes"/>
      <point x="1052.577519379845" y="305.8333333333333"/>
      <point x="886.6689922480621" y="36.07441860465117"/>
    </contour>
  </outline>
</glyph>
<glyph name="one" format="2">
  <advance width="539.6728682170543"/>
  <unicode hex="0031"/>
  <note>
one
</note>
  <outline>
    <contour>
      <point x="270.5232558139535" y="-0.30000000000000004" type="line"/>
      <point x="383.1093023255814" y="-0.30000000000000004" type="line"/>
      <point x="383.1093023255814" y="1428.5271317829458" type="line"/>
      <point x="337.31162790697675" y="1428.5271317829458" type="line"/>
      <point x="46.86356589147287" y="998.1248062015504" type="line"/>
      <point x="78.25968992248062" y="972.8604651162791" type="line"/>
      <point x="293.95038759689925" y="1285.7038759689922" type="line"/>
      <point x="270.5232558139535" y="1296.641085271318" type="line"/>
    </contour>
  </outline>
</glyph>
<glyph name="two" format="2">
  <advance width="1048.8038759689923"/>
  <unicode hex="0032"/>
  <note>
two
</note>
  <outline>
    <contour>
      <point x="58.06356589147287" y="0.0" type="line"/>
      <point x="973.2403100775194" y="0.0" type="line"/>
      <point x="973.2403100775194" y="97.8984496124031" type="line"/>
      <point x="188.64418604651163" y="98.5984496124031" type="line"/>
      <point x="173.64418604651163" y="57.15193798449612" type="line"/>
      <point x="307.0705426356589" y="181.50387596899225"/>
      <point x="591.8589147286822" y="485.0093023255814"/>
      <point x="703.8403100775193" y="615.0813953488372" type="curve" smooth="yes"/>
      <point x="864.5782945736435" y="800.1961240310078"/>
      <point x="941.9581395348837" y="930.55503875969"/>
      <point x="941.9581395348837" y="1085.8666666666666" type="curve" smooth="yes"/>
      <point x="941.9581395348837" y="1298.6899224806202"/>
      <point x="797.3310077519379" y="1460.4364341085272"/>
      <point x="542.3248062015504" y="1460.4364341085272" type="curve" smooth="yes"/>
      <point x="296.11007751937984" y="1460.4364341085272"/>
      <point x="123.87751937984497" y="1280.1906976744185"/>
      <point x="123.87751937984497" y="1046.8906976744186" type="curve" smooth="yes"/>
      <point x="123.87751937984497" y="1025.9542635658916"/>
      <point x="124.24573643410852" y="1012.1682170542636"/>
      <point x="127.18217054263566" y="992.4813953488372" type="curve"/>
      <point x="227.06279069767442" y="993.586046511628" type="line"/>
      <point x="227.06279069767442" y="1024.522480620155" type="line" smooth="yes"/>
      <point x="227.06279069767442" y="1244.8527131782946"/>
      <point x="338.206976744186" y="1405.8713178294574"/>
      <point x="526.4108527131783" y="1405.8713178294574" type="curve" smooth="yes"/>
      <point x="655.1682170542636" y="1405.8713178294574"/>
      <point x="826.3906976744186" y="1351.9953488372093"/>
      <point x="826.3906976744186" y="1096.2" type="curve" smooth="yes"/>
      <point x="826.3906976744186" y="845.5883720930233"/>
      <point x="655.4341085271318" y="654.268992248062"/>
      <point x="412.5201550387597" y="386.91472868217056" type="curve" smooth="yes"/>
    </contour>
  </outline>
</glyph>
<glyph name="three" format="2">
  <advance width="1012.5403100775194"/>
  <unicode hex="0033"/>
  <note>
three
</note>
  <outline>
    <contour>
      <point x="480.77906976744185" y="-31.15891472868217" type="curve" smooth="yes"/>
      <point x="755.3488372093024" y="-31.15891472868217"/>
      <point x="918.6131782945737" y="145.33643410852713"/>
      <point x="918.6131782945737" y="385.74573643410855" type="curve" smooth="yes"/>
      <point x="918.6131782945737" y="605.7364341085271"/>
      <point x="778.6542635658915" y="745.2"/>
      <point x="583.0581395348837" y="773.5007751937984" type="curve"/>
      <point x="543.9248062015504" y="739.3813953488373" type="line"/>
      <point x="727.7271317829458" y="752.3093023255814"/>
      <point x="888.531007751938" y="871.7046511627907"/>
      <point x="888.531007751938" y="1092.786046511628" type="curve" smooth="yes"/>
      <point x="888.531007751938" y="1299.6589147286822"/>
      <point x="758.0441860465116" y="1456.4728682170542"/>
      <point x="515.0790697674419" y="1456.4728682170542" type="curve" smooth="yes"/>
      <point x="276.94108527131783" y="1456.4728682170542"/>
      <point x="112.3" y="1310.2178294573644"/>
      <point x="100.93178294573643" y="1074.2457364341085" type="curve"/>
      <point x="199.38062015503877" y="1073.877519379845" type="line"/>
      <point x="197.55348837209303" y="1278.915503875969"/>
      <point x="324.21085271317827" y="1399.339534883721"/>
      <point x="510.77906976744185" y="1399.339534883721" type="curve" smooth="yes"/>
      <point x="712.146511627907" y="1399.339534883721"/>
      <point x="788.2093023255813" y="1260.139534883721"/>
      <point x="788.2093023255813" y="1091.5131782945737" type="curve" smooth="yes"/>
      <point x="788.2093023255813" y="887.1317829457364"/>
      <point x="675.9325581395349" y="782.55503875969"/>
      <point x="466.71085271317827" y="782.55503875969" type="curve" smooth="yes"/>
      <point x="287.5503875968992" y="782.55503875969" type="line"/>
      <point x="287.5503875968992" y="731.6813953488372" type="line"/>
      <point x="470.71085271317827" y="731.6813953488372" type="line" smooth="yes"/>
      <point x="675.8914728682171" y="731.6813953488372"/>
      <point x="803.6728682170543" y="603.6860465116279"/>
      <point x="803.6728682170543" y="383.45038759689925" type="curve" smooth="yes"/>
      <point x="803.6728682170543" y="166.82868217054263"/>
      <point x="675.1782945736434" y="24.869767441860468"/>
      <point x="486.77906976744185" y="24.869767441860468" type="curve" smooth="yes"/>
      <point x="301.4527131782946" y="24.869767441860468"/>
      <point x="182.02635658914727" y="162.61472868217055"/>
      <point x="182.02635658914727" y="352.1093023255814" type="curve" smooth="yes"/>
      <point x="182.02635658914727" y="368.7682170542636" type="line"/>
      <point x="74.19534883720931" y="368.7682170542636" type="line"/>
      <point x="74.19534883720931" y="343.2139534883721" type="line" smooth="yes"/>
      <point x="74.19534883720931" y="108.30465116279069"/>
      <point x="234.6139534883721" y="-31.15891472868217"/>
    </contour>
  </outline>
</glyph>
<glyph name="four" format="2">
  <advance width="1001.0364341085271"/>
  <unicode hex="0034"/>
  <note>
four
</note>
  <outline>
    <contour>
      <point x="702.1511627906976" y="0.0" type="line"/>
      <point x="776.0589147286822" y="0.0" type="line"/>
      <point x="776.0589147286822" y="448.6093023255814" type="line"/>
      <point x="691.1170542635659" y="376.8263565891473" type="line"/>
      <point x="949.3364341085271" y="376.8263565891473" type="line"/>
      <point x="949.3364341085271" y="471.16511627906976" type="line"/>
      <point x="691.1170542635659" y="471.16511627906976" type="line"/>
      <point x="776.0589147286822" y="400.7852713178295" type="line"/>
      <point x="776.0589147286822" y="891.5023255813953" type="line"/>
      <point x="702.1511627906976" y="891.5023255813953" type="line"/>
      <point x="702.1511627906976" y="400.7852713178295" type="line"/>
      <point x="774.3976744186047" y="471.16511627906976" type="line"/>
      <point x="139.2248062015504" y="471.16511627906976" type="line"/>
      <point x="177.83953488372094" y="435.3" type="line"/>
      <point x="343.71627906976744" y="720.7868217054264"/>
      <point x="512.6488372093023" y="1054.7565891472868"/>
      <point x="641.9496124031008" y="1441.8232558139534" type="curve"/>
      <point x="563.7875968992248" y="1441.8232558139534" type="line"/>
      <point x="417.2046511627907" y="1029.0286821705427"/>
      <point x="237.35813953488372" y="683.4674418604651"/>
      <point x="46.09534883720931" y="376.8263565891473" type="curve"/>
      <point x="774.3976744186047" y="376.8263565891473" type="line"/>
      <point x="702.1511627906976" y="448.6093023255814" type="line"/>
    </contour>
  </outline>
</glyph>
<glyph name="five" format="2">
  <advance width="945.3441860465116"/>
  <unicode hex="0035"/>
  <note>
five
</note>
  <outline>
    <contour>
      <point x="366.72558139534885" y="-25.34108527131783" type="curve" smooth="yes"/>
      <point x="647.9356589147287" y="-25.34108527131783"/>
      <point x="868.7488372093023" y="177.8186046511628"/>
      <point x="868.7488372093023" y="455.2" type="curve" smooth="yes"/>
      <point x="868.7488372093023" y="732.2457364341085"/>
      <point x="676.4883720930233" y="867.6139534883721"/>
      <point x="444.25658914728683" y="867.6139534883721" type="curve" smooth="yes"/>
      <point x="342.41472868217056" y="867.6139534883721"/>
      <point x="235.62868217054265" y="838.7813953488372"/>
      <point x="165.42868217054263" y="789.9852713178294" type="curve"/>
      <point x="193.6248062015504" y="786.631007751938" type="line"/>
      <point x="321.06976744186045" y="1365.6937984496124" type="line"/>
      <point x="255.66744186046512" y="1320.4790697674418" type="line"/>
      <point x="787.584496124031" y="1320.4790697674418" type="line"/>
      <point x="787.584496124031" y="1430.0" type="line"/>
      <point x="265.9496124031008" y="1430.0" type="line"/>
      <point x="119.9953488372093" y="757.1403100775194" type="line"/>
      <point x="147.015503875969" y="742.984496124031" type="line"/>
      <point x="228.28372093023256" y="785.7302325581395"/>
      <point x="338.82945736434107" y="807.4573643410853"/>
      <point x="412.6286821705426" y="807.4573643410853" type="curve" smooth="yes"/>
      <point x="624.8829457364341" y="807.4573643410853"/>
      <point x="759.422480620155" y="673.953488372093"/>
      <point x="759.422480620155" y="450.0449612403101" type="curve" smooth="yes"/>
      <point x="759.422480620155" y="209.83643410852713"/>
      <point x="587.160465116279" y="37.94728682170543"/>
      <point x="368.1480620155039" y="37.94728682170543" type="curve" smooth="yes"/>
      <point x="250.58837209302325" y="37.94728682170543"/>
      <point x="145.29612403100776" y="86.53410852713179"/>
      <point x="89.14573643410853" y="138.30232558139534" type="curve"/>
      <point x="58.763565891472865" y="88.76899224806202" type="line"/>
      <point x="140.73178294573643" y="23.705426356589147"/>
      <point x="230.55116279069767" y="-25.34108527131783"/>
    </contour>
  </outline>
</glyph>
<glyph name="six" format="2">
  <advance width="1048.4480620155039"/>
  <unicode hex="0036"/>
  <note>
six
</note>
  <outline>
    <contour>
      <point x="512.4790697674418" y="-33.0" type="curve" smooth="yes"/>
      <point x="803.206976744186" y="-36.96356589147287"/>
      <point x="977.784496124031" y="168.7906976744186"/>
      <point x="977.784496124031" y="439.4364341085271" type="curve" smooth="yes"/>
      <point x="977.784496124031" y="700.9868217054263"/>
      <point x="806.5209302325582" y="889.9961240310078"/>
      <point x="547.7062015503876" y="889.9961240310078" type="curve" smooth="yes"/>
      <point x="353.3077519379845" y="889.9961240310078"/>
      <point x="210.23488372093024" y="776.915503875969"/>
      <point x="151.42868217054263" y="585.470542635659" type="curve"/>
      <point x="190.5031007751938" y="610.3751937984496" type="line"/>
      <point x="192.5124031007752" y="710.2240310077519"/>
      <point x="205.90310077519382" y="802.9170542635659"/>
      <point x="262.36976744186046" y="918.0751937984496" type="curve" smooth="yes"/>
      <point x="349.87441860465117" y="1134.6263565891472"/>
      <point x="530.4558139534884" y="1303.7441860465117"/>
      <point x="767.0054263565892" y="1364.2209302325582" type="curve"/>
      <point x="766.268992248062" y="1442.4007751937984" type="line"/>
      <point x="515.0937984496124" y="1395.0418604651163"/>
      <point x="349.06201550387595" y="1245.9813953488372"/>
      <point x="240.22558139534885" y="1070.6620155038759" type="curve" smooth="yes"/>
      <point x="126.20930232558139" y="900.8031007751938"/>
      <point x="87.8953488372093" y="706.8953488372093"/>
      <point x="87.8953488372093" y="523.0542635658915" type="curve" smooth="yes"/>
      <point x="87.8953488372093" y="134.6643410852713"/>
      <point x="258.30930232558137" y="-29.668217054263565"/>
    </contour>
    <contour>
      <point x="528.2697674418605" y="30.429457364341086" type="curve" smooth="yes"/>
      <point x="292.5077519379845" y="33.761240310077525"/>
      <point x="199.19457364341085" y="239.25968992248062"/>
      <point x="202.45813953488374" y="461.26356589147287" type="curve" smooth="yes"/>
      <point x="205.0217054263566" y="648.3899224806202"/>
      <point x="344.87984496124034" y="823.0255813953488"/>
      <point x="554.4604651162791" y="823.0255813953488" type="curve" smooth="yes"/>
      <point x="793.2992248062016" y="823.0255813953488"/>
      <point x="867.6945736434109" y="590.8914728682171"/>
      <point x="867.6945736434109" y="426.0503875968992" type="curve" smooth="yes"/>
      <point x="867.6945736434109" y="224.01937984496124"/>
      <point x="759.3093023255814" y="26.76589147286822"/>
    </contour>
  </outline>
</glyph>
<glyph name="seven" format="2">
  <advance width="919.5224806201551"/>
  <unicode hex="0037"/>
  <note>
seven
</note>
  <outline>
    <contour>
      <point x="226.41472868217056" y="0.0" type="curve"/>
      <point x="319.90465116279074" y="0.0" type="line"/>
      <point x="427.4372093023256" y="550.5682170542635"/>
      <point x="620.3558139534883" y="1042.5100775193798"/>
      <point x="872.6589147286821" y="1417.1046511627908" type="curve"/>
      <point x="50.6" y="1417.1046511627908" type="line"/>
      <point x="50.6" y="1303.2472868217055" type="line"/>
      <point x="763.5472868217055" y="1303.2472868217055" type="line"/>
      <point x="738.6736434108527" y="1349.253488372093" type="line"/>
      <point x="526.3387596899224" y="1017.7744186046511"/>
      <point x="338.3705426356589" y="541.7054263565891"/>
    </contour>
  </outline>
</glyph>
<glyph name="eight" format="2">
  <advance width="1012.8852713178295"/>
  <unicode hex="0038"/>
  <note>
eight
</note>
  <outline>
    <contour>
      <point x="502.0511627906977" y="-31.068217054263567" type="curve" smooth="yes"/>
      <point x="760.784496124031" y="-31.068217054263567"/>
      <point x="926.4217054263565" y="125.2046511627907"/>
      <point x="926.4217054263565" y="380.69147286821703" type="curve" smooth="yes"/>
      <point x="926.4217054263565" y="577.0007751937984"/>
      <point x="824.0713178294574" y="725.7325581395348"/>
      <point x="591.7201550387597" y="812.4100775193798" type="curve" smooth="yes"/>
      <point x="331.7449612403101" y="913.7457364341085"/>
      <point x="260.04883720930235" y="995.9317829457365"/>
      <point x="260.04883720930235" y="1112.1317829457364" type="curve" smooth="yes"/>
      <point x="260.04883720930235" y="1271.4627906976743"/>
      <point x="364.2937984496124" y="1388.1124031007753"/>
      <point x="521.0069767441861" y="1388.1124031007753" type="curve" smooth="yes"/>
      <point x="665.9612403100775" y="1388.1124031007753"/>
      <point x="794.7418604651162" y="1259.9852713178295"/>
      <point x="794.7418604651162" y="1110.4271317829457" type="curve" smooth="yes"/>
      <point x="794.7418604651162" y="993.413953488372"/>
      <point x="720.4930232558139" y="864.3821705426357"/>
      <point x="537.7480620155038" y="796.1821705426356" type="curve"/>
      <point x="619.6705426356589" y="777.1085271317829" type="line"/>
      <point x="760.1031007751938" y="841.1945736434109"/>
      <point x="863.398449612403" y="978.2488372093023"/>
      <point x="863.398449612403" y="1117.608527131783" type="curve" smooth="yes"/>
      <point x="863.398449612403" y="1307.5813953488373"/>
      <point x="703.1937984496124" y="1443.0728682170543"/>
      <point x="514.9837209302326" y="1443.0728682170543" type="curve" smooth="yes"/>
      <point x="311.6643410852713" y="1442.7046511627907"/>
      <point x="158.06356589147288" y="1319.222480620155"/>
      <point x="158.06356589147288" y="1102.9038759689922" type="curve" smooth="yes"/>
      <point x="158.06356589147288" y="941.6441860465117"/>
      <point x="256.0" y="818.4480620155039"/>
      <point x="422.6782945736434" y="752.2387596899225" type="curve" smooth="yes"/>
      <point x="756.3860465116279" y="614.8302325581395"/>
      <point x="816.3317829457364" y="504.9767441860465"/>
      <point x="816.3317829457364" y="368.6" type="curve" smooth="yes"/>
      <point x="816.3317829457364" y="174.8596899224806"/>
      <point x="702.377519379845" y="37.22868217054264"/>
      <point x="496.10542635658913" y="33.72868217054263" type="curve" smooth="yes"/>
      <point x="263.5922480620155" y="30.228682170542633"/>
      <point x="162.76589147286822" y="201.04651162790697"/>
      <point x="162.76589147286822" y="373.5906976744186" type="curve" smooth="yes"/>
      <point x="162.39767441860465" y="535.9945736434108"/>
      <point x="247.98294573643412" y="672.7852713178295"/>
      <point x="446.4341085271318" y="771.3131782945736" type="curve"/>
      <point x="389.9364341085271" y="789.9364341085271" type="line"/>
      <point x="191.86356589147286" y="701.0186046511628"/>
      <point x="80.86356589147287" y="556.7550387596899"/>
      <point x="80.86356589147287" y="366.6139534883721" type="curve" smooth="yes"/>
      <point x="80.86356589147287" y="150.82713178294574"/>
      <point x="227.62248062015505" y="-31.068217054263567"/>
    </contour>
  </outline>
</glyph>
<glyph name="nine" format="2">
  <advance width="1050.6162790697674"/>
  <unicode hex="0039"/>
  <note>
nine
</note>
  <outline>
    <contour>
      <point x="274.9317829457364" y="-31.74573643410853" type="line"/>
      <point x="451.72868217054264" y="0.8767441860465102"/>
      <point x="604.1325581395349" y="78.07519379844962"/>
      <point x="700.2558139534883" y="175.55271317829457" type="curve" smooth="yes"/>
      <point x="751.8108527131783" y="226.03023255813955"/>
      <point x="798.0930232558139" y="289.65813953488373"/>
      <point x="839.1976744186046" y="365.2627906976744" type="curve" smooth="yes"/>
      <point x="922.1480620155039" y="516.8449612403101"/>
      <point x="961.9527131782946" y="690.9457364341085"/>
      <point x="961.9527131782946" y="874.3007751937985" type="curve" smooth="yes"/>
      <point x="961.9527131782946" y="1245.8906976744186"/>
      <point x="803.7705426356589" y="1441.7232558139535"/>
      <point x="530.368992248062" y="1442.25503875969" type="curve" smooth="yes"/>
      <point x="246.19612403100774" y="1442.7186046511629"/>
      <point x="70.66356589147287" y="1234.8643410852712"/>
      <point x="70.66356589147287" y="971.1457364341085" type="curve" smooth="yes"/>
      <point x="70.66356589147287" y="703.4813953488372"/>
      <point x="250.84108527131784" y="514.4720930232559"/>
      <point x="501.0736434108527" y="514.4720930232559" type="curve" smooth="yes"/>
      <point x="695.1403100775194" y="514.4720930232559"/>
      <point x="829.9263565891473" y="645.5302325581396"/>
      <point x="891.4193798449612" y="812.9527131782946" type="curve"/>
      <point x="856.8038759689922" y="838.7798449612403" type="line"/>
      <point x="873.4356589147287" y="589.8271317829458"/>
      <point x="757.4364341085271" y="394.8612403100775"/>
      <point x="699.5697674418604" y="313.6713178294574" type="curve" smooth="yes"/>
      <point x="601.5651162790698" y="168.5201550387597"/>
      <point x="472.48837209302326" y="91.10232558139535"/>
      <point x="281.19147286821703" y="45.766666666666666" type="curve"/>
    </contour>
    <contour>
      <point x="499.5875968992248" y="586.8201550387597" type="curve" smooth="yes"/>
      <point x="257.6170542635659" y="586.8201550387597"/>
      <point x="182.2263565891473" y="819.7635658914729"/>
      <point x="182.2263565891473" y="983.8317829457364" type="curve" smooth="yes"/>
      <point x="182.2263565891473" y="1184.4992248062015"/>
      <point x="296.87519379844963" y="1374.0527131782947"/>
      <point x="515.2782945736434" y="1373.5209302325582" type="curve" smooth="yes"/>
      <point x="741.2038759689923" y="1373.3573643410853"/>
      <point x="848.1124031007752" y="1168.7813953488371"/>
      <point x="847.6488372093023" y="978.7186046511628" type="curve" smooth="yes"/>
      <point x="847.1852713178295" y="762.8558139534883"/>
      <point x="707.6953488372093" y="586.8201550387597"/>
    </contour>
  </outline>
</glyph>
<glyph name="greater" format="2">
  <advance width="1041.237984496124"/>
  <unicode hex="003E"/>
  <note>
greater
</note>
  <outline>
    <contour>
      <point x="120.53643410852713" y="338.2922480620155" type="line"/>
      <point x="870.453488372093" y="657.9348837209302" type="line"/>
      <point x="870.453488372093" y="709.2604651162791" type="line"/>
      <point x="120.53643410852713" y="1027.203100775194" type="line"/>
      <point x="120.53643410852713" y="946.3682170542636" type="line"/>
      <point x="741.8953488372093" y="682.9317829457365" type="line"/>
      <point x="120.53643410852713" y="419.12713178294575" type="line"/>
    </contour>
  </outline>
</glyph>
<glyph name="question" format="2">
  <advance width="906.1713178294574"/>
  <unicode hex="003F"/>
  <note>
question
</note>
  <outline>
    <contour>
      <point x="377.05968992248063" y="364.67286821705426" type="curve"/>
      <point x="453.84728682170544" y="364.67286821705426" type="line"/>
      <point x="432.5201550387597" y="444.13798449612403"/>
      <point x="416.43333333333334" y="530.470542635659"/>
      <point x="416.43333333333334" y="594.9193798449612" type="curve" smooth="yes"/>
      <point x="416.43333333333334" y="920.8883720930232"/>
      <point x="796.8488372093024" y="858.3589147286822"/>
      <point x="796.8488372093024" y="1177.9720930232559" type="curve" smooth="yes"/>
      <point x="796.8488372093024" y="1382.8906976744186"/>
      <point x="642.3341085271318" y="1462.0"/>
      <point x="418.34186046511627" y="1462.0" type="curve" smooth="yes"/>
      <point x="162.8635658914729" y="1462.0"/>
      <point x="61.19069767441861" y="1357.0"/>
      <point x="61.19069767441861" y="1172.886046511628" type="curve" smooth="yes"/>
      <point x="61.19069767441861" y="1161.4178294573644"/>
      <point x="61.19069767441861" y="1150.522480620155"/>
      <point x="61.19069767441861" y="1127.4899224806202" type="curve"/>
      <point x="169.1527131782946" y="1127.4899224806202" type="line"/>
      <point x="162.6751937984496" y="1156.777519379845"/>
      <point x="161.53875968992247" y="1183.332558139535"/>
      <point x="161.53875968992247" y="1193.9" type="curve" smooth="yes"/>
      <point x="161.53875968992247" y="1324.4356589147287"/>
      <point x="261.8201550387597" y="1400.120930232558"/>
      <point x="415.71007751937987" y="1400.120930232558" type="curve" smooth="yes"/>
      <point x="571.7317829457364" y="1400.120930232558"/>
      <point x="679.586046511628" y="1332.5255813953488"/>
      <point x="679.586046511628" y="1168.3542635658914" type="curve" smooth="yes"/>
      <point x="679.586046511628" y="882.0240310077519"/>
      <point x="351.0503875968992" y="977.0217054263566"/>
      <point x="351.0503875968992" y="583.2193798449613" type="curve" smooth="yes"/>
      <point x="351.0503875968992" y="529.3744186046512"/>
      <point x="357.37751937984495" y="459.65271317829456"/>
    </contour>
    <contour>
      <point x="421.3782945736434" y="-16.441085271317828" type="curve" smooth="yes"/>
      <point x="465.5015503875969" y="-16.441085271317828"/>
      <point x="497.5883720930233" y="19.927906976744186"/>
      <point x="497.5883720930233" y="67.3968992248062" type="curve" smooth="yes"/>
      <point x="497.5883720930233" y="114.49767441860465"/>
      <point x="464.8015503875969" y="149.23488372093024"/>
      <point x="421.3782945736434" y="149.23488372093024" type="curve" smooth="yes"/>
      <point x="377.95503875968996" y="149.23488372093024"/>
      <point x="345.16821705426355" y="114.49767441860465"/>
      <point x="345.16821705426355" y="67.3968992248062" type="curve" smooth="yes"/>
      <point x="345.16821705426355" y="19.927906976744186"/>
      <point x="377.2550387596899" y="-16.441085271317828"/>
    </contour>
  </outline>
</glyph>
<glyph name="at" format="2">
  <advance width="1711.531007751938"/>
  <unicode hex="0040"/>
  <note>
at
</note>
  <outline>
    <contour>
      <point x="900.6333333333333" y="-32.2093023255814" type="curve" smooth="yes"/>
      <point x="1186.0480620155038" y="-32.2093023255814"/>
      <point x="1439.4627906976743" y="124.05038759689923"/>
      <point x="1570.7767441860465" y="360.4108527131783" type="curve"/>
      <point x="1493.401550387597" y="362.1286821705426" type="line"/>
      <point x="1369.937984496124" y="163.12868217054265"/>
      <point x="1150.8697674418604" y="33.137984496124034"/>
      <point x="900.101550387597" y="33.137984496124034" type="curve" smooth="yes"/>
      <point x="516.7472868217054" y="33.137984496124034"/>
      <point x="205.0201550387597" y="338.90542635658915"/>
      <point x="205.0201550387597" y="714.8953488372093" type="curve" smooth="yes"/>
      <point x="205.0201550387597" y="1089.6217054263566"/>
      <point x="516.7472868217054" y="1395.3891472868218"/>
      <point x="900.101550387597" y="1395.3891472868218" type="curve" smooth="yes"/>
      <point x="1237.724031007752" y="1395.3891472868218"/>
      <point x="1489.5100775193798" y="1161.317054263566"/>
      <point x="1489.5100775193798" y="838.3589147286822" type="curve" smooth="yes"/>
      <point x="1489.5100775193798" y="744.1906976744186"/>
      <point x="1462.8782945736434" y="649.3682170542636"/>
      <point x="1415.9736434108527" y="574.3093023255814" type="curve" smooth="yes"/>
      <point x="1366.9968992248062" y="493.6875968992248"/>
      <point x="1290.9837209302325" y="425.54651162790697"/>
      <point x="1200.8937984496124" y="414.5" type="curve" smooth="yes"/>
      <point x="1161.9441860465117" y="416.3410852713178"/>
      <point x="1102.9403100775194" y="447.8953488372093"/>
      <point x="1111.6263565891472" y="523.9031007751938" type="curve"/>
      <point x="1252.0953488372093" y="1081.7325581395348" type="line"/>
      <point x="1142.641085271318" y="1081.7325581395348" type="line"/>
      <point x="1112.7961240310078" y="965.1395348837209" type="line"/>
      <point x="1092.377519379845" y="1064.360465116279"/>
      <point x="1038.641085271318" y="1101.7325581395348"/>
      <point x="943.4279069767442" y="1101.7325581395348" type="curve" smooth="yes"/>
      <point x="682.5906976744186" y="1101.7325581395348"/>
      <point x="492.23023255813956" y="829.7325581395348"/>
      <point x="492.23023255813956" y="599.1627906976744" type="curve" smooth="yes"/>
      <point x="492.23023255813956" y="435.9573643410853"/>
      <point x="590.9627906976744" y="329.5387596899225"/>
      <point x="758.377519379845" y="329.5387596899225" type="curve" smooth="yes"/>
      <point x="863.7457364341085" y="329.5387596899225"/>
      <point x="954.2813953488372" y="363.5883720930233"/>
      <point x="1016.377519379845" y="496.1240310077519" type="curve"/>
      <point x="1031.11007751938" y="395.8062015503876"/>
      <point x="1085.11007751938" y="342.5387596899225"/>
      <point x="1173.5325581395348" y="342.5387596899225" type="curve" smooth="yes"/>
      <point x="1243.7418604651164" y="342.5387596899225"/>
      <point x="1308.0558139534883" y="367.6434108527132"/>
      <point x="1364.2108527131784" y="410.9573643410853" type="curve" smooth="yes"/>
      <point x="1423.7341085271319" y="456.27131782945736"/>
      <point x="1467.4705426356588" y="514.1666666666666"/>
      <point x="1501.1527131782946" y="585.4806201550388" type="curve" smooth="yes"/>
      <point x="1538.098449612403" y="662.7945736434109"/>
      <point x="1557.203100775194" y="749.2674418604652"/>
      <point x="1557.203100775194" y="835.0542635658915" type="curve" smooth="yes"/>
      <point x="1557.203100775194" y="1211.5271317829458"/>
      <point x="1284.6798449612404" y="1460.3682170542636"/>
      <point x="900.6333333333333" y="1460.3682170542636" type="curve" smooth="yes"/>
      <point x="478.69147286821703" y="1460.3682170542636"/>
      <point x="137.6953488372093" y="1126.7364341085272"/>
      <point x="137.6953488372093" y="714.8953488372093" type="curve" smooth="yes"/>
      <point x="137.6953488372093" y="301.42248062015506"/>
      <point x="478.3232558139535" y="-32.2093023255814"/>
    </contour>
    <contour>
      <point x="793.3457364341085" y="395.1635658914729" type="curve" smooth="yes"/>
      <point x="673.9697674418604" y="395.1635658914729"/>
      <point x="591.8891472868218" y="470.0674418604651"/>
      <point x="591.8891472868218" y="583.7899224806201" type="curve" smooth="yes"/>
      <point x="591.8891472868218" y="829.3209302325581"/>
      <point x="762.693023255814" y="1039.4124031007752"/>
      <point x="960.968992248062" y="1039.4124031007752" type="curve" smooth="yes"/>
      <point x="1040.277519379845" y="1039.4124031007752"/>
      <point x="1068.0635658914728" y="965.9813953488372"/>
      <point x="1068.0635658914728" y="866.4860465116279" type="curve" smooth="yes"/>
      <point x="1068.0635658914728" y="704.5806201550388"/>
      <point x="964.308527131783" y="395.1635658914729"/>
    </contour>
  </outline>
</glyph>
<glyph name="A" format="2">
  <advance width="1420.5077519379845"/>
  <unicode hex="0041"/>
  <note>
A
</note>
  <anchor x="691.8697674418605" y="5.046511627906977" name="bottom"/>
  <anchor x="1226.5488372093023" y="0.0" name="ogonek"/>
  <anchor x="707.9697674418604" y="1430.0" name="top"/>
  <outline>
    <contour>
      <point x="81.4953488372093" y="0.0" type="line"/>
      <point x="139.73798449612406" y="0.0" type="line"/>
      <point x="687.9" y="1309.6806201550387" type="line"/>
      <point x="661.1232558139535" y="1312.9713178294573" type="line"/>
      <point x="1201.6302325581396" y="0.0" type="line"/>
      <point x="1339.0124031007751" y="0.0" type="line"/>
      <point x="709.0697674418604" y="1479.4093023255814" type="line"/>
    </contour>
    <contour>
      <point x="286.1860465116279" y="447.9015503875969" type="line"/>
      <point x="1074.5503875968993" y="447.9015503875969" type="line"/>
      <point x="1049.8178294573643" y="509.8217054263566" type="line"/>
      <point x="311.69147286821703" y="509.8217054263566" type="line"/>
    </contour>
  </outline>
</glyph>
<glyph name="B" format="2">
  <advance width="1168.1813953488372"/>
  <unicode hex="0042"/>
  <note>
B
</note>
  <anchor x="558.6379844961241" y="5.046511627906977" name="bottom"/>
  <anchor x="558.6379844961241" y="1430.0" name="top"/>
  <outline>
    <contour>
      <point x="164.66356589147287" y="0.0" type="line"/>
      <point x="568.4147286821706" y="0.0" type="line" smooth="yes"/>
      <point x="878.8627906976744" y="0.0"/>
      <point x="1062.4178294573644" y="147.52248062015505"/>
      <point x="1062.4178294573644" y="397.12790697674416" type="curve" smooth="yes"/>
      <point x="1062.4178294573644" y="599.5279069767441"/>
      <point x="935.1953488372093" y="753.7364341085271"/>
      <point x="744.3131782945736" y="773.7550387596899" type="curve"/>
      <point x="742.9945736434108" y="739.0496124031008" type="line"/>
      <point x="902.8131782945736" y="776.6"/>
      <point x="1014.5674418604651" y="891.5131782945737"/>
      <point x="1014.5674418604651" y="1062.9403100775194" type="curve" smooth="yes"/>
      <point x="1014.5674418604651" y="1278.777519379845"/>
      <point x="846.2395348837209" y="1431.1046511627908"/>
      <point x="584.868992248062" y="1431.1046511627908" type="curve" smooth="yes"/>
      <point x="164.66356589147287" y="1431.1046511627908" type="line"/>
    </contour>
    <contour>
      <point x="279.8" y="10.531782945736435" type="line"/>
      <point x="279.8" y="767.1232558139535" type="line"/>
      <point x="220.73953488372092" y="729.3263565891473" type="line"/>
      <point x="602.4922480620155" y="729.3263565891473" type="line" smooth="yes"/>
      <point x="798.4364341085271" y="729.3263565891473"/>
      <point x="935.2992248062016" y="616.8813953488373"/>
      <point x="935.2992248062016" y="405.6868217054264" type="curve" smooth="yes"/>
      <point x="935.2992248062016" y="203.22868217054264"/>
      <point x="808.7317829457364" y="59.7108527131783"/>
      <point x="534.9062015503876" y="59.7108527131783" type="curve" smooth="yes"/>
      <point x="208.26821705426357" y="59.7108527131783" type="line"/>
    </contour>
    <contour>
      <point x="279.8" y="747.6085271317829" type="line"/>
      <point x="279.8" y="1418.2953488372093" type="line"/>
      <point x="195.82790697674417" y="1371.3937984496124" type="line"/>
      <point x="568.4147286821706" y="1371.3937984496124" type="line" smooth="yes"/>
      <point x="812.3232558139534" y="1371.3937984496124"/>
      <point x="890.253488372093" y="1215.8658914728683"/>
      <point x="890.253488372093" y="1055.5674418604651" type="curve" smooth="yes"/>
      <point x="890.253488372093" y="848.7821705426356"/>
      <point x="760.0139534883721" y="785.0736434108527"/>
      <point x="584.868992248062" y="785.0736434108527" type="curve" smooth="yes"/>
      <point x="225.90852713178293" y="785.0736434108527" type="line"/>
    </contour>
  </outline>
</glyph>
<glyph name="C" format="2">
  <advance width="1429.7403100775193"/>
  <unicode hex="0043"/>
  <note>
C
</note>
  <anchor x="713.5286821705427" y="5.046511627906977" name="bottom"/>
  <anchor x="728.525" y="1430.0" name="top"/>
  <outline>
    <contour>
      <point x="785.6286821705427" y="-12.72325581395349" type="curve" smooth="yes"/>
      <point x="1043.0480620155038" y="-12.72325581395349"/>
      <point x="1220.4860465116278" y="104.05503875968992"/>
      <point x="1341.9767441860465" y="335.02868217054265" type="curve"/>
      <point x="1226.4860465116278" y="335.02868217054265" type="line"/>
      <point x="1119.7682170542635" y="127.32403100775194"/>
      <point x="960.6279069767442" y="51.12403100775194"/>
      <point x="789.5558139534884" y="51.12403100775194" type="curve" smooth="yes"/>
      <point x="457.35736434108526" y="51.12403100775194"/>
      <point x="233.34496124031008" y="326.29147286821706"/>
      <point x="233.34496124031008" y="716.5953488372093" type="curve" smooth="yes"/>
      <point x="233.34496124031008" y="1113.831007751938"/>
      <point x="460.6937984496124" y="1381.1031007751938"/>
      <point x="783.9604651162791" y="1381.1031007751938" type="curve" smooth="yes"/>
      <point x="955.3961240310077" y="1381.1031007751938"/>
      <point x="1130.8542635658914" y="1303.7395348837208"/>
      <point x="1227.3131782945736" y="1098.762015503876" type="curve"/>
      <point x="1336.931007751938" y="1098.762015503876" type="line"/>
      <point x="1236.522480620155" y="1332.2581395348836"/>
      <point x="1029.8387596899224" y="1444.5821705426356"/>
      <point x="785.2240310077519" y="1444.5821705426356" type="curve" smooth="yes"/>
      <point x="384.00077519379846" y="1444.5821705426356"/>
      <point x="107.2953488372093" y="1148.722480620155"/>
      <point x="107.2953488372093" y="714.5635658914729" type="curve" smooth="yes"/>
      <point x="107.2953488372093" y="263.7093023255814"/>
      <point x="390.0736434108527" y="-12.72325581395349"/>
    </contour>
  </outline>
</glyph>
<glyph name="D" format="2">
  <advance width="1377.9581395348837"/>
  <unicode hex="0044"/>
  <note>
D
</note>
  <anchor x="691.1883720930233" y="-2.6860465116279073" name="bottom"/>
  <anchor x="230.7294573643411" y="715.0" name="center"/>
  <anchor x="691.1883720930233" y="1430.0" name="top"/>
  <outline>
    <contour>
      <point x="164.66356589147287" y="0.0" type="line"/>
      <point x="516.1565891472868" y="0.0" type="line" smooth="yes"/>
      <point x="734.4992248062016" y="0.0"/>
      <point x="873.2255813953489" y="25.32248062015504"/>
      <point x="1000.9945736434108" y="102.99147286821706" type="curve" smooth="yes"/>
      <point x="1166.362015503876" y="201.41860465116278"/>
      <point x="1266.1627906976744" y="392.87751937984495"/>
      <point x="1266.1627906976744" y="715.4364341085271" type="curve" smooth="yes"/>
      <point x="1266.1627906976744" y="983.5813953488372"/>
      <point x="1196.375968992248" y="1172.7589147286822"/>
      <point x="1058.7124031007752" y="1283.6271317829458" type="curve" smooth="yes"/>
      <point x="919.6480620155039" y="1395.8232558139534"/>
      <point x="746.1720930232558" y="1431.1046511627908"/>
      <point x="453.8565891472868" y="1431.1046511627908" type="curve" smooth="yes"/>
      <point x="164.66356589147287" y="1431.1046511627908" type="line"/>
    </contour>
    <contour>
      <point x="289.4317829457364" y="12.72248062015504" type="line"/>
      <point x="289.4317829457364" y="1418.3821705426355" type="line"/>
      <point x="212.7093023255814" y="1371.3937984496124" type="line"/>
      <point x="530.4054263565891" y="1371.3937984496124" type="line" smooth="yes"/>
      <point x="963.6906976744186" y="1371.3937984496124"/>
      <point x="1147.7720930232558" y="1165.367441860465"/>
      <point x="1147.7720930232558" y="720.1046511627907" type="curve" smooth="yes"/>
      <point x="1147.7720930232558" y="267.5100775193798"/>
      <point x="957.4542635658914" y="59.7108527131783"/>
      <point x="522.4782945736434" y="59.7108527131783" type="curve" smooth="yes"/>
      <point x="212.7093023255814" y="59.7108527131783" type="line"/>
    </contour>
  </outline>
</glyph>
<glyph name="E" format="2">
  <advance width="1065.2899224806201"/>
  <unicode hex="0045"/>
  <note>
E
</note>
  <anchor x="545.560465116279" y="5.046511627906977" name="bottom"/>
  <anchor x="835.091472868217" y="0.0" name="ogonek"/>
  <anchor x="559.0333333333333" y="1430.0" name="top"/>
  <anchor x="-7.213178294573644" y="1430.0" name="topleft"/>
  <outline>
    <contour>
      <point x="164.66356589147287" y="0.0" type="line"/>
      <point x="966.6217054263566" y="0.0" type="line"/>
      <point x="966.6217054263566" y="59.7108527131783" type="line"/>
      <point x="219.67054263565893" y="59.7108527131783" type="line"/>
      <point x="279.8" y="11.727131782945737" type="line"/>
      <point x="279.8" y="754.3782945736434" type="line"/>
      <point x="206.90077519379844" y="698.731007751938" type="line"/>
      <point x="966.6217054263566" y="698.731007751938" type="line"/>
      <point x="966.6217054263566" y="758.4418604651163" type="line"/>
      <point x="219.67054263565893" y="758.4418604651163" type="line"/>
      <point x="279.8" y="710.4581395348837" type="line"/>
      <point x="279.8" y="1420.8046511627906" type="line"/>
      <point x="189.60930232558138" y="1371.3937984496124" type="line"/>
      <point x="966.6217054263566" y="1371.3937984496124" type="line"/>
      <point x="966.6217054263566" y="1431.1046511627908" type="line"/>
      <point x="164.66356589147287" y="1431.1046511627908" type="line"/>
    </contour>
  </outline>
</glyph>
<glyph name="F" format="2">
  <advance width="1043.2937984496125"/>
  <unicode hex="0046"/>
  <note>
F
</note>
  <anchor x="542.7418604651162" y="5.046511627906977" name="bottom"/>
  <anchor x="542.7418604651162" y="1430.0" name="top"/>
  <outline>
    <contour>
      <point x="164.66356589147287" y="0.0" type="line"/>
      <point x="279.8" y="0.0" type="line"/>
      <point x="279.8" y="750.5596899224806" type="line"/>
      <point x="200.0" y="695.7852713178295" type="line"/>
      <point x="953.9255813953488" y="695.7852713178295" type="line"/>
      <point x="953.9255813953488" y="755.1279069767442" type="line"/>
      <point x="201.38217054263566" y="755.1279069767442" type="line"/>
      <point x="279.8" y="706.175968992248" type="line"/>
      <point x="279.8" y="1418.5953488372093" type="line"/>
      <point x="189.60930232558138" y="1371.3937984496124" type="line"/>
      <point x="953.9255813953488" y="1371.3937984496124" type="line"/>
      <point x="953.9255813953488" y="1431.1046511627908" type="line"/>
      <point x="164.66356589147287" y="1431.1046511627908" type="line"/>
    </contour>
  </outline>
</glyph>
<glyph name="G" format="2">
  <advance width="1517.3852713178294"/>
  <unicode hex="0047"/>
  <note>
G
</note>
  <anchor x="747.0697674418604" y="5.046511627906977" name="bottom"/>
  <anchor x="747.0697674418604" y="1430.0" name="top"/>
  <outline>
    <contour>
      <point x="774.6108527131782" y="-12.72325581395349" type="curve" smooth="yes"/>
      <point x="1158.9116279069767" y="-12.72325581395349"/>
      <point x="1398.3534883720931" y="254.8953488372093"/>
      <point x="1428.3217054263566" y="634.1046511627907" type="curve"/>
      <point x="1313.731007751938" y="634.1046511627907" type="line"/>
      <point x="1281.0720930232558" y="291.0550387596899"/>
      <point x="1073.113953488372" y="58.21007751937985"/>
      <point x="774.2426356589148" y="49.282945736434115" type="curve"/>
      <point x="451.5077519379845" y="59.21007751937985"/>
      <point x="235.18604651162792" y="329.8186046511628"/>
      <point x="235.18604651162792" y="716.2271317829458" type="curve" smooth="yes"/>
      <point x="235.18604651162792" y="1107.2038759689922"/>
      <point x="456.9395348837209" y="1376.2806201550388"/>
      <point x="774.2426356589148" y="1382.5759689922481" type="curve"/>
      <point x="970.8782945736434" y="1378.6124031007753"/>
      <point x="1129.713953488372" y="1274.9488372093024"/>
      <point x="1222.9589147286822" y="1100.2713178294573" type="curve"/>
      <point x="1353.7403100775193" y="1100.2713178294573" type="line"/>
      <point x="1249.6813953488372" y="1309.808527131783"/>
      <point x="1038.4751937984497" y="1444.5821705426356"/>
      <point x="774.2426356589148" y="1444.5821705426356" type="curve" smooth="yes"/>
      <point x="366.646511627907" y="1444.5821705426356"/>
      <point x="107.2953488372093" y="1132.622480620155"/>
      <point x="107.2953488372093" y="714.7" type="curve" smooth="yes"/>
      <point x="107.2953488372093" y="294.4953488372093"/>
      <point x="361.4372093023256" y="-12.72325581395349"/>
    </contour>
    <contour>
      <point x="908.3364341085271" y="574.0937984496124" type="line"/>
      <point x="1371.5651162790698" y="574.0937984496124" type="line"/>
      <point x="1371.5651162790698" y="633.8046511627907" type="line"/>
      <point x="908.3364341085271" y="633.8046511627907" type="line"/>
    </contour>
  </outline>
</glyph>
<glyph name="H" format="2">
  <advance width="1516.9387596899226"/>
  <unicode hex="0048"/>
  <note>
H
</note>
  <anchor x="758.6193798449613" y="5.046511627906977" name="bottom"/>
  <anchor x="758.6193798449613" y="715.0" name="center"/>
  <anchor x="758.6193798449613" y="1430.0" name="top"/>
  <anchor x="48.786821705426355" y="1430.0" name="topleft"/>
  <outline>
    <contour>
      <point x="164.66356589147287" y="0.0" type="line"/>
      <point x="282.8542635658915" y="0.0" type="line"/>
      <point x="282.8542635658915" y="748.3333333333334" type="line"/>
      <point x="216.9139534883721" y="702.731007751938" type="line"/>
      <point x="1297.4341085271317" y="702.731007751938" type="line"/>
      <point x="1234.0162790697675" y="748.3333333333334" type="line"/>
      <point x="1234.0162790697675" y="0.0" type="line"/>
      <point x="1352.2751937984497" y="0.0" type="line"/>
      <point x="1352.2751937984497" y="1431.1046511627908" type="line"/>
      <point x="1234.0162790697675" y="1431.1046511627908" type="line"/>
      <point x="1234.0162790697675" y="717.2077519379845" type="line"/>
      <point x="1297.4341085271317" y="762.8100775193799" type="line"/>
      <point x="216.9139534883721" y="762.8100775193799" type="line"/>
      <point x="282.8542635658915" y="717.2077519379845" type="line"/>
      <point x="282.8542635658915" y="1431.1046511627908" type="line"/>
      <point x="164.66356589147287" y="1431.1046511627908" type="line"/>
    </contour>
  </outline>
</glyph>
<glyph name="I" format="2">
  <advance width="444.0953488372093"/>
  <unicode hex="0049"/>
  <note>
I
</note>
  <anchor x="222.19767441860466" y="5.046511627906977" name="bottom"/>
  <anchor x="232.3077519379845" y="0.0" name="ogonek"/>
  <anchor x="222.19767441860466" y="1430.0" name="top"/>
  <anchor x="19.71860465116279" y="1430.0" name="topleft"/>
  <outline>
    <contour>
      <point x="164.66356589147287" y="0.0" type="line"/>
      <point x="279.8" y="0.0" type="line"/>
      <point x="279.8" y="1431.1046511627908" type="line"/>
      <point x="164.66356589147287" y="1431.1046511627908" type="line"/>
    </contour>
  </outline>
</glyph>
<glyph name="J" format="2">
  <advance width="713.9697674418604"/>
  <unicode hex="004A"/>
  <note>
J
</note>
  <anchor x="375.99457364341083" y="2.246511627906976" name="bottom"/>
  <anchor x="375.99457364341083" y="1434.2" name="top"/>
  <outline>
    <contour>
      <point x="80.73178294573643" y="-51.08062015503876" type="line"/>
      <point x="137.71395348837208" y="-119.44496124031008"/>
      <point x="226.3294573643411" y="-152.3046511627907"/>
      <point x="297.98062015503876" y="-152.3046511627907" type="curve" smooth="yes"/>
      <point x="470.97364341085273" y="-152.3046511627907"/>
      <point x="551.0426356589147" y="-7.889147286821711"/>
      <point x="551.0426356589147" y="267.7271317829457" type="curve" smooth="yes"/>
      <point x="551.0426356589147" y="1431.8046511627906" type="line"/>
      <point x="435.9744186046512" y="1431.8046511627906" type="line"/>
      <point x="435.9744186046512" y="207.21627906976744" type="line" smooth="yes"/>
      <point x="435.9744186046512" y="-56.798449612403104"/>
      <point x="346.184496124031" y="-83.25271317829457"/>
      <point x="292.44806201550387" y="-83.25271317829457" type="curve" smooth="yes"/>
      <point x="210.64263565891474" y="-83.25271317829457"/>
      <point x="134.2325581395349" y="-25.693023255813948"/>
      <point x="80.73178294573643" y="42.23953488372093" type="curve"/>
    </contour>
  </outline>
</glyph>
<glyph name="K" format="2">
  <advance width="1314.8232558139534"/>
  <unicode hex="004B"/>
  <note>
K
</note>
  <anchor x="642.924031007752" y="5.046511627906977" name="bottom"/>
  <anchor x="642.924031007752" y="1430.0" name="top"/>
  <outline>
    <contour>
      <point x="164.66356589147287" y="0.0" type="line"/>
      <point x="279.8" y="0.0" type="line"/>
      <point x="279.8" y="1431.1046511627908" type="line"/>
      <point x="164.66356589147287" y="1431.1046511627908" type="line"/>
    </contour>
    <contour>
      <point x="253.4093023255814" y="392.1992248062015" type="line"/>
      <point x="1161.6317829457364" y="1431.1046511627908" type="line"/>
      <point x="1076.246511627907" y="1431.1046511627908" type="line"/>
      <point x="227.86511627906975" y="454.76744186046517" type="line"/>
    </contour>
    <contour>
      <point x="1097.5596899224806" y="0.0" type="line"/>
      <point x="1236.4279069767442" y="0.0" type="line"/>
      <point x="577.3147286821705" y="796.7240310077519" type="line"/>
      <point x="501.24341085271317" y="725.0356589147286" type="line"/>
    </contour>
  </outline>
</glyph>
<glyph name="L" format="2">
  <advance width="960.7093023255813"/>
  <unicode hex="004C"/>
  <note>
L
</note>
  <anchor x="480.5387596899225" y="5.046511627906977" name="bottom"/>
  <anchor x="217.2248062015504" y="715.0" name="center"/>
  <anchor x="621.2046511627907" y="724.8914728682171" name="dot"/>
  <anchor x="872.8271317829458" y="10.0" name="ogonek"/>
  <anchor x="318.484496124031" y="1430.0" name="top"/>
  <anchor x="-2.4046511627906995" y="1430.0" name="topleft"/>
  <anchor x="762.2441860465117" y="1430.0" name="topright"/>
  <outline>
    <contour>
      <point x="164.66356589147287" y="0.0" type="line"/>
      <point x="882.377519379845" y="0.0" type="line"/>
      <point x="882.377519379845" y="56.02868217054264" type="line"/>
      <point x="201.77751937984496" y="56.02868217054264" type="line"/>
      <point x="280.9317829457364" y="15.404651162790698" type="line"/>
      <point x="280.9317829457364" y="1430.0" type="line"/>
      <point x="164.66356589147287" y="1430.0" type="line"/>
    </contour>
  </outline>
</glyph>
<glyph name="M" format="2">
  <advance width="1620.6852713178296"/>
  <unicode hex="004D"/>
  <note>
M
</note>
  <anchor x="810.3426356589148" y="5.046511627906977" name="bottom"/>
  <anchor x="810.3426356589148" y="1430.0" name="top"/>
  <outline>
    <contour>
      <point x="164.66356589147287" y="0.0" type="line"/>
      <point x="242.0077519379845" y="0.0" type="line"/>
      <point x="242.0077519379845" y="1370.3186046511628" type="line"/>
      <point x="193.84186046511627" y="1358.0542635658915" type="line"/>
      <point x="806.5511627906977" y="63.97131782945736" type="line"/>
      <point x="1385.7736434108526" y="1366.7829457364342" type="line"/>
      <point x="1342.7263565891474" y="1351.9038759689922" type="line"/>
      <point x="1342.7263565891474" y="0.0" type="line"/>
      <point x="1456.0217054263567" y="0.0" type="line"/>
      <point x="1456.0217054263567" y="1431.1046511627908" type="line"/>
      <point x="1329.9356589147287" y="1431.1046511627908" type="line"/>
      <point x="783.3860465116279" y="207.1387596899225" type="line"/>
      <point x="861.362015503876" y="227.47131782945738" type="line"/>
      <point x="292.8209302325581" y="1431.1046511627908" type="line"/>
      <point x="164.66356589147287" y="1431.1046511627908" type="line"/>
    </contour>
  </outline>
</glyph>
<glyph name="N" format="2">
  <advance width="1487.1558139534884"/>
  <unicode hex="004E"/>
  <note>
N
</note>
  <anchor x="743.7279069767442" y="5.046511627906977" name="bottom"/>
  <anchor x="743.7279069767442" y="1430.0" name="top"/>
  <outline>
    <contour>
      <point x="166.5046511627907" y="0.0" type="line"/>
      <point x="243.48062015503876" y="0.0" type="line"/>
      <point x="243.48062015503876" y="1336.7527131782945" type="line"/>
      <point x="191.5643410852713" y="1351.363565891473" type="line"/>
      <point x="1206.7666666666667" y="0.0" type="line"/>
      <point x="1322.4922480620155" y="0.0" type="line"/>
      <point x="1322.4922480620155" y="1431.1046511627908" type="line"/>
      <point x="1245.148062015504" y="1431.1046511627908" type="line"/>
      <point x="1245.148062015504" y="64.96356589147287" type="line"/>
      <point x="1289.15503875969" y="88.28604651162792" type="line"/>
      <point x="288.87984496124034" y="1431.1046511627908" type="line"/>
      <point x="164.66356589147287" y="1431.1046511627908" type="line"/>
    </contour>
  </outline>
</glyph>
<glyph name="O" format="2">
  <advance width="1547.3806201550387"/>
  <unicode hex="004F"/>
  <note>
O
</note>
  <anchor x="773.8744186046512" y="-2.6860465116279073" name="bottom"/>
  <anchor x="773.8744186046512" y="715.0" name="center"/>
  <anchor x="866.2806201550387" y="0.0" name="ogonek"/>
  <anchor x="773.8744186046512" y="1430.0" name="top"/>
  <anchor x="45.24651162790697" y="1430.0" name="topleft"/>
  <anchor x="1383.5736434108528" y="1430.0" name="topright"/>
  <outline>
    <contour>
      <point x="773.8744186046512" y="-12.72325581395349" type="curve" smooth="yes"/>
      <point x="1185.2434108527132" y="-12.72325581395349"/>
      <point x="1440.0852713178294" y="294.53178294573644"/>
      <point x="1440.0852713178294" y="713.5953488372093" type="curve" smooth="yes"/>
      <point x="1440.0852713178294" y="1132.9589147286822"/>
      <point x="1183.5751937984496" y="1444.5821705426356"/>
      <point x="773.8744186046512" y="1444.5821705426356" type="curve" smooth="yes"/>
      <point x="365.54186046511626" y="1444.5821705426356"/>
      <point x="107.2953488372093" y="1133.358914728682"/>
      <point x="107.2953488372093" y="713.5953488372093" type="curve" smooth="yes"/>
      <point x="107.2953488372093" y="295.2317829457364"/>
      <point x="362.1736434108527" y="-12.72325581395349"/>
    </contour>
    <contour>
      <point x="773.8744186046512" y="49.651162790697676" type="curve"/>
      <point x="451.5077519379845" y="59.57829457364341"/>
      <point x="235.18604651162792" y="330.1868217054264"/>
      <point x="235.18604651162792" y="715.8589147286822" type="curve" smooth="yes"/>
      <point x="235.18604651162792" y="1106.4674418604652"/>
      <point x="456.9395348837209" y="1375.9124031007752"/>
      <point x="773.8744186046512" y="1382.5759689922481" type="curve"/>
      <point x="1090.8093023255815" y="1375.9124031007752"/>
      <point x="1312.5627906976745" y="1106.4674418604652"/>
      <point x="1312.5627906976745" y="715.8589147286822" type="curve" smooth="yes"/>
      <point x="1312.5627906976745" y="329.8186046511628"/>
      <point x="1096.6093023255814" y="59.57829457364341"/>
    </contour>
  </outline>
</glyph>
<glyph name="P" format="2">
  <advance width="1038.0635658914728"/>
  <unicode hex="0050"/>
  <note>
P
</note>
  <anchor x="514.0790697674419" y="-24.410852713178294" name="bottom"/>
  <anchor x="514.0790697674419" y="1430.0" name="top"/>
  <outline>
    <contour>
      <point x="164.66356589147287" y="0.0" type="line"/>
      <point x="277.95891472868215" y="0.0" type="line"/>
      <point x="277.95891472868215" y="649.8720930232558" type="line"/>
      <point x="218.7891472868217" y="612.7573643410852" type="line"/>
      <point x="472.7403100775194" y="612.7573643410852" type="line" smooth="yes"/>
      <point x="610.4581395348837" y="612.7573643410852"/>
      <point x="713.0806201550388" y="639.4891472868217"/>
      <point x="791.3992248062016" y="690.5255813953488" type="curve" smooth="yes"/>
      <point x="894.0767441860465" y="757.9891472868217"/>
      <point x="941.8" y="877.6263565891472"/>
      <point x="941.8" y="1022.1945736434109" type="curve" smooth="yes"/>
      <point x="941.8" y="1157.6945736434109"/>
      <point x="901.4542635658914" y="1261.74496124031"/>
      <point x="822.8131782945736" y="1328.3813953488373" type="curve" smooth="yes"/>
      <point x="742.6170542635659" y="1395.4317829457364"/>
      <point x="626.2124031007752" y="1431.1046511627908"/>
      <point x="464.57131782945737" y="1431.1046511627908" type="curve" smooth="yes"/>
      <point x="164.66356589147287" y="1431.1046511627908" type="line"/>
    </contour>
    <contour>
      <point x="277.95891472868215" y="629.1302325581395" type="line"/>
      <point x="277.95891472868215" y="1416.3682170542636" type="line"/>
      <point x="183.67286821705426" y="1373.9713178294573" type="line"/>
      <point x="432.20387596899224" y="1373.9713178294573" type="line" smooth="yes"/>
      <point x="716.1147286821705" y="1373.9713178294573"/>
      <point x="824.3093023255814" y="1262.762015503876"/>
      <point x="824.3093023255814" y="1018.2806201550387" type="curve" smooth="yes"/>
      <point x="824.3093023255814" y="788.9100775193798"/>
      <point x="718.3968992248062" y="671.7317829457364"/>
      <point x="432.20387596899224" y="671.7317829457364" type="curve" smooth="yes"/>
      <point x="232.1813953488372" y="671.7317829457364" type="line"/>
    </contour>
  </outline>
</glyph>
<glyph name="Q" format="2">
  <advance width="1547.3806201550387"/>
  <unicode hex="0051"/>
  <note>
Q
</note>
  <anchor x="757.5790697674419" y="18.43798449612403" name="bottom"/>
  <anchor x="757.5790697674419" y="1414.7674418604652" name="top"/>
  <anchor x="773.8744186046512" y="729.2722315891472" name="center"/>
  <anchor x="866.2806201550387" y="10.05968992248062" name="ogonek"/>
  <anchor x="45.24651162790697" y="1448.4847732558137" name="topleft"/>
  <anchor x="1383.5736434108528" y="1448.4847732558137" name="topright"/>
  <outline>
    <contour>
      <point x="1005.6023255813953" y="-379.9139534883721" type="curve" smooth="yes"/>
      <point x="1083.508527131783" y="-379.9139534883721"/>
      <point x="1108.1906976744185" y="-371.96821705426356"/>
      <point x="1107.3813953488373" y="-316.05736434108525" type="curve"/>
      <point x="1086.817054263566" y="-316.05736434108525"/>
      <point x="1065.620930232558" y="-316.05736434108525"/>
      <point x="1045.0565891472868" y="-316.05736434108525" type="curve" smooth="yes"/>
      <point x="890.3488372093024" y="-316.05736434108525"/>
      <point x="798.4131782945736" y="-271.7806201550388"/>
      <point x="798.4131782945736" y="-151.22248062015504" type="curve" smooth="yes"/>
      <point x="798.4131782945736" y="30.28759689922481" type="line"/>
      <point x="696.2767441860465" y="30.28759689922481" type="line"/>
      <point x="696.2767441860465" y="-161.37209302325581" type="line" smooth="yes"/>
      <point x="696.2767441860465" y="-252.58139534883722"/>
      <point x="749.8589147286822" y="-310.83643410852716"/>
      <point x="804.8147286821705" y="-339.65038759689924" type="curve" smooth="yes"/>
      <point x="857.5697674418604" y="-367.88217054263566"/>
      <point x="910.7426356589148" y="-379.9139534883721"/>
    </contour>
    <component base="O" yScale="1.0058916666666666" yOffset="10.05968992248062"/>
  </outline>
</glyph>
<glyph name="R" format="2">
  <advance width="1098.4317829457364"/>
  <unicode hex="0052"/>
  <note>
R
</note>
  <anchor x="546.4201550387597" y="5.046511627906977" name="bottom"/>
  <anchor x="546.4201550387597" y="1430.0" name="top"/>
  <outline>
    <contour>
      <point x="164.66356589147287" y="0.0" type="line"/>
      <point x="277.95891472868215" y="0.0" type="line"/>
      <point x="277.95891472868215" y="693.2961240310077" type="line"/>
      <point x="212.73410852713178" y="663.0674418604651" type="line"/>
      <point x="562.1348837209302" y="663.0674418604651" type="line"/>
      <point x="594.4248062015504" y="663.0674418604651" type="line"/>
      <point x="773.5434108527132" y="698.6666666666666"/>
      <point x="941.8" y="785.3077519379844"/>
      <point x="941.8" y="1059.1403100775194" type="curve" smooth="yes"/>
      <point x="941.8" y="1322.708527131783"/>
      <point x="723.1945736434109" y="1431.1046511627908"/>
      <point x="464.57131782945737" y="1431.1046511627908" type="curve" smooth="yes"/>
      <point x="164.66356589147287" y="1431.1046511627908" type="line"/>
    </contour>
    <contour>
      <point x="226.35813953488372" y="720.2007751937984" type="line"/>
      <point x="277.95891472868215" y="685.2945736434109" type="line"/>
      <point x="277.95891472868215" y="1415.2503875968991" type="line"/>
      <point x="188.06356589147288" y="1373.9713178294573" type="line"/>
      <point x="432.20387596899224" y="1373.9713178294573" type="line" smooth="yes"/>
      <point x="674.1147286821705" y="1373.9713178294573"/>
      <point x="824.3093023255814" y="1296.5759689922481"/>
      <point x="824.3093023255814" y="1060.3813953488373" type="curve" smooth="yes"/>
      <point x="824.3093023255814" y="819.4100775193798"/>
      <point x="683.3968992248062" y="720.2007751937984"/>
      <point x="460.20387596899224" y="720.2007751937984" type="curve" smooth="yes"/>
    </contour>
    <contour>
      <point x="456.40077519379844" y="663.0674418604651" type="line"/>
      <point x="515.1007751937984" y="663.0674418604651"/>
      <point x="606.5728682170543" y="656.6860465116279"/>
      <point x="667.8007751937985" y="617.1674418604651" type="curve" smooth="yes"/>
      <point x="738.5728682170543" y="571.1860465116279"/>
      <point x="766.4325581395349" y="544.6403100775194"/>
      <point x="830.1007751937984" y="237.21317829457365" type="curve" smooth="yes"/>
      <point x="834.1643410852713" y="216.9271317829457"/>
      <point x="869.0643410852713" y="44.52713178294574"/>
      <point x="879.0961240310078" y="0.0" type="curve"/>
      <point x="996.6682170542636" y="0.0" type="line"/>
      <point x="975.6364341085272" y="86.46356589147287"/>
      <point x="949.3364341085271" y="203.09534883720931"/>
      <point x="928.4728682170543" y="308.71317829457365" type="curve" smooth="yes"/>
      <point x="895.0046511627907" y="472.7906976744186"/>
      <point x="861.6496124031007" y="568.3906976744186"/>
      <point x="807.6728682170543" y="624.8674418604651" type="curve" smooth="yes"/>
      <point x="756.8720930232558" y="677.4"/>
      <point x="709.7720930232558" y="682.8813953488373"/>
      <point x="677.5899224806202" y="690.8767441860465" type="curve"/>
    </contour>
  </outline>
</glyph>
<glyph name="S" format="2">
  <advance width="1131.839534883721"/>
  <unicode hex="0053"/>
  <note>
S
</note>
  <anchor x="556.9697674418604" y="5.046511627906977" name="bottom"/>
  <anchor x="556.9697674418604" y="1430.0" name="top"/>
  <outline>
    <contour>
      <point x="565.337984496124" y="-28.27751937984496" type="curve" smooth="yes"/>
      <point x="891.3798449612403" y="-28.27751937984496"/>
      <point x="1029.2759689922482" y="146.93178294573642"/>
      <point x="1029.2759689922482" y="395.1007751937984" type="curve" smooth="yes"/>
      <point x="1029.2759689922482" y="629.6007751937984"/>
      <point x="844.4813953488372" y="739.3418604651163"/>
      <point x="599.615503875969" y="803.8465116279069" type="curve" smooth="yes"/>
      <point x="349.79922480620155" y="871.4728682170543"/>
      <point x="263.8263565891473" y="974.9961240310078"/>
      <point x="263.8263565891473" y="1119.3356589147286" type="curve" smooth="yes"/>
      <point x="263.8263565891473" y="1289.8581395348838"/>
      <point x="382.90697674418607" y="1402.284496124031"/>
      <point x="547.7333333333333" y="1402.284496124031" type="curve" smooth="yes"/>
      <point x="736.524031007752" y="1402.284496124031"/>
      <point x="886.7992248062016" y="1265.320930232558"/>
      <point x="896.8263565891473" y="1114.7038759689922" type="curve"/>
      <point x="999.8348837209303" y="1114.7038759689922" type="line"/>
      <point x="971.9666666666667" y="1327.0813953488373"/>
      <point x="790.4031007751938" y="1464.0682170542636"/>
      <point x="556.8062015503876" y="1464.0682170542636" type="curve" smooth="yes"/>
      <point x="292.8542635658915" y="1464.0682170542636"/>
      <point x="149.78604651162792" y="1302.6093023255814"/>
      <point x="149.78604651162792" y="1094.8581395348838" type="curve" smooth="yes"/>
      <point x="149.78604651162792" y="887.7581395348838"/>
      <point x="295.58217054263565" y="788.7798449612403"/>
      <point x="533.0100775193798" y="717.6527131782946" type="curve" smooth="yes"/>
      <point x="768.1147286821705" y="644.9255813953488"/>
      <point x="914.0813953488372" y="579.2759689922481"/>
      <point x="914.0813953488372" y="360.37286821705425" type="curve" smooth="yes"/>
      <point x="914.0813953488372" y="183.84186046511627"/>
      <point x="825.7" y="34.979069767441864"/>
      <point x="571.0426356589147" y="34.979069767441864" type="curve" smooth="yes"/>
      <point x="360.7573643410853" y="34.979069767441864"/>
      <point x="226.9170542635659" y="142.1108527131783"/>
      <point x="199.231007751938" y="397.0906976744186" type="curve"/>
      <point x="95.06356589147288" y="397.0906976744186" type="line"/>
      <point x="117.94961240310077" y="111.9186046511628"/>
      <point x="284.5953488372093" y="-28.27751937984496"/>
    </contour>
  </outline>
</glyph>
<glyph name="T" format="2">
  <advance width="1228.1387596899226"/>
  <unicode hex="0054"/>
  <note>
T
</note>
  <anchor x="614.2193798449613" y="5.046511627906977" name="bottom"/>
  <anchor x="614.2193798449613" y="715.0" name="center"/>
  <anchor x="614.2193798449613" y="1430.0" name="top"/>
  <outline>
    <contour>
      <point x="555.6852713178295" y="0.0" type="line"/>
      <point x="672.453488372093" y="0.0" type="line"/>
      <point x="672.453488372093" y="1415.8224806201551" type="line"/>
      <point x="582.691472868217" y="1355.5604651162791" type="line"/>
      <point x="1149.4387596899226" y="1355.5604651162791" type="line"/>
      <point x="1149.4387596899226" y="1431.1046511627908" type="line"/>
      <point x="78.7" y="1431.1046511627908" type="line"/>
      <point x="78.7" y="1355.5604651162791" type="line"/>
      <point x="645.4472868217055" y="1355.5604651162791" type="line"/>
      <point x="555.6852713178295" y="1415.8224806201551" type="line"/>
    </contour>
  </outline>
</glyph>
<glyph name="U" format="2">
  <advance width="1439.4891472868217"/>
  <unicode hex="0055"/>
  <note>
U
</note>
  <anchor x="720.4286821705426" y="5.046511627906977" name="bottom"/>
  <anchor x="856.2294573643411" y="0.0" name="ogonek"/>
  <anchor x="720.4286821705426" y="1430.0" name="top"/>
  <anchor x="1362.5875968992248" y="1430.0" name="topright"/>
  <outline>
    <contour>
      <point x="720.1286821705427" y="-26.945736434108525" type="curve" smooth="yes"/>
      <point x="1035.0162790697675" y="-26.945736434108525"/>
      <point x="1298.7255813953489" y="236.16821705426355"/>
      <point x="1298.7255813953489" y="567.0217054263566" type="curve" smooth="yes"/>
      <point x="1298.7255813953489" y="1431.1046511627908" type="line"/>
      <point x="1221.8767441860466" y="1431.1046511627908" type="line"/>
      <point x="1220.4038759689922" y="548.0488372093023" type="line" smooth="yes"/>
      <point x="1220.0356589147286" y="252.7736434108527"/>
      <point x="968.9015503875969" y="33.13333333333334"/>
      <point x="718.7286821705426" y="33.13333333333334" type="curve" smooth="yes"/>
      <point x="475.0472868217054" y="33.13333333333334"/>
      <point x="251.40852713178293" y="243.56821705426358"/>
      <point x="251.40852713178293" y="553.5720930232558" type="curve" smooth="yes"/>
      <point x="251.40852713178293" y="1431.1046511627908" type="line"/>
      <point x="142.16356589147287" y="1431.1046511627908" type="line"/>
      <point x="142.16356589147287" y="550.0720930232558" type="line" smooth="yes"/>
      <point x="142.16356589147287" y="196.67286821705426"/>
      <point x="429.33643410852716" y="-26.945736434108525"/>
    </contour>
  </outline>
</glyph>
<glyph name="V" format="2">
  <advance width="1393.3612403100776"/>
  <unicode hex="0056"/>
  <note>
V
</note>
  <anchor x="697.2147286821705" y="5.046511627906977" name="bottom"/>
  <anchor x="697.2147286821705" y="1430.0" name="top"/>
  <outline>
    <contour>
      <point x="701.1147286821705" y="-38.02713178294574" type="line"/>
      <point x="1310.7976744186046" y="1430.4046511627907" type="line"/>
      <point x="1249.886046511628" y="1430.4046511627907" type="line"/>
      <point x="694.0193798449612" y="78.49612403100775" type="line"/>
      <point x="750.6751937984496" y="128.77906976744185" type="line"/>
      <point x="209.46356589147285" y="1431.1046511627908" type="line"/>
      <point x="81.86356589147287" y="1430.4046511627907" type="line"/>
    </contour>
  </outline>
</glyph>
<glyph name="X" format="2">
  <advance width="1230.2914728682172"/>
  <unicode hex="0058"/>
  <note>
X
</note>
  <anchor x="615.4434108527132" y="5.046511627906977" name="bottom"/>
  <anchor x="615.4434108527132" y="1430.0" name="top"/>
  <outline>
    <contour>
      <point x="1000.7496124031009" y="0.0" type="line"/>
      <point x="1146.327906976744" y="0.0" type="line"/>
      <point x="239.95038759689922" y="1429.4" type="line"/>
      <point x="94.07209302325582" y="1429.4" type="line"/>
    </contour>
    <contour>
      <point x="91.8093023255814" y="0.0" type="line"/>
      <point x="164.76201550387597" y="0.0" type="line"/>
      <point x="629.5806201550388" y="727.1139534883721" type="line"/>
      <point x="586.8837209302326" y="774.9341085271318" type="line"/>
    </contour>
    <contour>
      <point x="628.7658914728682" y="703.6984496124031" type="line"/>
      <point x="1092.3217054263566" y="1431.1046511627908" type="line"/>
      <point x="1019.7372093023256" y="1431.1046511627908" type="line"/>
      <point x="585.7007751937984" y="751.5186046511628" type="line"/>
    </contour>
  </outline>
</glyph>
<glyph name="Y" format="2">
  <advance width="1062.962015503876"/>
  <unicode hex="0059"/>
  <note>
Y
</note>
  <anchor x="534.6379844961241" y="3.682170542635659" name="bottom"/>
  <anchor x="531.2968992248062" y="1430.0" name="top"/>
  <anchor x="31.03178294573643" y="1430.0" name="topleft"/>
  <outline>
    <contour>
      <point x="481.3767441860465" y="0.0" type="line"/>
      <point x="596.5131782945737" y="0.0" type="line"/>
      <point x="596.5131782945737" y="625.0496124031008" type="line"/>
      <point x="981.7984496124031" y="1431.1046511627908" type="line"/>
      <point x="921.8372093023256" y="1431.1046511627908" type="line"/>
      <point x="524.8279069767442" y="596.0875968992248" type="line"/>
      <point x="590.1852713178295" y="661.924031007752" type="line"/>
      <point x="222.18682170542635" y="1431.1046511627908" type="line"/>
      <point x="80.7953488372093" y="1431.1046511627908" type="line"/>
      <point x="481.3767441860465" y="614.422480620155" type="line"/>
    </contour>
  </outline>
</glyph>
<glyph name="Z" format="2">
  <advance width="1231.3302325581396"/>
  <unicode hex="005A"/>
  <note>
Z
</note>
  <anchor x="615.6651162790698" y="5.046511627906977" name="bottom"/>
  <anchor x="615.6651162790698" y="715.0" name="center"/>
  <anchor x="615.6651162790698" y="1430.0" name="top"/>
  <outline>
    <contour>
      <point x="78.76356589147287" y="0.0" type="line"/>
      <point x="1136.1666666666667" y="0.0" type="line"/>
      <point x="1135.3031007751938" y="72.85736434108527" type="line"/>
      <point x="137.22325581395347" y="72.85736434108527" type="line"/>
      <point x="186.75426356589148" y="15.595348837209302" type="line"/>
      <point x="1132.6666666666667" y="1431.1046511627908" type="line"/>
      <point x="172.67751937984497" y="1431.1046511627908" type="line"/>
      <point x="172.67751937984497" y="1358.2472868217055" type="line"/>
      <point x="1067.8418604651163" y="1358.2472868217055" type="line"/>
      <point x="1024.1713178294574" y="1413.6728682170542" type="line"/>
    </contour>
  </outline>
</glyph>
<glyph name="bracketleft" format="2">
  <advance width="592.6837209302325"/>
  <unicode hex="005B"/>
  <note>
bracketleft
</note>
  <outline>
    <contour>
      <point x="160.03178294573644" y="-397.0635658914729" type="line"/>
      <point x="512.7837209302326" y="-397.0635658914729" type="line"/>
      <point x="512.7837209302326" y="-312.73875968992246" type="line"/>
      <point x="240.00232558139535" y="-312.73875968992246" type="line"/>
      <point x="240.00232558139535" y="1378.4798449612404" type="line"/>
      <point x="512.7837209302326" y="1378.4798449612404" type="line"/>
      <point x="512.7837209302326" y="1462.4364341085272" type="line"/>
      <point x="160.03178294573644" y="1462.4364341085272" type="line"/>
    </contour>
  </outline>
</glyph>
<glyph name="bracketright" format="2">
  <advance width="592.6837209302325"/>
  <unicode hex="005D"/>
  <note>
bracketright
</note>
  <outline>
    <contour>
      <point x="79.9" y="-397.0635658914729" type="line"/>
      <point x="432.65193798449616" y="-397.0635658914729" type="line"/>
      <point x="432.65193798449616" y="1462.4364341085272" type="line"/>
      <point x="79.9" y="1462.4364341085272" type="line"/>
      <point x="79.9" y="1378.4798449612404" type="line"/>
      <point x="353.04961240310075" y="1378.4798449612404" type="line"/>
      <point x="353.04961240310075" y="-312.73875968992246" type="line"/>
      <point x="79.9" y="-312.73875968992246" type="line"/>
    </contour>
  </outline>
</glyph>
<glyph name="asciicircum" format="2">
  <advance width="1020.8457364341085"/>
  <unicode hex="005E"/>
  <note>
asciicircum
</note>
  <outline>
    <contour>
      <point x="124.3953488372093" y="836.5806201550388" type="line"/>
      <point x="210.3031007751938" y="836.5806201550388" type="line"/>
      <point x="535.7217054263566" y="1399.0713178294573" type="line"/>
      <point x="484.8511627906977" y="1398.5124031007751" type="line"/>
      <point x="810.5426356589147" y="836.5806201550388" type="line"/>
      <point x="896.4503875968992" y="836.5806201550388" type="line"/>
      <point x="537.0720930232558" y="1454.586046511628" type="line"/>
      <point x="481.77364341085274" y="1454.586046511628" type="line"/>
    </contour>
  </outline>
</glyph>
<glyph name="underscore" format="2">
  <advance width="1304.039534883721"/>
  <unicode hex="005F"/>
  <note>
underscore
</note>
  <outline>
    <contour>
      <point x="80.43643410852714" y="-345.3922480620155" type="line"/>
      <point x="1223.6031007751938" y="-345.3922480620155" type="line"/>
      <point x="1223.6031007751938" y="-269.3627906976744" type="line"/>
      <point x="80.43643410852714" y="-269.3627906976744" type="line"/>
    </contour>
  </outline>
</glyph>
<glyph name="a" format="2">
  <advance width="1087.1046511627908"/>
  <unicode hex="0061"/>
  <note>
a
</note>
  <anchor x="510.92868217054263" y="0.25968992248061795" name="bottom"/>
  <anchor x="916.8124031007752" y="0.0" name="ogonek"/>
  <anchor x="513.9286821705426" y="945.077519379845" name="top"/>
  <outline>
    <contour>
      <point x="496.7782945736434" y="-27.409302325581397" type="curve" smooth="yes"/>
      <point x="699.9426356589147" y="-27.409302325581397"/>
      <point x="836.4333333333334" y="89.75891472868217"/>
      <point x="888.4968992248062" y="289.3279069767442" type="curve"/>
      <point x="862.7186046511628" y="316.8286821705426" type="line"/>
      <point x="853.9596899224806" y="0.0" type="line"/>
      <point x="964.1728682170543" y="0.0" type="line"/>
      <point x="964.1728682170543" y="939.4503875968992" type="line"/>
      <point x="853.5232558139535" y="939.4503875968992" type="line"/>
      <point x="853.5232558139535" y="603.4263565891473" type="line"/>
      <point x="887.6240310077519" y="628.3906976744186" type="line"/>
      <point x="835.8015503875969" y="834.5503875968992"/>
      <point x="697.5379844961241" y="965.8186046511628"/>
      <point x="495.7418604651163" y="965.8186046511628" type="curve" smooth="yes"/>
      <point x="238.10930232558138" y="965.8186046511628"/>
      <point x="76.56356589147288" y="748.9868217054263"/>
      <point x="76.56356589147288" y="457.24108527131784" type="curve" smooth="yes"/>
      <point x="76.56356589147288" y="167.8953488372093"/>
      <point x="238.1139534883721" y="-27.409302325581397"/>
    </contour>
    <contour>
      <point x="506.4472868217054" y="36.0062015503876" type="curve" smooth="yes"/>
      <point x="303.4666666666667" y="36.0062015503876"/>
      <point x="185.60387596899224" y="187.99612403100775"/>
      <point x="185.60387596899224" y="466.5046511627907" type="curve" smooth="yes"/>
      <point x="185.60387596899224" y="749.8449612403101"/>
      <point x="308.9984496124031" y="902.0348837209302"/>
      <point x="505.4108527131783" y="902.0348837209302" type="curve" smooth="yes"/>
      <point x="706.2550387596899" y="902.0348837209302"/>
      <point x="842.6906976744186" y="726.6806201550388"/>
      <point x="842.6906976744186" y="456.5046511627907" type="curve" smooth="yes"/>
      <point x="842.6906976744186" y="184.56511627906977"/>
      <point x="702.1550387596899" y="36.0062015503876"/>
    </contour>
  </outline>
</glyph>
<glyph name="b" format="2">
  <advance width="1093.0410852713178"/>
  <unicode hex="0062"/>
  <note>
b
</note>
  <anchor x="511.80697674418604" y="8.36046511627907" name="bottom"/>
  <anchor x="511.80697674418604" y="1515.4728682170542" name="top"/>
  <outline>
    <contour>
      <point x="596.9627906976744" y="-25.93643410852713" type="curve" smooth="yes"/>
      <point x="855.3271317829458" y="-25.93643410852713"/>
      <point x="1017.177519379845" y="169.06821705426356"/>
      <point x="1017.177519379845" y="457.977519379845" type="curve" smooth="yes"/>
      <point x="1017.177519379845" y="749.2868217054264"/>
      <point x="855.9317829457365" y="965.8186046511628"/>
      <point x="597.9992248062016" y="965.8186046511628" type="curve" smooth="yes"/>
      <point x="396.5031007751938" y="965.8186046511628"/>
      <point x="257.7077519379845" y="834.3186046511628"/>
      <point x="205.8170542635659" y="628.8271317829457" type="curve"/>
      <point x="240.21782945736433" y="603.4263565891473" type="line"/>
      <point x="240.21782945736433" y="1515.4728682170542" type="line"/>
      <point x="133.46356589147285" y="1515.4728682170542" type="line"/>
      <point x="133.46356589147285" y="0.0" type="line"/>
      <point x="239.1813953488372" y="0.0" type="line"/>
      <point x="239.1813953488372" y="316.52868217054265" type="line"/>
      <point x="204.7124031007752" y="291.19612403100774" type="line"/>
      <point x="257.0759689922481" y="91.83178294573644"/>
      <point x="393.33488372093024" y="-25.93643410852713"/>
    </contour>
    <contour>
      <point x="587.2937984496124" y="37.110852713178296" type="curve" smooth="yes"/>
      <point x="391.5178294573643" y="37.110852713178296"/>
      <point x="250.98217054263566" y="185.96976744186048"/>
      <point x="250.98217054263566" y="457.6093023255814" type="curve" smooth="yes"/>
      <point x="250.98217054263566" y="727.6488372093023"/>
      <point x="387.41782945736435" y="902.7031007751938"/>
      <point x="588.3302325581395" y="902.7031007751938" type="curve" smooth="yes"/>
      <point x="784.4426356589147" y="902.7031007751938"/>
      <point x="913.7372093023256" y="750.5813953488372"/>
      <point x="913.7372093023256" y="467.24108527131784" type="curve" smooth="yes"/>
      <point x="913.7372093023256" y="189.10077519379846"/>
      <point x="790.2744186046511" y="37.110852713178296"/>
    </contour>
  </outline>
</glyph>
<glyph name="c" format="2">
  <advance width="833.9302325581396"/>
  <unicode hex="0063"/>
  <note>
c
</note>
  <anchor x="461.56511627906974" y="-17.313953488372093" name="bottom"/>
  <anchor x="495.5651162790698" y="945.077519379845" name="top"/>
  <outline>
    <contour>
      <point x="510.2875968992248" y="-30.909302325581393" type="curve" smooth="yes"/>
      <point x="604.5519379844961" y="-30.909302325581393"/>
      <point x="696.5798449612403" y="-3.0999999999999996"/>
      <point x="769.162015503876" y="53.32790697674419" type="curve"/>
      <point x="769.162015503876" y="137.29767441860466" type="line"/>
      <point x="700.3341085271318" y="74.15193798449613"/>
      <point x="604.9062015503876" y="32.83798449612404"/>
      <point x="512.5333333333333" y="32.83798449612404" type="curve" smooth="yes"/>
      <point x="323.11162790697676" y="32.83798449612404"/>
      <point x="185.21317829457365" y="203.06434108527134"/>
      <point x="185.21317829457365" y="467.0635658914729" type="curve" smooth="yes"/>
      <point x="185.21317829457365" y="733.4813953488372"/>
      <point x="323.4116279069767" y="901.7031007751938"/>
      <point x="512.4651162790698" y="901.7031007751938" type="curve" smooth="yes"/>
      <point x="605.0426356589147" y="901.7031007751938"/>
      <point x="700.5658914728682" y="860.6891472868217"/>
      <point x="768.862015503876" y="797.8434108527132" type="curve"/>
      <point x="768.862015503876" y="881.2131782945736" type="line"/>
      <point x="696.3480620155038" y="936.9410852713179"/>
      <point x="603.3519379844961" y="965.8186046511628"/>
      <point x="510.3558139534884" y="965.8186046511628" type="curve" smooth="yes"/>
      <point x="285.0860465116279" y="965.8186046511628"/>
      <point x="76.56356589147288" y="796.54496124031"/>
      <point x="76.56356589147288" y="467.13178294573646" type="curve" smooth="yes"/>
      <point x="76.56356589147288" y="136.52325581395348"/>
      <point x="285.1542635658915" y="-30.909302325581393"/>
    </contour>
  </outline>
</glyph>
<glyph name="d" format="2">
  <advance width="1093.3728682170542"/>
  <unicode hex="0064"/>
  <note>
d
</note>
  <anchor x="517.2480620155038" y="8.36046511627907" name="bottom"/>
  <anchor x="900.4480620155039" y="1307.913953488372" name="center"/>
  <anchor x="580.8341085271318" y="1515.4728682170542" name="top"/>
  <anchor x="1142.062015503876" y="1515.4728682170542" name="topright"/>
  <outline>
    <contour>
      <point x="496.7782945736434" y="-33.63643410852713" type="curve" smooth="yes"/>
      <point x="700.1062015503876" y="-33.63643410852713"/>
      <point x="836.9651162790698" y="84.53643410852713"/>
      <point x="889.3286821705426" y="285.90077519379844" type="curve"/>
      <point x="854.191472868217" y="311.6333333333333" type="line"/>
      <point x="854.191472868217" y="-7.0" type="line"/>
      <point x="959.9093023255814" y="-7.0" type="line"/>
      <point x="959.9093023255814" y="1523.1728682170542" type="line"/>
      <point x="853.8232558139534" y="1523.1728682170542" type="line"/>
      <point x="853.8232558139534" y="602.0945736434109" type="line"/>
      <point x="887.924031007752" y="627.1953488372093" type="line"/>
      <point x="836.0333333333333" y="835.6186046511627"/>
      <point x="697.5379844961241" y="968.0821705426357"/>
      <point x="495.7418604651163" y="968.0821705426357" type="curve" smooth="yes"/>
      <point x="238.10930232558138" y="968.0821705426357"/>
      <point x="76.56356589147288" y="750.1186046511627"/>
      <point x="76.56356589147288" y="455.4093023255814" type="curve" smooth="yes"/>
      <point x="76.56356589147288" y="163.23643410852713"/>
      <point x="238.4139534883721" y="-33.63643410852713"/>
    </contour>
    <contour>
      <point x="506.4472868217054" y="30.410852713178294" type="curve" smooth="yes"/>
      <point x="303.4666666666667" y="30.410852713178294"/>
      <point x="180.00387596899225" y="183.3372093023256"/>
      <point x="180.00387596899225" y="464.37286821705425" type="curve" smooth="yes"/>
      <point x="180.00387596899225" y="751.2767441860465"/>
      <point x="308.9984496124031" y="904.0348837209302"/>
      <point x="505.4108527131783" y="904.0348837209302" type="curve" smooth="yes"/>
      <point x="706.55503875969" y="904.0348837209302"/>
      <point x="842.6906976744186" y="727.4170542635659"/>
      <point x="842.6906976744186" y="453.977519379845" type="curve" smooth="yes"/>
      <point x="842.6906976744186" y="179.37441860465117"/>
      <point x="702.1550387596899" y="30.410852713178294"/>
    </contour>
  </outline>
</glyph>
<glyph name="e" format="2">
  <advance width="1005.7170542635658"/>
  <unicode hex="0065"/>
  <note>
e
</note>
  <anchor x="508.07441860465116" y="-14.472868217054263" name="bottom"/>
  <anchor x="646.8434108527132" y="3.0" name="ogonek"/>
  <anchor x="508.07441860465116" y="945.077519379845" name="top"/>
  <outline>
    <contour>
      <point x="509.3790697674419" y="-27.409302325581397" type="curve" smooth="yes"/>
      <point x="713.1527131782946" y="-27.409302325581397"/>
      <point x="860.3348837209303" y="87.72248062015504"/>
      <point x="916.2759689922481" y="274.91317829457364" type="curve"/>
      <point x="814.8364341085271" y="274.91317829457364" type="line"/>
      <point x="770.3914728682171" y="123.89224806201551"/>
      <point x="659.1147286821705" y="35.637984496124034"/>
      <point x="511.0837209302326" y="35.637984496124034" type="curve" smooth="yes"/>
      <point x="308.22093023255815" y="35.637984496124034"/>
      <point x="188.84496124031008" y="202.9201550387597"/>
      <point x="188.84496124031008" y="466.2046511627907" type="curve" smooth="yes"/>
      <point x="188.84496124031008" y="742.0488372093023"/>
      <point x="318.83953488372094" y="902.3348837209303"/>
      <point x="509.3790697674419" y="902.3348837209303" type="curve" smooth="yes"/>
      <point x="681.4821705426357" y="902.3348837209303"/>
      <point x="814.2945736434109" y="772.5263565891473"/>
      <point x="839.1945736434109" y="504.50387596899225" type="curve"/>
      <point x="938.353488372093" y="504.50387596899225" type="line"/>
      <point x="915.539534883721" y="797.7186046511628"/>
      <point x="745.4891472868217" y="965.8186046511628"/>
      <point x="508.27441860465115" y="965.8186046511628" type="curve" smooth="yes"/>
      <point x="239.25038759689923" y="965.8186046511628"/>
      <point x="76.56356589147288" y="746.2232558139535"/>
      <point x="76.56356589147288" y="458.7139534883721" type="curve" smooth="yes"/>
      <point x="76.56356589147288" y="165.43178294573644"/>
      <point x="245.38217054263566" y="-27.409302325581397"/>
    </contour>
    <contour>
      <point x="160.16821705426355" y="504.1356589147287" type="line"/>
      <point x="904.0209302325582" y="504.50387596899225" type="line"/>
      <point x="903.4891472868217" y="557.4643410852714" type="line"/>
      <point x="148.01705426356588" y="557.4643410852714" type="line"/>
    </contour>
  </outline>
</glyph>
<glyph name="f" format="2">
  <advance width="538.8209302325581"/>
  <unicode hex="0066"/>
  <note>
f
</note>
  <anchor x="269.59457364341085" y="8.36046511627907" name="bottom"/>
  <anchor x="269.59457364341085" y="1515.4728682170542" name="top"/>
  <outline>
    <contour>
      <point x="201.64108527131782" y="0.0" type="line"/>
      <point x="307.3589147286822" y="0.0" type="line"/>
      <point x="307.3589147286822" y="1121.2751937984497" type="line" smooth="yes"/>
      <point x="307.3589147286822" y="1375.7736434108526"/>
      <point x="309.9527131782946" y="1470.9348837209302"/>
      <point x="406.49457364341083" y="1470.9348837209302" type="curve" smooth="yes"/>
      <point x="471.4852713178295" y="1463.9348837209302"/>
      <point x="497.55426356589146" y="1416.1806201550387"/>
      <point x="497.55426356589146" y="1363.620930232558" type="curve" smooth="yes"/>
      <point x="497.55426356589146" y="1337.484496124031"/>
      <point x="491.22248062015507" y="1303.5480620155038"/>
      <point x="483.0860465116279" y="1283.229457364341" type="curve"/>
      <point x="560.3790697674418" y="1283.229457364341" type="line"/>
      <point x="573.8519379844961" y="1320.4434108527132"/>
      <point x="578.5837209302326" y="1360.9666666666667"/>
      <point x="578.5837209302326" y="1386.1713178294574" type="curve" smooth="yes"/>
      <point x="578.5837209302326" y="1477.2046511627907"/>
      <point x="511.80930232558137" y="1537.5596899224806"/>
      <point x="394.03953488372093" y="1537.5596899224806" type="curve" smooth="yes"/>
      <point x="221.10232558139535" y="1537.5596899224806"/>
      <point x="201.64108527131782" y="1361.615503875969"/>
      <point x="201.64108527131782" y="1139.386046511628" type="curve" smooth="yes"/>
    </contour>
    <contour>
      <point x="54.6" y="868.2294573643411" type="line"/>
      <point x="465.368992248062" y="868.2294573643411" type="line"/>
      <point x="465.368992248062" y="929.6449612403101" type="line"/>
      <point x="54.6" y="929.6449612403101" type="line"/>
    </contour>
  </outline>
</glyph>
<glyph name="g" format="2">
  <advance width="1094.3503875968993"/>
  <unicode hex="0067"/>
  <note>
g
</note>
  <anchor x="539.6751937984496" y="-517.6395348837209" name="bottom"/>
  <anchor x="517.1248062015504" y="945.077519379845" name="top"/>
  <outline>
    <contour>
      <point x="508.55736434108525" y="-560.9821705426357" type="curve" smooth="yes"/>
      <point x="835.9131782945736" y="-560.9821705426357"/>
      <point x="962.1868217054264" y="-322.8813953488372"/>
      <point x="962.1868217054264" y="67.15968992248062" type="curve" smooth="yes"/>
      <point x="962.1868217054264" y="939.4503875968992" type="line"/>
      <point x="851.8372093023256" y="939.4503875968992" type="line"/>
      <point x="851.8372093023256" y="649.5100775193798" type="line"/>
      <point x="872.0558139534884" y="676.8922480620155" type="line"/>
      <point x="811.6193798449613" y="853.5372093023256"/>
      <point x="680.524031007752" y="965.8186046511628"/>
      <point x="494.91472868217056" y="965.8186046511628" type="curve" smooth="yes"/>
      <point x="238.74573643410852" y="965.8186046511628"/>
      <point x="77.26356589147287" y="748.9868217054263"/>
      <point x="77.26356589147287" y="457.24108527131784" type="curve" smooth="yes"/>
      <point x="77.26356589147287" y="167.59534883720931"/>
      <point x="238.7186046511628" y="-27.77751937984496"/>
      <point x="496.31937984496125" y="-27.77751937984496" type="curve" smooth="yes"/>
      <point x="689.0558139534884" y="-27.77751937984496"/>
      <point x="822.446511627907" y="83.65348837209302"/>
      <point x="878.3875968992248" y="262.18062015503875" type="curve"/>
      <point x="860.0325581395349" y="288.49457364341083" type="line"/>
      <point x="853.2054263565891" y="33.16821705426357" type="line"/>
      <point x="853.2054263565891" y="-287.76201550387594"/>
      <point x="764.7286821705426" y="-497.8666666666667"/>
      <point x="492.1162790697674" y="-497.8666666666667" type="curve" smooth="yes"/>
      <point x="309.5984496124031" y="-497.8666666666667"/>
      <point x="214.96356589147285" y="-416.4263565891473"/>
      <point x="189.01782945736434" y="-313.5403100775194" type="curve"/>
      <point x="85.2139534883721" y="-313.5403100775194" type="line"/>
      <point x="142.85581395348837" y="-517.2503875968993"/>
      <point x="364.81937984496125" y="-560.9821705426357"/>
    </contour>
    <contour>
      <point x="503.77906976744185" y="35.637984496124034" type="curve" smooth="yes"/>
      <point x="301.26666666666665" y="35.637984496124034"/>
      <point x="181.07209302325583" y="188.46434108527131"/>
      <point x="181.07209302325583" y="466.5046511627907" type="curve" smooth="yes"/>
      <point x="181.07209302325583" y="750.8449612403101"/>
      <point x="310.1984496124031" y="902.3348837209303"/>
      <point x="502.7426356589147" y="902.3348837209303" type="curve" smooth="yes"/>
      <point x="702.8186046511628" y="902.3348837209303"/>
      <point x="836.6542635658915" y="725.8806201550387"/>
      <point x="836.6542635658915" y="456.5046511627907" type="curve" smooth="yes"/>
      <point x="836.6542635658915" y="183.46511627906978"/>
      <point x="695.9868217054263" y="35.637984496124034"/>
    </contour>
  </outline>
</glyph>
<glyph name="h" format="2">
  <advance width="1014.7542635658915"/>
  <unicode hex="0068"/>
  <note>
h
</note>
  <anchor x="506.9565891472868" y="0.0" name="bottom"/>
  <anchor x="188.87054263565892" y="1305.8139534883721" name="center"/>
  <anchor x="506.9565891472868" y="1515.4728682170542" name="top"/>
  <outline>
    <contour>
      <point x="132.76356589147287" y="0.0" type="line"/>
      <point x="241.35891472868218" y="0.0" type="line"/>
      <point x="241.35891472868218" y="553.277519379845" type="line" smooth="yes"/>
      <point x="241.35891472868218" y="753.9713178294573"/>
      <point x="347.4263565891473" y="901.6666666666666"/>
      <point x="534.3248062015504" y="901.6666666666666" type="curve" smooth="yes"/>
      <point x="727.7093023255813" y="901.6666666666666"/>
      <point x="798.8271317829457" y="771.4852713178294"/>
      <point x="798.8271317829457" y="545.408527131783" type="curve" smooth="yes"/>
      <point x="798.8271317829457" y="0.0" type="line"/>
      <point x="907.422480620155" y="0.0" type="line"/>
      <point x="907.422480620155" y="559.1007751937984" type="line" smooth="yes"/>
      <point x="907.422480620155" y="799.1728682170543"/>
      <point x="817.7945736434109" y="965.4503875968992"/>
      <point x="558.0441860465116" y="965.4503875968992" type="curve" smooth="yes"/>
      <point x="363.27596899224807" y="965.4503875968992"/>
      <point x="243.63565891472868" y="849.568992248062"/>
      <point x="216.58062015503876" y="649.7550387596899" type="curve"/>
      <point x="240.62248062015505" y="614.1689922480621" type="line"/>
      <point x="241.35891472868218" y="1515.4728682170542" type="line"/>
      <point x="132.76356589147287" y="1515.4728682170542" type="line"/>
    </contour>
  </outline>
</glyph>
<glyph name="k" format="2">
  <advance width="951.5922480620155"/>
  <unicode hex="006B"/>
  <note>
k
</note>
  <anchor x="460.3992248062016" y="0.0" name="bottom"/>
  <anchor x="467.2984496124031" y="1515.4728682170542" name="top"/>
  <outline>
    <contour>
      <point x="133.46356589147285" y="0.0" type="line"/>
      <point x="239.4813953488372" y="0.0" type="line"/>
      <point x="239.4813953488372" y="1515.4728682170542" type="line"/>
      <point x="133.46356589147285" y="1515.4728682170542" type="line"/>
    </contour>
    <contour>
      <point x="769.4201550387597" y="0.0" type="line"/>
      <point x="907.7286821705426" y="0.0" type="line"/>
      <point x="362.73875968992246" y="570.0503875968992" type="line"/>
      <point x="289.5457364341085" y="494.2294573643411" type="line"/>
    </contour>
    <contour>
      <point x="217.3031007751938" y="387.71085271317827" type="line"/>
      <point x="787.2829457364342" y="939.4503875968992" type="line"/>
      <point x="691.0116279069767" y="939.4503875968992" type="line"/>
      <point x="203.88682170542637" y="471.6294573643411" type="line"/>
    </contour>
  </outline>
</glyph>
<glyph name="l" format="2">
  <advance width="372.41317829457364"/>
  <unicode hex="006C"/>
  <note>
l
</note>
  <anchor x="148.69379844961242" y="0.0" name="bottom"/>
  <anchor x="187.05193798449613" y="789.5093023255814" name="center"/>
  <anchor x="425.98372093023255" y="790.9093023255814" name="dot"/>
  <anchor x="224.60232558139535" y="1512.8953488372092" name="top"/>
  <anchor x="355.30387596899226" y="1487.8906976744186" name="topright"/>
  <outline>
    <contour>
      <point x="133.46356589147285" y="0.0" type="line"/>
      <point x="238.9496124031008" y="0.0" type="line"/>
      <point x="238.9496124031008" y="1515.4728682170542" type="line"/>
      <point x="133.46356589147285" y="1515.4728682170542" type="line"/>
    </contour>
  </outline>
</glyph>
<glyph name="m" format="2">
  <advance width="1696.7302325581395"/>
  <unicode hex="006D"/>
  <note>
m
</note>
  <anchor x="841.3651162790698" y="0.0" name="bottom"/>
  <anchor x="848.3651162790698" y="945.077519379845" name="top"/>
  <outline>
    <contour>
      <point x="122.56356589147286" y="0.0" type="line"/>
      <point x="230.42248062015503" y="0.0" type="line"/>
      <point x="230.42248062015503" y="553.277519379845" type="line" smooth="yes"/>
      <point x="230.42248062015503" y="754.1348837209302"/>
      <point x="339.4488372093023" y="901.9666666666667"/>
      <point x="555.0286821705427" y="901.9666666666667" type="curve" smooth="yes"/>
      <point x="733.5178294573643" y="901.9666666666667"/>
      <point x="801.7674418604652" y="803.339534883721"/>
      <point x="801.7674418604652" y="594.6077519379845" type="curve" smooth="yes"/>
      <point x="801.7674418604652" y="0.0" type="line"/>
      <point x="909.6263565891472" y="0.0" type="line"/>
      <point x="909.6263565891472" y="553.277519379845" type="line" smooth="yes"/>
      <point x="909.6263565891472" y="754.4348837209302"/>
      <point x="1017.084496124031" y="901.4348837209302"/>
      <point x="1233.0325581395348" y="901.4348837209302" type="curve" smooth="yes"/>
      <point x="1411.153488372093" y="901.4348837209302"/>
      <point x="1479.9077519379846" y="803.4077519379845"/>
      <point x="1479.9077519379846" y="594.6077519379845" type="curve" smooth="yes"/>
      <point x="1479.9077519379846" y="1.0" type="line"/>
      <point x="1587.7666666666667" y="1.0" type="line"/>
      <point x="1587.7666666666667" y="625.2860465116279" type="line" smooth="yes"/>
      <point x="1587.7666666666667" y="825.6271317829458"/>
      <point x="1498.5341085271318" y="965.8186046511628"/>
      <point x="1256.5472868217055" y="965.8186046511628" type="curve" smooth="yes"/>
      <point x="1037.8387596899224" y="965.8186046511628"/>
      <point x="909.8759689922481" y="852.5054263565892"/>
      <point x="881.2209302325581" y="658.4821705426357" type="curve"/>
      <point x="904.4852713178294" y="663.8100775193799" type="line"/>
      <point x="893.0666666666667" y="844.0503875968992"/>
      <point x="804.9116279069767" y="965.8186046511628"/>
      <point x="578.5434108527131" y="965.8186046511628" type="curve" smooth="yes"/>
      <point x="371.88062015503874" y="965.8186046511628"/>
      <point x="247.84961240310076" y="862.5147286821706"/>
      <point x="213.79922480620155" y="690.0333333333333" type="curve"/>
      <point x="230.05426356589146" y="663.9286821705426" type="line"/>
      <point x="230.42248062015503" y="939.4503875968992" type="line"/>
      <point x="122.56356589147286" y="939.4503875968992" type="line"/>
    </contour>
  </outline>
</glyph>
<glyph name="n" format="2">
  <advance width="1004.4860465116279"/>
  <unicode hex="006E"/>
  <note>
n
</note>
  <anchor x="501.48837209302326" y="0.0" name="bottom"/>
  <anchor x="501.48837209302326" y="945.077519379845" name="top"/>
  <outline>
    <contour>
      <point x="122.63178294573643" y="0.0" type="line"/>
      <point x="231.15891472868216" y="0.0" type="line"/>
      <point x="231.15891472868216" y="553.277519379845" type="line" smooth="yes"/>
      <point x="231.15891472868216" y="753.9713178294573"/>
      <point x="337.22635658914726" y="901.8031007751938"/>
      <point x="524.4248062015504" y="901.8031007751938" type="curve" smooth="yes"/>
      <point x="717.5093023255814" y="901.8031007751938"/>
      <point x="788.6271317829458" y="771.4852713178294"/>
      <point x="788.6271317829458" y="545.408527131783" type="curve" smooth="yes"/>
      <point x="788.6271317829458" y="0.0" type="line"/>
      <point x="897.1542635658915" y="0.0" type="line"/>
      <point x="897.1542635658915" y="559.0325581395349" type="line" smooth="yes"/>
      <point x="897.1542635658915" y="799.1728682170543"/>
      <point x="807.5945736434109" y="965.8186046511628"/>
      <point x="547.8441860465116" y="965.8186046511628" type="curve" smooth="yes"/>
      <point x="351.54883720930235" y="965.8186046511628"/>
      <point x="231.51317829457363" y="847.8782945736434"/>
      <point x="206.38062015503874" y="650.05503875969" type="curve"/>
      <point x="230.42248062015503" y="613.9372093023255" type="line"/>
      <point x="231.15891472868216" y="939.4503875968992" type="line"/>
      <point x="122.63178294573643" y="939.4503875968992" type="line"/>
    </contour>
  </outline>
</glyph>
<glyph name="o" format="2">
  <advance width="1029.6899224806202"/>
  <unicode hex="006F"/>
  <note>
o
</note>
  <anchor x="514.6790697674419" y="3.059689922480615" name="bottom"/>
  <anchor x="515.3790697674418" y="469.5046511627907" name="center"/>
  <anchor x="644.7434108527132" y="0.0" name="ogonek"/>
  <anchor x="515.3790697674418" y="945.077519379845" name="top"/>
  <anchor x="998.1899224806201" y="939.077519379845" name="topright"/>
  <outline>
    <contour>
      <point x="514.3790697674418" y="-27.409302325581397" type="curve" smooth="yes"/>
      <point x="779.8666666666667" y="-27.409302325581397"/>
      <point x="953.8263565891473" y="168.05891472868217"/>
      <point x="953.8263565891473" y="457.6093023255814" type="curve" smooth="yes"/>
      <point x="953.8263565891473" y="747.5232558139535"/>
      <point x="778.0666666666667" y="965.8186046511628"/>
      <point x="514.3790697674418" y="965.8186046511628" type="curve" smooth="yes"/>
      <point x="250.6232558139535" y="965.8186046511628"/>
      <point x="76.56356589147288" y="747.45503875969"/>
      <point x="76.56356589147288" y="457.6093023255814" type="curve" smooth="yes"/>
      <point x="76.56356589147288" y="168.12713178294575"/>
      <point x="249.19147286821706" y="-27.409302325581397"/>
    </contour>
    <contour>
      <point x="514.3790697674418" y="35.93798449612403" type="curve" smooth="yes"/>
      <point x="327.5170542635659" y="35.93798449612403"/>
      <point x="195.0542635658915" y="187.35581395348837"/>
      <point x="195.0542635658915" y="464.4364341085271" type="curve" smooth="yes"/>
      <point x="195.0542635658915" y="732.253488372093"/>
      <point x="327.5806201550388" y="902.7713178294574"/>
      <point x="514.3790697674418" y="902.7713178294574" type="curve" smooth="yes"/>
      <point x="701.2457364341085" y="902.7713178294574"/>
      <point x="833.3720930232558" y="724.7852713178295"/>
      <point x="833.3720930232558" y="457.6093023255814" type="curve" smooth="yes"/>
      <point x="833.3720930232558" y="181.42868217054263"/>
      <point x="701.7728682170542" y="35.93798449612403"/>
    </contour>
  </outline>
</glyph>
<glyph name="p" format="2">
  <advance width="1089.9868217054263"/>
  <unicode hex="0070"/>
  <note>
p
</note>
  <anchor x="544.3480620155038" y="8.36046511627907" name="bottom"/>
  <anchor x="544.3480620155038" y="939.077519379845" name="top"/>
  <outline>
    <contour>
      <point x="133.46356589147285" y="-577.8" type="line"/>
      <point x="240.21782945736433" y="-577.8" type="line"/>
      <point x="240.21782945736433" y="335.8829457364341" type="line"/>
      <point x="205.74883720930234" y="310.4821705426357" type="line"/>
      <point x="257.4077519379845" y="104.99069767441861"/>
      <point x="395.7395348837209" y="-26.509302325581395"/>
      <point x="596.4720930232559" y="-26.509302325581395" type="curve" smooth="yes"/>
      <point x="853.6410852713178" y="-26.509302325581395"/>
      <point x="1014.1232558139535" y="190.32248062015503"/>
      <point x="1014.1232558139535" y="481.33178294573645" type="curve" smooth="yes"/>
      <point x="1014.1232558139535" y="770.677519379845"/>
      <point x="853.0364341085271" y="965.8186046511628"/>
      <point x="595.4356589147287" y="965.8186046511628" type="curve" smooth="yes"/>
      <point x="392.8713178294574" y="965.8186046511628"/>
      <point x="256.77596899224807" y="848.2139534883721"/>
      <point x="204.64418604651163" y="648.7813953488372" type="curve"/>
      <point x="239.1813953488372" y="623.8170542635659" type="line"/>
      <point x="239.1813953488372" y="939.4503875968992" type="line"/>
      <point x="133.46356589147285" y="939.4503875968992" type="line"/>
    </contour>
    <contour>
      <point x="586.8031007751938" y="36.90620155038759" type="curve" smooth="yes"/>
      <point x="386.9542635658915" y="36.90620155038759"/>
      <point x="250.98217054263566" y="211.96046511627907"/>
      <point x="250.98217054263566" y="482.0682170542636" type="curve" smooth="yes"/>
      <point x="250.98217054263566" y="754.3759689922481"/>
      <point x="391.05426356589146" y="902.7031007751938"/>
      <point x="585.7666666666667" y="902.7031007751938" type="curve" smooth="yes"/>
      <point x="788.0519379844961" y="902.7031007751938"/>
      <point x="910.6829457364341" y="751.1767441860466"/>
      <point x="910.6829457364341" y="472.4364341085271" type="curve" smooth="yes"/>
      <point x="910.6829457364341" y="188.79612403100776"/>
      <point x="782.5201550387596" y="36.90620155038759"/>
    </contour>
  </outline>
</glyph>
<glyph name="q" format="2">
  <advance width="1080.15503875969"/>
  <unicode hex="0071"/>
  <note>
q
</note>
  <anchor x="547.0751937984496" y="8.36046511627907" name="bottom"/>
  <anchor x="547.0751937984496" y="939.077519379845" name="top"/>
  <outline>
    <contour>
      <point x="850.768992248062" y="-577.8" type="line"/>
      <point x="957.2232558139535" y="-577.8" type="line"/>
      <point x="957.2232558139535" y="940.8503875968993" type="line"/>
      <point x="851.5054263565892" y="940.8503875968993" type="line"/>
      <point x="851.5054263565892" y="623.0806201550388" type="line"/>
      <point x="886.3426356589148" y="648.1131782945737" type="line"/>
      <point x="834.2108527131783" y="847.8457364341085"/>
      <point x="698.115503875969" y="965.8186046511628"/>
      <point x="495.25116279069766" y="965.8186046511628" type="curve" smooth="yes"/>
      <point x="237.65038759689924" y="965.8186046511628"/>
      <point x="76.56356589147288" y="770.2410852713178"/>
      <point x="76.56356589147288" y="481.33178294573645" type="curve" smooth="yes"/>
      <point x="76.56356589147288" y="190.32248062015503"/>
      <point x="237.34573643410852" y="-26.509302325581395"/>
      <point x="494.2147286821705" y="-26.509302325581395" type="curve" smooth="yes"/>
      <point x="695.2472868217054" y="-26.509302325581395"/>
      <point x="833.2790697674419" y="104.6906976744186"/>
      <point x="884.937984496124" y="310.5503875968992" type="curve"/>
      <point x="850.768992248062" y="335.8829457364341" type="line"/>
    </contour>
    <contour>
      <point x="503.8837209302326" y="36.90620155038759" type="curve" smooth="yes"/>
      <point x="308.46666666666664" y="36.90620155038759"/>
      <point x="180.00387596899225" y="188.79612403100776"/>
      <point x="180.00387596899225" y="472.4364341085271" type="curve" smooth="yes"/>
      <point x="180.00387596899225" y="750.5085271317829"/>
      <point x="302.63488372093025" y="902.7031007751938"/>
      <point x="504.9201550387597" y="902.7031007751938" type="curve" smooth="yes"/>
      <point x="700.0007751937984" y="902.7031007751938"/>
      <point x="840.0046511627907" y="753.6395348837209"/>
      <point x="840.0046511627907" y="482.0682170542636" type="curve" smooth="yes"/>
      <point x="840.0046511627907" y="211.96046511627907"/>
      <point x="704.0325581395349" y="36.90620155038759"/>
    </contour>
  </outline>
</glyph>
<glyph name="r" format="2">
  <advance width="810.8186046511628"/>
  <unicode hex="0072"/>
  <note>
r
</note>
  <anchor x="142.51627906976745" y="0.0" name="bottom"/>
  <anchor x="493.82248062015503" y="945.077519379845" name="top"/>
  <outline>
    <contour>
      <point x="122.56356589147286" y="0.0" type="line"/>
      <point x="231.15891472868216" y="0.0" type="line"/>
      <point x="231.15891472868216" y="572.1860465116279" type="line" smooth="yes"/>
      <point x="231.15891472868216" y="766.7984496124031"/>
      <point x="337.8627906976744" y="901.6666666666666"/>
      <point x="489.1798449612403" y="901.6666666666666" type="curve" smooth="yes"/>
      <point x="577.5922480620155" y="901.6666666666666"/>
      <point x="673.7751937984497" y="860.9945736434108"/>
      <point x="667.1472868217054" y="768.184496124031" type="curve" smooth="yes"/>
      <point x="666.7790697674419" y="736.7209302325582"/>
      <point x="651.9062015503876" y="695.0937984496124"/>
      <point x="641.5379844961241" y="679.0031007751938" type="curve"/>
      <point x="727.0410852713178" y="655.7480620155038" type="line"/>
      <point x="741.0643410852713" y="684.853488372093"/>
      <point x="755.2868217054264" y="736.4"/>
      <point x="755.2868217054264" y="782.1860465116279" type="curve" smooth="yes"/>
      <point x="755.2868217054264" y="910.146511627907"/>
      <point x="631.6170542635659" y="965.8186046511628"/>
      <point x="515.631007751938" y="965.8186046511628" type="curve" smooth="yes"/>
      <point x="347.0077519379845" y="965.8186046511628"/>
      <point x="241.75426356589148" y="850.6279069767442"/>
      <point x="209.79457364341084" y="661.5635658914729" type="curve"/>
      <point x="230.42248062015503" y="612.5418604651163" type="line"/>
      <point x="231.15891472868216" y="939.4503875968992" type="line"/>
      <point x="122.56356589147286" y="939.4503875968992" type="line"/>
    </contour>
  </outline>
</glyph>
<glyph name="s" format="2">
  <advance width="795.0217054263566"/>
  <unicode hex="0073"/>
  <note>
s
</note>
  <anchor x="376.284496124031" y="-2.6860465116279073" name="bottom"/>
  <anchor x="384.71085271317827" y="943.6046511627907" name="top"/>
  <outline>
    <contour>
      <point x="376.2248062015504" y="-25.4046511627907" type="curve" smooth="yes"/>
      <point x="596.1124031007752" y="-25.036434108527132"/>
      <point x="730.4581395348837" y="82.41317829457364"/>
      <point x="730.0899224806202" y="256.58217054263565" type="curve" smooth="yes"/>
      <point x="730.0899224806202" y="416.7015503875969"/>
      <point x="623.0612403100776" y="483.41472868217056"/>
      <point x="390.8658914728682" y="532.8829457364341" type="curve" smooth="yes"/>
      <point x="214.3891472868217" y="570.346511627907"/>
      <point x="172.61627906976744" y="617.1728682170543"/>
      <point x="172.61627906976744" y="727.5496124031008" type="curve" smooth="yes"/>
      <point x="172.61627906976744" y="836.9713178294573"/>
      <point x="263.14728682170545" y="900.0573643410853"/>
      <point x="398.0968992248062" y="898.3255813953489" type="curve" smooth="yes"/>
      <point x="516.524031007752" y="896.2255813953489"/>
      <point x="592.529457364341" y="861.4852713178294"/>
      <point x="673.1170542635659" y="774.0348837209302" type="curve"/>
      <point x="672.7488372093023" y="869.0410852713178" type="line"/>
      <point x="594.5434108527131" y="936.8139534883721"/>
      <point x="521.6387596899225" y="965.8186046511628"/>
      <point x="398.5651162790698" y="965.8186046511628" type="curve" smooth="yes"/>
      <point x="200.36434108527132" y="965.4503875968992"/>
      <point x="83.7953488372093" y="879.8643410852713"/>
      <point x="84.16356589147287" y="709.2403100775193" type="curve" smooth="yes"/>
      <point x="84.53178294573644" y="562.4806201550388"/>
      <point x="164.68682170542635" y="495.831007751938"/>
      <point x="362.9232558139535" y="454.9263565891473" type="curve" smooth="yes"/>
      <point x="567.6728682170543" y="412.9263565891473"/>
      <point x="631.8503875968993" y="369.15038759689924"/>
      <point x="631.8503875968993" y="245.28682170542635" type="curve" smooth="yes"/>
      <point x="631.8503875968993" y="115.94651162790697"/>
      <point x="512.3403100775193" y="46.193023255813955"/>
      <point x="373.015503875969" y="46.193023255813955" type="curve" smooth="yes"/>
      <point x="243.515503875969" y="45.82480620155039"/>
      <point x="147.26511627906976" y="97.03333333333333"/>
      <point x="72.5" y="191.52945736434108" type="curve"/>
      <point x="72.93643410852714" y="85.34573643410853" type="line"/>
      <point x="143.62790697674419" y="10.254263565891474"/>
      <point x="238.20077519379845" y="-25.772868217054263"/>
    </contour>
  </outline>
</glyph>
<glyph name="t" format="2">
  <advance width="556.9976744186047"/>
  <unicode hex="0074"/>
  <note>
t
</note>
  <anchor x="298.9193798449612" y="-3.0" name="bottom"/>
  <anchor x="251.65193798449613" y="565.2527131782946" name="center"/>
  <anchor x="286.9193798449612" y="939.077519379845" name="top"/>
  <anchor x="517.4248062015504" y="1321.391472868217" name="topright"/>
  <outline>
    <contour>
      <point x="325.468992248062" y="-27.036434108527132" type="curve" smooth="yes"/>
      <point x="379.6286821705427" y="-27.036434108527132"/>
      <point x="462.80232558139534" y="-13.263565891472869"/>
      <point x="502.8658914728682" y="6.109302325581394" type="curve"/>
      <point x="502.8658914728682" y="79.48837209302326" type="line"/>
      <point x="456.81007751937983" y="51.896899224806205"/>
      <point x="398.22403100775193" y="38.479069767441864"/>
      <point x="357.65193798449616" y="38.479069767441864" type="curve" smooth="yes"/>
      <point x="283.30697674418604" y="38.479069767441864"/>
      <point x="290.78914728682173" y="88.53798449612404"/>
      <point x="290.78914728682173" y="238.74573643410852" type="curve" smooth="yes"/>
      <point x="290.78914728682173" y="876.2759689922481" type="line"/>
      <point x="453.8604651162791" y="876.2759689922481" type="line"/>
      <point x="453.8604651162791" y="939.95503875969" type="line"/>
      <point x="290.78914728682173" y="939.95503875969" type="line"/>
      <point x="290.78914728682173" y="1220.2643410852713" type="line"/>
      <point x="234.5829457364341" y="1220.2643410852713" type="line"/>
      <point x="242.915503875969" y="971.5612403100776"/>
      <point x="217.77209302325582" y="939.2868217054264"/>
      <point x="55.3" y="939.95503875969" type="curve"/>
      <point x="55.3" y="876.2759689922481" type="line"/>
      <point x="189.25813953488372" y="876.2759689922481" type="line"/>
      <point x="189.25813953488372" y="205.98217054263566" type="line" smooth="yes"/>
      <point x="189.25813953488372" y="45.62635658914729"/>
      <point x="206.1139534883721" y="-27.036434108527132"/>
    </contour>
  </outline>
</glyph>
<glyph name="u" format="2">
  <advance width="1029.5813953488373"/>
  <unicode hex="0075"/>
  <note>
u
</note>
  <anchor x="496.9968992248062" y="-2.6860465116279073" name="bottom"/>
  <anchor x="859.7162790697674" y="0.0" name="ogonek"/>
  <anchor x="513.7837209302326" y="940.9186046511628" name="top"/>
  <anchor x="1119.2767441860465" y="940.9186046511628" name="topright"/>
  <outline>
    <contour>
      <point x="445.7604651162791" y="-26.231782945736434" type="curve" smooth="yes"/>
      <point x="694.5279069767441" y="-26.231782945736434"/>
      <point x="789.5953488372093" y="149.9139534883721"/>
      <point x="819.1093023255814" y="349.11240310077517" type="curve"/>
      <point x="799.0906976744186" y="365.02635658914727" type="line"/>
      <point x="798.722480620155" y="0.0" type="line"/>
      <point x="906.8813953488373" y="0.0" type="line"/>
      <point x="906.8813953488373" y="939.4503875968992" type="line"/>
      <point x="798.722480620155" y="939.4503875968992" type="line"/>
      <point x="798.722480620155" y="485.1031007751938" type="line" smooth="yes"/>
      <point x="798.722480620155" y="223.76511627906976"/>
      <point x="696.9775193798449" y="37.415503875968994"/>
      <point x="461.14728682170545" y="37.415503875968994" type="curve" smooth="yes"/>
      <point x="289.57209302325583" y="37.415503875968994"/>
      <point x="217.1906976744186" y="140.85581395348837"/>
      <point x="217.1906976744186" y="345.37441860465117" type="curve" smooth="yes"/>
      <point x="217.1906976744186" y="939.4503875968992" type="line"/>
      <point x="108.66356589147287" y="939.4503875968992" type="line"/>
      <point x="108.66356589147287" y="313.76899224806203" type="line" smooth="yes"/>
      <point x="108.66356589147287" y="114.88682170542636"/>
      <point x="214.646511627907" y="-26.231782945736434"/>
    </contour>
  </outline>
</glyph>
<glyph name="v" format="2">
  <advance width="1027.4131782945738"/>
  <unicode hex="0076"/>
  <note>
v
</note>
  <anchor x="514.0565891472868" y="8.36046511627907" name="bottom"/>
  <anchor x="514.0565891472868" y="939.077519379845" name="top"/>
  <outline>
    <contour>
      <point x="507.5875968992248" y="-39.231782945736434" type="line"/>
      <point x="530.5573643410853" y="-39.231782945736434" type="line"/>
      <point x="975.0403100775194" y="939.4503875968992" type="line"/>
      <point x="920.0426356589147" y="939.4503875968992" type="line"/>
      <point x="532.3713178294573" y="65.9046511627907" type="line"/>
      <point x="562.9124031007752" y="96.27209302325582" type="line"/>
      <point x="177.39069767441862" y="939.4503875968992" type="line"/>
      <point x="52.37286821705426" y="939.4503875968992" type="line"/>
    </contour>
  </outline>
</glyph>
<glyph name="w" format="2">
  <advance width="1536.7023255813954"/>
  <unicode hex="0077"/>
  <note>
w
</note>
  <anchor x="768.8852713178295" y="0.0" name="bottom"/>
  <anchor x="768.8852713178295" y="940.9186046511628" name="top"/>
  <outline>
    <contour>
      <point x="1023.6899224806201" y="-23.704651162790697" type="line"/>
      <point x="1047.0279069767441" y="-23.704651162790697" type="line"/>
      <point x="1486.2387596899225" y="939.5186046511628" type="line"/>
      <point x="1431.0046511627907" y="939.5186046511628" type="line"/>
      <point x="1048.0922480620154" y="79.05968992248063" type="line"/>
      <point x="1088.4651162790697" y="103.57674418604651" type="line"/>
      <point x="703.5472868217054" y="939.4503875968992" type="line"/>
      <point x="578.693023255814" y="939.5186046511628" type="line"/>
    </contour>
    <contour>
      <point x="495.7604651162791" y="-23.704651162790697" type="line"/>
      <point x="519.0984496124031" y="-23.704651162790697" type="line"/>
      <point x="796.1317829457364" y="592.0341085271318" type="line"/>
      <point x="768.9806201550388" y="648.9589147286822" type="line"/>
      <point x="519.2899224806201" y="79.05968992248063" type="line"/>
      <point x="553.9077519379845" y="103.57674418604651" type="line"/>
      <point x="175.31782945736433" y="939.4503875968992" type="line"/>
      <point x="50.46356589147287" y="939.5186046511628" type="line"/>
    </contour>
    <contour>
      <point x="810.5232558139535" y="601.6077519379845" type="line"/>
      <point x="963.5906976744186" y="939.5186046511628" type="line"/>
      <point x="907.6201550387597" y="939.5186046511628" type="line"/>
      <point x="774.4666666666667" y="641.5945736434109" type="line"/>
    </contour>
  </outline>
</glyph>
<glyph name="x" format="2">
  <advance width="911.9775193798449"/>
  <unicode hex="0078"/>
  <note>
x
</note>
  <anchor x="456.1387596899225" y="8.36046511627907" name="bottom"/>
  <anchor x="456.1387596899225" y="939.077519379845" name="top"/>
  <outline>
    <contour>
      <point x="714.777519379845" y="0.0" type="line"/>
      <point x="838.4139534883722" y="0.0" type="line"/>
      <point x="224.72713178294575" y="939.4503875968992" type="line"/>
      <point x="101.0906976744186" y="939.4503875968992" type="line"/>
    </contour>
    <contour>
      <point x="55.659689922480624" y="0.0" type="line"/>
      <point x="129.5124031007752" y="0.0" type="line"/>
      <point x="471.8891472868217" y="454.9170542635659" type="line"/>
      <point x="432.4565891472868" y="503.0829457364341" type="line"/>
    </contour>
    <contour>
      <point x="488.8713178294574" y="465.29457364341084" type="line"/>
      <point x="844.1410852713178" y="939.4503875968992" type="line"/>
      <point x="766.9565891472869" y="939.4503875968992" type="line"/>
      <point x="454.5201550387597" y="517.7054263565891" type="line"/>
    </contour>
  </outline>
</glyph>
<glyph name="y" format="2">
  <advance width="980.175968992248"/>
  <unicode hex="0079"/>
  <note>
y
</note>
  <anchor x="700.4302325581396" y="0.0" name="bottom"/>
  <anchor x="499.6434108527132" y="940.9186046511628" name="top"/>
  <outline>
    <contour>
      <point x="265.7015503875969" y="-554.2186046511628" type="curve" smooth="yes"/>
      <point x="354.162015503876" y="-554.2186046511628"/>
      <point x="389.68062015503875" y="-481.0806201550388"/>
      <point x="435.0170542635659" y="-359.0984496124031" type="curve" smooth="yes"/>
      <point x="594.8170542635659" y="85.13798449612403"/>
      <point x="580.0806201550388" y="46.10155038759689"/>
      <point x="622.5852713178294" y="157.83333333333334" type="curve"/>
      <point x="927.2441860465117" y="939.5186046511628" type="line"/>
      <point x="871.9147286821706" y="939.5186046511628" type="line"/>
      <point x="532.7062015503876" y="53.53875968992247" type="line"/>
      <point x="574.1403100775194" y="66.1387596899225" type="line"/>
      <point x="174.81317829457365" y="939.4503875968992" type="line"/>
      <point x="50.46356589147287" y="939.5186046511628" type="line"/>
      <point x="519.1612403100776" y="-72.41085271317829" type="line"/>
      <point x="513.3333333333334" y="5.088372093023267" type="line"/>
      <point x="408.73333333333335" y="-299.16279069767444" type="line" smooth="yes"/>
      <point x="368.3705426356589" y="-414.4062015503876"/>
      <point x="341.7426356589147" y="-507.64031007751936"/>
      <point x="270.2651162790698" y="-507.64031007751936" type="curve" smooth="yes"/>
      <point x="222.99612403100775" y="-507.64031007751936"/>
      <point x="192.84186046511627" y="-478.59457364341085"/>
      <point x="189.60542635658913" y="-433.54961240310075" type="curve"/>
      <point x="128.5" y="-433.54961240310075" type="line"/>
      <point x="136.73643410852713" y="-512.577519379845"/>
      <point x="193.54108527131783" y="-554.2186046511628"/>
    </contour>
  </outline>
</glyph>
<glyph name="z" format="2">
  <advance width="826.1131782945737"/>
  <unicode hex="007A"/>
  <note>
z
</note>
  <anchor x="413.05658914728684" y="0.0" name="bottom"/>
  <anchor x="413.05658914728684" y="470.6093023255814" name="center"/>
  <anchor x="413.05658914728684" y="940.9186046511628" name="top"/>
  <outline>
    <contour>
      <point x="58.16356589147287" y="0.0" type="line"/>
      <point x="758.9906976744186" y="0.0" type="line"/>
      <point x="758.9906976744186" y="66.74728682170543" type="line"/>
      <point x="177.67286821705426" y="66.74728682170543" type="line"/>
      <point x="189.3674418604651" y="24.091472868217053" type="line"/>
      <point x="764.5131782945737" y="939.4503875968992" type="line"/>
      <point x="79.26821705426357" y="939.4503875968992" type="line"/>
      <point x="79.26821705426357" y="873.0713178294574" type="line"/>
      <point x="650.722480620155" y="873.0713178294574" type="line"/>
      <point x="632.3093023255814" y="912.3271317829458" type="line"/>
    </contour>
  </outline>
</glyph>
<glyph name="braceleft" format="2">
  <advance width="635.262015503876"/>
  <unicode hex="007B"/>
  <note>
braceleft
</note>
  <outline>
    <contour>
      <point x="555.362015503876" y="-395.6589147286822" type="curve"/>
      <point x="555.362015503876" y="-310.96589147286824" type="line"/>
      <point x="369.9899224806202" y="-318.9984496124031"/>
      <point x="282.5806201550388" y="-201.47131782945738"/>
      <point x="282.5806201550388" y="21.02325581395349" type="curve" smooth="yes"/>
      <point x="282.5806201550388" y="336.477519379845" type="line" smooth="yes"/>
      <point x="282.5806201550388" y="402.4139534883721"/>
      <point x="234.55348837209303" y="449.6457364341085"/>
      <point x="192.4674418604651" y="481.8046511627907" type="curve"/>
      <point x="234.55348837209303" y="515.9635658914729"/>
      <point x="282.5806201550388" y="561.5635658914729"/>
      <point x="282.5806201550388" y="626.9" type="curve" smooth="yes"/>
      <point x="282.5806201550388" y="1044.7178294573644" type="line" smooth="yes"/>
      <point x="282.5806201550388" y="1264.8263565891473"/>
      <point x="372.2124031007752" y="1384.739534883721"/>
      <point x="555.362015503876" y="1376.3387596899224" type="curve"/>
      <point x="555.362015503876" y="1461.4" type="line"/>
      <point x="331.94263565891475" y="1469.1186046511627"/>
      <point x="202.61007751937984" y="1327.877519379845"/>
      <point x="202.61007751937984" y="1113.3813953488373" type="curve" smooth="yes"/>
      <point x="202.61007751937984" y="626.9" type="line" smooth="yes"/>
      <point x="202.61007751937984" y="564.3046511627907"/>
      <point x="154.95116279069768" y="528.291472868217"/>
      <point x="84.2953488372093" y="482.24108527131784" type="curve"/>
      <point x="154.18759689922481" y="436.3813953488372"/>
      <point x="202.61007751937984" y="399.2093023255814"/>
      <point x="202.61007751937984" y="336.477519379845" type="curve" smooth="yes"/>
      <point x="202.61007751937984" y="-47.27209302325581" type="line" smooth="yes"/>
      <point x="202.61007751937984" y="-262.8046511627907"/>
      <point x="330.24263565891476" y="-403.07751937984494"/>
    </contour>
  </outline>
</glyph>
<glyph name="bar" format="2">
  <advance width="507.9937984496124"/>
  <unicode hex="007C"/>
  <note>
bar
</note>
  <outline>
    <contour>
      <point x="203.66356589147287" y="-300.0" type="line"/>
      <point x="304.3302325581395" y="-300.0" type="line"/>
      <point x="304.3302325581395" y="1664.0" type="line"/>
      <point x="203.66356589147287" y="1664.0" type="line"/>
    </contour>
  </outline>
</glyph>
<glyph name="braceright" format="2">
  <advance width="635.6302325581396"/>
  <unicode hex="007D"/>
  <note>
braceright
</note>
  <outline>
    <contour>
      <point x="79.9" y="-395.6589147286822" type="line"/>
      <point x="305.38759689922483" y="-403.07751937984494"/>
      <point x="432.65193798449616" y="-262.8046511627907"/>
      <point x="432.65193798449616" y="-47.27209302325581" type="curve" smooth="yes"/>
      <point x="432.65193798449616" y="336.477519379845" type="line" smooth="yes"/>
      <point x="432.65193798449616" y="399.2093023255814"/>
      <point x="481.07441860465116" y="436.01317829457366"/>
      <point x="551.3348837209303" y="481.87286821705425" type="curve"/>
      <point x="479.94263565891475" y="528.291472868217"/>
      <point x="432.65193798449616" y="564.3046511627907"/>
      <point x="432.65193798449616" y="626.9" type="curve" smooth="yes"/>
      <point x="432.65193798449616" y="1113.3813953488373" type="line" smooth="yes"/>
      <point x="432.65193798449616" y="1327.877519379845"/>
      <point x="303.6875968992248" y="1469.1186046511627"/>
      <point x="79.9" y="1461.4" type="curve"/>
      <point x="79.9" y="1376.3387596899224" type="line"/>
      <point x="263.7860465116279" y="1384.739534883721"/>
      <point x="353.04961240310075" y="1264.8263565891473"/>
      <point x="353.04961240310075" y="1044.7178294573644" type="curve" smooth="yes"/>
      <point x="353.04961240310075" y="626.9" type="line" smooth="yes"/>
      <point x="353.04961240310075" y="561.1953488372093"/>
      <point x="401.07674418604654" y="515.9635658914729"/>
      <point x="443.16279069767444" y="481.8046511627907" type="curve"/>
      <point x="401.07674418604654" y="449.6457364341085"/>
      <point x="353.04961240310075" y="402.4139534883721"/>
      <point x="353.04961240310075" y="336.477519379845" type="curve" smooth="yes"/>
      <point x="353.04961240310075" y="21.02325581395349" type="line" smooth="yes"/>
      <point x="353.04961240310075" y="-201.47131782945738"/>
      <point x="265.6403100775194" y="-318.9984496124031"/>
      <point x="79.9" y="-310.96589147286824" type="curve"/>
    </contour>
  </outline>
</glyph>
<glyph name="asciitilde" format="2">
  <advance width="1157.0658914728683"/>
  <unicode hex="007E"/>
  <note>
asciitilde
</note>
  <outline>
    <contour>
      <point x="749.1813953488372" y="618.2387596899225" type="curve" smooth="yes"/>
      <point x="864.9961240310078" y="618.2387596899225"/>
      <point x="956.762015503876" y="677.1627906976744"/>
      <point x="1023.6705426356589" y="762.9837209302326" type="curve"/>
      <point x="977.1596899224807" y="821.6550387596899" type="line"/>
      <point x="924.3178294573644" y="759.05503875969"/>
      <point x="829.1906976744186" y="708.4007751937985"/>
      <point x="744.586046511628" y="708.4007751937985" type="curve" smooth="yes"/>
      <point x="681.1131782945737" y="708.4007751937985"/>
      <point x="640.708527131783" y="738.5007751937984"/>
      <point x="601.9945736434108" y="765.568992248062" type="curve" smooth="yes"/>
      <point x="544.0666666666666" y="803.9736434108527"/>
      <point x="489.4751937984496" y="837.9736434108527"/>
      <point x="400.37984496124034" y="837.9736434108527" type="curve" smooth="yes"/>
      <point x="294.44806201550387" y="837.9736434108527"/>
      <point x="204.60542635658913" y="786.4914728682171"/>
      <point x="133.3953488372093" y="684.8372093023256" type="curve"/>
      <point x="179.9968992248062" y="629.9069767441861" type="line"/>
      <point x="239.67131782945737" y="697.9348837209302"/>
      <point x="323.47131782945735" y="745.5116279069767"/>
      <point x="402.71162790697673" y="745.5116279069767" type="curve" smooth="yes"/>
      <point x="468.55658914728684" y="745.5116279069767"/>
      <point x="513.470542635659" y="710.9573643410853"/>
      <point x="564.3713178294573" y="678.6116279069768" type="curve" smooth="yes"/>
      <point x="621.1534883720931" y="643.0116279069767"/>
      <point x="670.3674418604651" y="618.2387596899225"/>
    </contour>
  </outline>
</glyph>
<glyph name=".notdef" format="2">
  <advance width="1260.9"/>
  <unicode hex="007F"/>
  <note>
.notdef
</note>
  <outline>
    <contour>
      <point x="112.47596899224806" y="-351.42248062015506" type="line"/>
      <point x="1148.4240310077519" y="-351.42248062015506" type="line"/>
      <point x="1148.4240310077519" y="1411.4728682170542" type="line"/>
      <point x="112.47596899224806" y="1411.4728682170542" type="line"/>
    </contour>
    <contour>
      <point x="252.9922480620155" y="-214.38372093023256" type="line"/>
      <point x="252.9922480620155" y="1274.4341085271317" type="line"/>
      <point x="1008.575968992248" y="1274.4341085271317" type="line"/>
      <point x="1008.575968992248" y="-214.38372093023256" type="line"/>
    </contour>
  </outline>
</glyph>
<glyph name="Euro" format="2">
  <advance width="1531.215503875969"/>
  <unicode hex="0080"/>
  <note>
Euro
</note>
  <outline>
    <contour>
      <point x="908.3720930232558" y="-14.796124031007754" type="curve" smooth="yes"/>
      <point x="1136.2054263565892" y="-14.796124031007754"/>
      <point x="1286.8565891472867" y="101.81860465116279"/>
      <point x="1392.0883720930233" y="320.6286821705426" type="curve"/>
      <point x="1294.594573643411" y="320.6286821705426" type="line"/>
      <point x="1198.7348837209302" y="112.2953488372093"/>
      <point x="1053.3116279069768" y="47.878294573643416"/>
      <point x="915.1085271317829" y="47.878294573643416" type="curve" smooth="yes"/>
      <point x="622.4635658914729" y="47.878294573643416"/>
      <point x="425.2829457364341" y="333.75581395348837"/>
      <point x="425.2829457364341" y="714.1542635658915" type="curve" smooth="yes"/>
      <point x="425.2829457364341" y="1106.317054263566"/>
      <point x="631.9914728682171" y="1379.1666666666667"/>
      <point x="907.4992248062016" y="1379.1666666666667" type="curve" smooth="yes"/>
      <point x="1046.6434108527133" y="1379.1666666666667"/>
      <point x="1211.875968992248" y="1308.2674418604652"/>
      <point x="1293.3488372093022" y="1106.7658914728681" type="curve"/>
      <point x="1386.679069767442" y="1106.7658914728681" type="line"/>
      <point x="1294.9108527131782" y="1331.7263565891474"/>
      <point x="1127.0007751937985" y="1441.4728682170542"/>
      <point x="909.3720930232558" y="1441.4728682170542" type="curve" smooth="yes"/>
      <point x="556.1348837209302" y="1441.4728682170542"/>
      <point x="309.9062015503876" y="1154.2046511627907"/>
      <point x="310.2062015503876" y="712.1906976744186" type="curve" smooth="yes"/>
      <point x="310.13798449612403" y="258.34961240310076"/>
      <point x="560.2666666666667" y="-14.796124031007754"/>
    </contour>
    <contour>
      <point x="131.4953488372093" y="521.8992248062016" type="line"/>
      <point x="957.6984496124031" y="521.8992248062016" type="line"/>
      <point x="972.1534883720931" y="581.6100775193798" type="line"/>
      <point x="146.68682170542635" y="581.6100775193798" type="line"/>
    </contour>
    <contour>
      <point x="179.86356589147286" y="817.5852713178294" type="line"/>
      <point x="1006.0666666666667" y="817.5852713178294" type="line"/>
      <point x="1020.6852713178295" y="876.9279069767442" type="line"/>
      <point x="195.2186046511628" y="876.9279069767442" type="line"/>
    </contour>
  </outline>
</glyph>
<glyph name="sterling" format="2">
  <advance width="1210.4038759689922"/>
  <unicode hex="00A3"/>
  <note>
sterling
</note>
  <outline>
    <contour>
      <point x="332.64728682170545" y="55.328682170542635" type="curve" smooth="yes"/>
      <point x="488.78914728682173" y="55.328682170542635"/>
      <point x="702.5658914728682" y="232.62403100775194"/>
      <point x="702.5658914728682" y="454.69147286821703" type="curve" smooth="yes"/>
      <point x="702.5658914728682" y="668.053488372093"/>
      <point x="604.4666666666667" y="737.2767441860465"/>
      <point x="482.55271317829454" y="827.8589147286822" type="curve" smooth="yes"/>
      <point x="374.59302325581393" y="908.0186046511628"/>
      <point x="302.2077519379845" y="1014.8728682170542"/>
      <point x="302.2077519379845" y="1154.3720930232557" type="curve" smooth="yes"/>
      <point x="302.2077519379845" y="1317.2581395348836"/>
      <point x="419.57131782945737" y="1405.0666666666666"/>
      <point x="589.4286821705426" y="1405.0666666666666" type="curve" smooth="yes"/>
      <point x="766.7100775193799" y="1405.0666666666666"/>
      <point x="926.3410852713179" y="1276.9240310077519"/>
      <point x="938.5635658914729" y="1114.7147286821705" type="curve"/>
      <point x="1030.7170542635658" y="1114.7147286821705" type="line"/>
      <point x="1001.6627906976744" y="1331.9348837209302"/>
      <point x="833.0666666666667" y="1463.441085271318"/>
      <point x="598.1333333333333" y="1463.441085271318" type="curve" smooth="yes"/>
      <point x="340.21007751937987" y="1463.441085271318"/>
      <point x="192.6403100775194" y="1323.831007751938"/>
      <point x="192.6403100775194" y="1124.7937984496125" type="curve" smooth="yes"/>
      <point x="192.6403100775194" y="921.5263565891473"/>
      <point x="315.88527131782945" y="825.6992248062015"/>
      <point x="439.3356589147287" y="736.3581395348838" type="curve" smooth="yes"/>
      <point x="537.4403100775194" y="665.7581395348838"/>
      <point x="588.0666666666667" y="625.2713178294574"/>
      <point x="588.0666666666667" y="430.50542635658917" type="curve" smooth="yes"/>
      <point x="588.0666666666667" y="259.4294573643411"/>
      <point x="411.0077519379845" y="86.5031007751938"/>
      <point x="158.36821705426357" y="85.64418604651163" type="curve"/>
      <point x="223.4279069767442" y="48.006201550387594"/>
      <point x="267.12558139534883" y="55.328682170542635"/>
    </contour>
    <contour>
      <point x="148.56821705426356" y="0.0" type="line"/>
      <point x="1071.5720930232558" y="0.0" type="line"/>
      <point x="1071.5720930232558" y="85.64418604651163" type="line"/>
      <point x="148.56821705426356" y="85.64418604651163" type="line"/>
    </contour>
    <contour>
      <point x="161.87286821705425" y="690.898449612403" type="line"/>
      <point x="978.7837209302326" y="690.898449612403" type="line"/>
      <point x="978.7837209302326" y="751.3457364341085" type="line"/>
      <point x="161.87286821705425" y="751.3457364341085" type="line"/>
    </contour>
  </outline>
</glyph>
<glyph name="currency" format="2">
  <advance width="1168.1062015503876"/>
  <unicode hex="00A4"/>
  <note>
currency
</note>
  <outline>
    <contour>
      <point x="197.21937984496125" y="255.1015503875969" type="line"/>
      <point x="372.77441860465115" y="437.6565891472868" type="line"/>
      <point x="431.99302325581397" y="390.215503875969"/>
      <point x="507.2480620155039" y="361.8108527131783"/>
      <point x="588.8031007751938" y="361.8108527131783" type="curve" smooth="yes"/>
      <point x="667.6263565891472" y="361.8108527131783"/>
      <point x="739.3813953488373" y="388.115503875969"/>
      <point x="797.2" y="431.3565891472868" type="curve"/>
      <point x="968.1550387596899" y="255.1015503875969" type="line"/>
      <point x="1020.2108527131783" y="307.92558139534884" type="line"/>
      <point x="851.024031007752" y="483.0806201550388" type="line"/>
      <point x="903.3651162790698" y="543.3674418604651"/>
      <point x="934.5697674418604" y="621.7542635658915"/>
      <point x="934.5697674418604" y="707.577519379845" type="curve" smooth="yes"/>
      <point x="934.5697674418604" y="794.7325581395348"/>
      <point x="901.9651162790698" y="874.1875968992248"/>
      <point x="848.924031007752" y="934.8062015503876" type="curve"/>
      <point x="1020.2790697674418" y="1111.7612403100775" type="line"/>
      <point x="966.45503875969" y="1164.1852713178296" type="line"/>
      <point x="794.4" y="985.8302325581395" type="line"/>
      <point x="737.2813953488372" y="1028.4395348837209"/>
      <point x="666.2263565891473" y="1053.3441860465116"/>
      <point x="588.8031007751938" y="1053.3441860465116" type="curve" smooth="yes"/>
      <point x="508.94806201550387" y="1053.3441860465116"/>
      <point x="434.39302325581394" y="1026.339534883721"/>
      <point x="376.2062015503876" y="980.2302325581395" type="curve"/>
      <point x="198.55116279069767" y="1163.8852713178294" type="line"/>
      <point x="145.09534883720931" y="1111.7612403100775" type="line"/>
      <point x="322.7503875968992" y="927.8062015503876" type="line"/>
      <point x="272.8410852713178" y="868.5875968992248"/>
      <point x="243.03643410852715" y="791.9325581395349"/>
      <point x="243.03643410852715" y="707.577519379845" type="curve" smooth="yes"/>
      <point x="243.03643410852715" y="624.5542635658915"/>
      <point x="272.1410852713178" y="548.9674418604651"/>
      <point x="320.3503875968992" y="490.0806201550388" type="curve"/>
      <point x="145.09534883720931" y="308.22558139534885" type="line"/>
    </contour>
    <contour>
      <point x="588.8031007751938" y="435.66279069767444" type="curve" smooth="yes"/>
      <point x="438.6434108527132" y="435.66279069767444"/>
      <point x="316.88837209302324" y="557.4178294573643"/>
      <point x="316.88837209302324" y="707.577519379845" type="curve" smooth="yes"/>
      <point x="316.88837209302324" y="857.7372093023256"/>
      <point x="438.6434108527132" y="979.4922480620155"/>
      <point x="588.8031007751938" y="979.4922480620155" type="curve" smooth="yes"/>
      <point x="738.9627906976744" y="979.4922480620155"/>
      <point x="860.7178294573644" y="857.7372093023256"/>
      <point x="860.7178294573644" y="707.577519379845" type="curve" smooth="yes"/>
      <point x="860.7178294573644" y="557.4178294573643"/>
      <point x="738.9627906976744" y="435.66279069767444"/>
    </contour>
  </outline>
</glyph>
<glyph name="brokenbar" format="2">
  <advance width="507.9937984496124"/>
  <unicode hex="00A6"/>
  <note>
brokenbar
</note>
  <outline>
    <contour>
      <point x="203.66356589147287" y="-300.0" type="line"/>
      <point x="304.3302325581395" y="-300.0" type="line"/>
      <point x="304.3302325581395" y="539.4263565891473" type="line"/>
      <point x="203.66356589147287" y="539.4263565891473" type="line"/>
    </contour>
    <contour>
      <point x="203.66356589147287" y="852.5736434108527" type="line"/>
      <point x="304.3302325581395" y="852.5736434108527" type="line"/>
      <point x="304.3302325581395" y="1664.0" type="line"/>
      <point x="203.66356589147287" y="1664.0" type="line"/>
    </contour>
  </outline>
</glyph>
<glyph name="section" format="2">
  <advance width="1110.0418604651163"/>
  <unicode hex="00A7"/>
  <note>
section
</note>
  <outline>
    <contour>
      <point x="526.3550387596899" y="-410.4720930232558" type="curve" smooth="yes"/>
      <point x="740.6418604651162" y="-410.4720930232558"/>
      <point x="915.1100775193798" y="-307.9674418604651"/>
      <point x="913.0100775193798" y="-112.18062015503875" type="curve" smooth="yes"/>
      <point x="910.9100775193799" y="76.63333333333333"/>
      <point x="754.4147286821706" y="155.12868217054265"/>
      <point x="566.6550387596899" y="205.36046511627907" type="curve"/>
      <point x="561.8457364341085" y="158.78604651162792" type="line"/>
      <point x="802.4054263565893" y="162.45426356589147"/>
      <point x="978.3782945736434" y="303.5906976744186"/>
      <point x="975.5782945736435" y="520.577519379845" type="curve" smooth="yes"/>
      <point x="972.7782945736434" y="725.5007751937984"/>
      <point x="836.1961240310078" y="808.0372093023256"/>
      <point x="638.9961240310078" y="879.0279069767441" type="curve" smooth="yes"/>
      <point x="464.97209302325587" y="942.5418604651163"/>
      <point x="344.12790697674416" y="997.3325581395349"/>
      <point x="341.3279069767442" y="1138.2674418604652" type="curve" smooth="yes"/>
      <point x="339.2279069767442" y="1289.4767441860465"/>
      <point x="437.6728682170543" y="1374.406976744186"/>
      <point x="570.2186046511628" y="1374.406976744186" type="curve" smooth="yes"/>
      <point x="719.2736434108527" y="1374.406976744186"/>
      <point x="791.2821705426356" y="1271.8720930232557"/>
      <point x="784.877519379845" y="1124.8573643410853" type="curve"/>
      <point x="915.2100775193799" y="1124.8573643410853" type="line"/>
      <point x="915.2100775193799" y="1157.8992248062016" type="line" smooth="yes"/>
      <point x="915.2100775193799" y="1334.4178294573644"/>
      <point x="799.4054263565891" y="1437.2589147286822"/>
      <point x="580.1868217054264" y="1437.2589147286822" type="curve" smooth="yes"/>
      <point x="362.2317829457364" y="1437.2589147286822"/>
      <point x="194.56356589147288" y="1337.0542635658915"/>
      <point x="196.66356589147287" y="1140.2674418604652" type="curve" smooth="yes"/>
      <point x="198.76356589147287" y="979.6852713178295"/>
      <point x="303.6496124031008" y="882.4945736434108"/>
      <point x="563.1240310077519" y="816.5852713178294" type="curve"/>
      <point x="541.2093023255813" y="865.7643410852713" type="line"/>
      <point x="321.1" y="875.1279069767442"/>
      <point x="132.9953488372093" y="747.2232558139535"/>
      <point x="135.7953488372093" y="506.2093023255814" type="curve" smooth="yes"/>
      <point x="137.1953488372093" y="345.25426356589145"/>
      <point x="242.1" y="223.45426356589147"/>
      <point x="507.75038759689926" y="139.0906976744186" type="curve" smooth="yes"/>
      <point x="657.7279069767442" y="92.39069767441859"/>
      <point x="768.4457364341085" y="5.099999999999998"/>
      <point x="769.8457364341085" y="-105.48062015503876" type="curve" smooth="yes"/>
      <point x="771.2457364341085" y="-236.8217054263566"/>
      <point x="677.1596899224807" y="-347.62015503875966"/>
      <point x="529.6550387596899" y="-347.62015503875966" type="curve" smooth="yes"/>
      <point x="381.49534883720935" y="-347.62015503875966"/>
      <point x="297.1550387596899" y="-237.04883720930232"/>
      <point x="304.29612403100776" y="-90.07054263565891" type="curve"/>
      <point x="173.76356589147287" y="-90.07054263565891" type="line"/>
      <point x="173.76356589147287" y="-123.48062015503876" type="line" smooth="yes"/>
      <point x="173.76356589147287" y="-288.9674418604651"/>
      <point x="300.0" y="-410.4720930232558"/>
    </contour>
    <contour>
      <point x="558.2868217054264" y="217.55116279069767" type="curve" smooth="yes"/>
      <point x="404.05968992248063" y="217.55116279069767"/>
      <point x="276.55968992248063" y="368.20542635658916"/>
      <point x="274.4596899224806" y="520.2093023255813" type="curve" smooth="yes"/>
      <point x="272.35968992248064" y="671.7813953488372"/>
      <point x="395.29147286821706" y="814.2356589147287"/>
      <point x="551.2868217054264" y="814.2356589147287" type="curve" smooth="yes"/>
      <point x="707.5821705426357" y="814.2356589147287"/>
      <point x="834.8139534883721" y="677.3449612403101"/>
      <point x="836.913953488372" y="527.2093023255813" type="curve" smooth="yes"/>
      <point x="839.0139534883721" y="376.20542635658916"/>
      <point x="712.2139534883721" y="217.55116279069767"/>
    </contour>
  </outline>
</glyph>
<glyph name="copyright" format="2">
  <advance width="1738.1558139534884"/>
  <unicode hex="00A9"/>
  <note>
copyright
</note>
  <outline>
    <contour>
      <point x="867.7279069767442" y="-12.577519379844961" type="curve" smooth="yes"/>
      <point x="1060.5279069767441" y="-12.577519379844961"/>
      <point x="1245.868992248062" y="64.14496124031008"/>
      <point x="1389.0147286821705" y="200.82248062015503" type="curve" smooth="yes"/>
      <point x="1527.9829457364342" y="334.32248062015503"/>
      <point x="1599.760465116279" y="512.8860465116279"/>
      <point x="1599.760465116279" y="707.2635658914729" type="curve" smooth="yes"/>
      <point x="1599.760465116279" y="906.2906976744187"/>
      <point x="1525.3511627906976" y="1083.836434108527"/>
      <point x="1389.382945736434" y="1216.5046511627907" type="curve" smooth="yes"/>
      <point x="1250.6418604651162" y="1352.2457364341085"/>
      <point x="1068.4325581395349" y="1427.1046511627908"/>
      <point x="867.7279069767442" y="1427.1046511627908" type="curve" smooth="yes"/>
      <point x="670.8457364341085" y="1427.1046511627908"/>
      <point x="492.7503875968992" y="1355.4821705426357"/>
      <point x="355.7728682170543" y="1218.5046511627907" type="curve" smooth="yes"/>
      <point x="216.07286821705426" y="1078.7364341085272"/>
      <point x="137.6953488372093" y="899.0410852713178"/>
      <point x="137.6953488372093" y="707.2635658914729" type="curve" smooth="yes"/>
      <point x="137.6953488372093" y="513.8"/>
      <point x="213.26821705426357" y="336.45891472868215"/>
      <point x="354.37286821705425" y="199.1906976744186" type="curve" smooth="yes"/>
      <point x="498.01395348837207" y="59.086046511627906"/>
      <point x="677.4186046511628" y="-12.577519379844961"/>
    </contour>
    <contour>
      <point x="866.3550387596899" y="278.9240310077519" type="curve" smooth="yes"/>
      <point x="1059.11007751938" y="278.9240310077519"/>
      <point x="1180.1643410852714" y="391.1697674418605"/>
      <point x="1207.877519379845" y="547.424031007752" type="curve"/>
      <point x="1130.1666666666667" y="547.424031007752" type="line"/>
      <point x="1095.7124031007752" y="413.5426356589147"/>
      <point x="1005.3906976744186" y="335.8387596899225"/>
      <point x="874.6868217054264" y="335.8387596899225" type="curve" smooth="yes"/>
      <point x="701.9286821705426" y="335.8387596899225"/>
      <point x="580.5527131782945" y="470.7782945736434"/>
      <point x="580.5527131782945" y="704.5635658914729" type="curve" smooth="yes"/>
      <point x="580.5527131782945" y="935.2759689922481"/>
      <point x="697.7193798449613" y="1082.3201550387596"/>
      <point x="874.6868217054264" y="1082.3201550387596" type="curve" smooth="yes"/>
      <point x="997.122480620155" y="1082.3201550387596"/>
      <point x="1083.5077519379845" y="1011.2573643410852"/>
      <point x="1119.2713178294573" y="891.398449612403" type="curve"/>
      <point x="1198.2457364341085" y="891.398449612403" type="line"/>
      <point x="1170.2325581395348" y="1034.2527131782945"/>
      <point x="1059.7782945736435" y="1137.5348837209303"/>
      <point x="875.9868217054263" y="1137.5348837209303" type="curve" smooth="yes"/>
      <point x="641.3961240310077" y="1137.5348837209303"/>
      <point x="488.89612403100773" y="968.3627906976744"/>
      <point x="488.89612403100773" y="703.6317829457364" type="curve" smooth="yes"/>
      <point x="488.89612403100773" y="446.3007751937985"/>
      <point x="631.2596899224807" y="278.9240310077519"/>
    </contour>
    <contour>
      <point x="867.7279069767442" y="70.02868217054264" type="curve" smooth="yes"/>
      <point x="697.3054263565891" y="70.02868217054264"/>
      <point x="534.3147286821705" y="137.55581395348838"/>
      <point x="410.9193798449612" y="259.11472868217055" type="curve" smooth="yes"/>
      <point x="284.5604651162791" y="383.33720930232556"/>
      <point x="219.13333333333333" y="543.0139534883721"/>
      <point x="219.13333333333333" y="707.2635658914729" type="curve" smooth="yes"/>
      <point x="219.13333333333333" y="878.2449612403101"/>
      <point x="285.86046511627904" y="1035.3263565891473"/>
      <point x="412.6875968992248" y="1160.7170542635658" type="curve" smooth="yes"/>
      <point x="533.5147286821706" y="1280.4077519379846"/>
      <point x="689.1007751937984" y="1346.2666666666667"/>
      <point x="867.7279069767442" y="1346.2666666666667" type="curve" smooth="yes"/>
      <point x="1044.2232558139535" y="1346.2666666666667"/>
      <point x="1207.9728682170542" y="1278.7441860465117"/>
      <point x="1331.0682170542636" y="1158.7170542635658" type="curve" smooth="yes"/>
      <point x="1454.7271317829457" y="1038.4263565891472"/>
      <point x="1520.0906976744186" y="876.2131782945736"/>
      <point x="1520.0906976744186" y="707.2635658914729" type="curve" smooth="yes"/>
      <point x="1520.0906976744186" y="528.2232558139535"/>
      <point x="1453.4635658914729" y="375.90542635658915"/>
      <point x="1333.2046511627907" y="261.11472868217055" type="curve" smooth="yes"/>
      <point x="1210.2093023255813" y="143.65581395348838"/>
      <point x="1044.6186046511627" y="70.02868217054264"/>
    </contour>
  </outline>
</glyph>
<glyph name="ordfeminine" format="2">
  <advance width="755.1689922480621"/>
  <unicode hex="00AA"/>
  <note>
ordfeminine
</note>
  <outline>
    <contour>
      <point x="346.81627906976746" y="828.062015503876" type="curve" smooth="yes"/>
      <point x="414.1015503875969" y="828.062015503876"/>
      <point x="548.7193798449613" y="853.0341085271318"/>
      <point x="565.5697674418604" y="1023.0193798449612" type="curve"/>
      <point x="565.5697674418604" y="843.8527131782946" type="line"/>
      <point x="619.5813953488372" y="843.8527131782946" type="line"/>
      <point x="619.5813953488372" y="1436.8410852713178" type="line"/>
      <point x="563.6379844961241" y="1436.8410852713178" type="line"/>
      <point x="563.6379844961241" y="1254.4108527131782" type="line"/>
      <point x="547.1558139534884" y="1426.132558139535"/>
      <point x="410.43798449612405" y="1452.4728682170542"/>
      <point x="342.51627906976745" y="1452.4728682170542" type="curve" smooth="yes"/>
      <point x="191.63798449612403" y="1452.4728682170542"/>
      <point x="100.71007751937985" y="1323.5271317829458"/>
      <point x="100.71007751937985" y="1138.2674418604652" type="curve" smooth="yes"/>
      <point x="100.71007751937985" y="946.9077519379845"/>
      <point x="194.7062015503876" y="828.062015503876"/>
    </contour>
    <contour>
      <point x="353.184496124031" y="879.6232558139535" type="curve" smooth="yes"/>
      <point x="226.78062015503878" y="879.6232558139535"/>
      <point x="174.06744186046512" y="993.5364341085271"/>
      <point x="174.06744186046512" y="1140.4767441860465" type="curve" smooth="yes"/>
      <point x="174.06744186046512" y="1285.4395348837209"/>
      <point x="221.98062015503876" y="1400.9116279069767"/>
      <point x="350.184496124031" y="1400.9116279069767" type="curve" smooth="yes"/>
      <point x="476.34728682170544" y="1400.9116279069767"/>
      <point x="544.5193798449612" y="1312.4666666666667"/>
      <point x="544.5193798449612" y="1137.8992248062016" type="curve" smooth="yes"/>
      <point x="544.5193798449612" y="965.3682170542636"/>
      <point x="478.7472868217054" y="879.6232558139535"/>
    </contour>
    <contour>
      <point x="103.11007751937984" y="699.8062015503876" type="line"/>
      <point x="643.6682170542636" y="699.8062015503876" type="line"/>
      <point x="643.6682170542636" y="750.4302325581396" type="line"/>
      <point x="103.11007751937984" y="750.4302325581396" type="line"/>
    </contour>
  </outline>
</glyph>
<glyph name="logicalnot" format="2">
  <advance width="1041.237984496124"/>
  <unicode hex="00AC"/>
  <note>
logicalnot
</note>
  <outline>
    <contour>
      <point x="1058.7480620155038" y="340.8403100775194" type="line"/>
      <point x="1143.9558139534884" y="340.8403100775194" type="line"/>
      <point x="1143.9558139534884" y="868.8139534883721" type="line"/>
      <point x="126.03643410852713" y="868.8139534883721" type="line"/>
      <point x="126.03643410852713" y="794.2248062015503" type="line"/>
      <point x="1058.7480620155038" y="794.2248062015503" type="line"/>
    </contour>
  </outline>
</glyph>
<glyph name="registered" format="2">
  <advance width="1738.1558139534884"/>
  <unicode hex="00AE"/>
  <note>
registered
</note>
  <outline>
    <contour>
      <point x="867.7279069767442" y="-12.577519379844961" type="curve" smooth="yes"/>
      <point x="1060.5279069767441" y="-12.577519379844961"/>
      <point x="1245.868992248062" y="64.14496124031008"/>
      <point x="1389.0147286821705" y="200.82248062015503" type="curve" smooth="yes"/>
      <point x="1527.9829457364342" y="334.32248062015503"/>
      <point x="1599.760465116279" y="512.8860465116279"/>
      <point x="1599.760465116279" y="707.2635658914729" type="curve" smooth="yes"/>
      <point x="1599.760465116279" y="906.2906976744187"/>
      <point x="1525.3511627906976" y="1083.836434108527"/>
      <point x="1389.382945736434" y="1216.5046511627907" type="curve" smooth="yes"/>
      <point x="1250.6418604651162" y="1352.2457364341085"/>
      <point x="1068.4325581395349" y="1427.1046511627908"/>
      <point x="867.7279069767442" y="1427.1046511627908" type="curve" smooth="yes"/>
      <point x="670.8457364341085" y="1427.1046511627908"/>
      <point x="492.7503875968992" y="1355.4821705426357"/>
      <point x="355.7728682170543" y="1218.5046511627907" type="curve" smooth="yes"/>
      <point x="216.07286821705426" y="1078.7364341085272"/>
      <point x="137.6953488372093" y="899.0410852713178"/>
      <point x="137.6953488372093" y="707.2635658914729" type="curve" smooth="yes"/>
      <point x="137.6953488372093" y="513.8"/>
      <point x="213.26821705426357" y="336.45891472868215"/>
      <point x="354.37286821705425" y="199.1906976744186" type="curve" smooth="yes"/>
      <point x="498.01395348837207" y="59.086046511627906"/>
      <point x="677.4186046511628" y="-12.577519379844961"/>
    </contour>
    <contour>
      <point x="867.7279069767442" y="70.02868217054264" type="curve" smooth="yes"/>
      <point x="697.3054263565891" y="70.02868217054264"/>
      <point x="534.3147286821705" y="137.55581395348838"/>
      <point x="410.9193798449612" y="259.11472868217055" type="curve" smooth="yes"/>
      <point x="284.5604651162791" y="383.33720930232556"/>
      <point x="219.13333333333333" y="543.0139534883721"/>
      <point x="219.13333333333333" y="707.2635658914729" type="curve" smooth="yes"/>
      <point x="219.13333333333333" y="878.2449612403101"/>
      <point x="285.86046511627904" y="1035.3263565891473"/>
      <point x="412.6875968992248" y="1160.7170542635658" type="curve" smooth="yes"/>
      <point x="533.5147286821706" y="1280.4077519379846"/>
      <point x="689.1007751937984" y="1346.2666666666667"/>
      <point x="867.7279069767442" y="1346.2666666666667" type="curve" smooth="yes"/>
      <point x="1044.2232558139535" y="1346.2666666666667"/>
      <point x="1207.9728682170542" y="1278.7441860465117"/>
      <point x="1331.0682170542636" y="1158.7170542635658" type="curve" smooth="yes"/>
      <point x="1454.7271317829457" y="1038.4263565891472"/>
      <point x="1520.0906976744186" y="876.2131782945736"/>
      <point x="1520.0906976744186" y="707.2635658914729" type="curve" smooth="yes"/>
      <point x="1520.0906976744186" y="528.2232558139535"/>
      <point x="1453.4635658914729" y="375.90542635658915"/>
      <point x="1333.2046511627907" y="261.11472868217055" type="curve" smooth="yes"/>
      <point x="1210.2093023255813" y="143.65581395348838"/>
      <point x="1044.6186046511627" y="70.02868217054264"/>
    </contour>
    <contour>
      <point x="615.1232558139535" y="319.5736434108527" type="line"/>
      <point x="680.070542635659" y="319.5736434108527" type="line"/>
      <point x="680.070542635659" y="670.6899224806201" type="line"/>
      <point x="893.068992248062" y="670.6899224806201" type="line"/>
      <point x="1082.7046511627907" y="319.5736434108527" type="line"/>
      <point x="1151.5341085271318" y="319.5736434108527" type="line"/>
      <point x="952.8480620155038" y="680.4767441860465" type="line"/>
      <point x="1073.006976744186" y="702.1046511627907"/>
      <point x="1142.8651162790698" y="773.422480620155"/>
      <point x="1142.8651162790698" y="895.5852713178294" type="curve" smooth="yes"/>
      <point x="1142.8651162790698" y="1044.1627906976744"/>
      <point x="1057.0147286821705" y="1119.6899224806202"/>
      <point x="827.2240310077519" y="1119.6899224806202" type="curve" smooth="yes"/>
      <point x="615.1232558139535" y="1119.6899224806202" type="line"/>
    </contour>
    <contour>
      <point x="680.070542635659" y="722.0728682170543" type="line"/>
      <point x="680.070542635659" y="1066.4658914728682" type="line"/>
      <point x="864.6689922480621" y="1066.4658914728682" type="line" smooth="yes"/>
      <point x="1014.1503875968992" y="1066.0976744186046"/>
      <point x="1078.3906976744186" y="1016.7798449612403"/>
      <point x="1078.3906976744186" y="893.4806201550388" type="curve" smooth="yes"/>
      <point x="1078.3906976744186" y="776.0224806201551"/>
      <point x="1015.1503875968992" y="722.0728682170543"/>
      <point x="868.7372093023256" y="722.0728682170543" type="curve" smooth="yes"/>
    </contour>
  </outline>
</glyph>
<glyph name="degree" format="2">
  <advance width="714.0798449612403"/>
  <unicode hex="00B0"/>
  <note>
degree
</note>
  <outline>
    <contour>
      <point x="355.4240310077519" y="1004.937984496124" type="curve" smooth="yes"/>
      <point x="474.18837209302325" y="1004.937984496124"/>
      <point x="570.1162790697674" y="1100.4976744186047"/>
      <point x="570.1162790697674" y="1217.698449612403" type="curve" smooth="yes"/>
      <point x="570.1162790697674" y="1334.531007751938"/>
      <point x="474.18837209302325" y="1430.0906976744186"/>
      <point x="357.3558139534884" y="1430.0906976744186" type="curve" smooth="yes"/>
      <point x="238.52325581395348" y="1430.0906976744186"/>
      <point x="144.59534883720931" y="1336.1627906976744"/>
      <point x="144.59534883720931" y="1217.698449612403" type="curve" smooth="yes"/>
      <point x="144.59534883720931" y="1098.8658914728683"/>
      <point x="237.89147286821705" y="1004.937984496124"/>
    </contour>
    <contour>
      <point x="357.3558139534884" y="1050.1751937984495" type="curve" smooth="yes"/>
      <point x="264.41007751937985" y="1050.1751937984495"/>
      <point x="190.20077519379845" y="1124.7527131782945"/>
      <point x="190.20077519379845" y="1217.698449612403" type="curve" smooth="yes"/>
      <point x="190.20077519379845" y="1309.6441860465115"/>
      <point x="264.41007751937985" y="1383.8534883720931"/>
      <point x="357.3558139534884" y="1383.8534883720931" type="curve" smooth="yes"/>
      <point x="450.3015503875969" y="1383.8534883720931"/>
      <point x="523.8790697674418" y="1309.6441860465115"/>
      <point x="523.8790697674418" y="1217.698449612403" type="curve" smooth="yes"/>
      <point x="523.8790697674418" y="1124.7527131782945"/>
      <point x="450.3015503875969" y="1050.1751937984495"/>
    </contour>
  </outline>
</glyph>
<glyph name="plusminus" format="2">
  <advance width="1041.237984496124"/>
  <unicode hex="00B1"/>
  <note>
plusminus
</note>
  <outline>
    <contour>
      <point x="426.11007751937984" y="382.3356589147287" type="line"/>
      <point x="490.3217054263566" y="382.3356589147287" type="line"/>
      <point x="490.3217054263566" y="627.5751937984496" type="line"/>
      <point x="776.2589147286822" y="627.5751937984496" type="line"/>
      <point x="776.2589147286822" y="708.3565891472869" type="line"/>
      <point x="490.3217054263566" y="708.3565891472869" type="line"/>
      <point x="490.3217054263566" y="953.5279069767441" type="line"/>
      <point x="426.11007751937984" y="953.5279069767441" type="line"/>
      <point x="426.11007751937984" y="708.3565891472869" type="line"/>
      <point x="140.24108527131784" y="708.3565891472869" type="line"/>
      <point x="140.24108527131784" y="627.5751937984496" type="line"/>
      <point x="426.11007751937984" y="627.5751937984496" type="line"/>
    </contour>
    <contour>
      <point x="139.54108527131783" y="213.0325581395349" type="line"/>
      <point x="775.1906976744186" y="213.0325581395349" type="line"/>
      <point x="775.1906976744186" y="293.44573643410854" type="line"/>
      <point x="139.54108527131783" y="293.44573643410854" type="line"/>
    </contour>
  </outline>
</glyph>
<glyph name="paragraph" format="2">
  <advance width="1097.8503875968993"/>
  <unicode hex="00B6"/>
  <note>
paragraph
</note>
  <outline>
    <contour>
      <point x="496.6635658914729" y="0.0" type="line"/>
      <point x="590.8666666666667" y="0.0" type="line"/>
      <point x="590.8666666666667" y="1377.8387596899224" type="line"/>
      <point x="758.8837209302326" y="1377.8387596899224" type="line"/>
      <point x="758.8837209302326" y="0.0" type="line"/>
      <point x="852.7186046511628" y="0.0" type="line"/>
      <point x="852.7186046511628" y="1377.8387596899224" type="line"/>
      <point x="975.9186046511628" y="1377.8387596899224" type="line"/>
      <point x="975.9186046511628" y="1444.8046511627906" type="line"/>
      <point x="528.6558139534884" y="1444.8046511627906" type="line" smooth="yes"/>
      <point x="287.92790697674417" y="1444.8046511627906"/>
      <point x="127.36356589147287" y="1299.1356589147288"/>
      <point x="127.36356589147287" y="1084.703100775194" type="curve" smooth="yes"/>
      <point x="127.36356589147287" y="880.5480620155039"/>
      <point x="272.8457364341085" y="735.337984496124"/>
      <point x="496.6635658914729" y="725.337984496124" type="curve"/>
    </contour>
  </outline>
</glyph>
<glyph name="ordmasculine" format="2">
  <advance width="799.646511627907"/>
  <unicode hex="00BA"/>
  <note>
ordmasculine
</note>
  <outline>
    <contour>
      <point x="399.0891472868217" y="840.1162790697674" type="curve" smooth="yes"/>
      <point x="550.9542635658914" y="840.1162790697674"/>
      <point x="676.8775193798449" y="951.3759689922481"/>
      <point x="676.8775193798449" y="1139.2674418604652" type="curve" smooth="yes"/>
      <point x="676.8775193798449" y="1327.7906976744187"/>
      <point x="551.9542635658914" y="1442.0503875968993"/>
      <point x="399.0891472868217" y="1442.0503875968993" type="curve" smooth="yes"/>
      <point x="245.85581395348837" y="1442.0503875968993"/>
      <point x="123.23255813953489" y="1328.7906976744187"/>
      <point x="123.23255813953489" y="1139.2674418604652" type="curve" smooth="yes"/>
      <point x="123.23255813953489" y="950.3759689922481"/>
      <point x="246.85581395348837" y="840.1162790697674"/>
    </contour>
    <contour>
      <point x="399.72093023255815" y="890.8093023255814" type="curve" smooth="yes"/>
      <point x="286.96666666666664" y="890.8093023255814"/>
      <point x="194.82170542635657" y="984.4682170542636"/>
      <point x="194.82170542635657" y="1139.2674418604652" type="curve" smooth="yes"/>
      <point x="194.82170542635657" y="1294.0666666666666"/>
      <point x="287.96666666666664" y="1390.7255813953489"/>
      <point x="399.72093023255815" y="1390.7255813953489" type="curve" smooth="yes"/>
      <point x="511.4751937984496" y="1390.7255813953489"/>
      <point x="604.9201550387597" y="1294.0666666666666"/>
      <point x="604.9201550387597" y="1139.2674418604652" type="curve" smooth="yes"/>
      <point x="604.9201550387597" y="984.4682170542636"/>
      <point x="512.106976744186" y="890.8093023255814"/>
    </contour>
    <contour>
      <point x="127.91472868217053" y="699.8062015503876" type="line"/>
      <point x="671.0635658914729" y="699.8062015503876" type="line"/>
      <point x="671.0635658914729" y="750.4302325581396" type="line"/>
      <point x="127.91472868217053" y="750.4302325581396" type="line"/>
    </contour>
  </outline>
</glyph>
<glyph name="AE" format="2">
  <advance width="1795.4612403100775"/>
  <unicode hex="00C6"/>
  <note>
AE
</note>
  <anchor x="939.6542635658915" y="-8.953488372093023" name="bottom"/>
  <anchor x="939.6542635658915" y="1444.0" name="top"/>
  <outline>
    <contour>
      <point x="78.69534883720931" y="-7.0" type="line"/>
      <point x="176.9341085271318" y="-7.0" type="line"/>
      <point x="1056.3263565891473" y="1438.1046511627908" type="line"/>
      <point x="958.4558139534884" y="1438.1046511627908" type="line"/>
    </contour>
    <contour>
      <point x="415.40232558139536" y="448.2403100775194" type="line"/>
      <point x="1087.5" y="448.2403100775194" type="line"/>
      <point x="1087.5" y="508.95116279069765" type="line"/>
      <point x="415.40232558139536" y="508.95116279069765" type="line"/>
    </contour>
    <contour>
      <point x="1009.1007751937984" y="-7.0" type="line"/>
      <point x="1696.4248062015504" y="-7.0" type="line"/>
      <point x="1696.4248062015504" y="53.34263565891473" type="line"/>
      <point x="1045.2418604651164" y="53.34263565891473" type="line"/>
      <point x="1124.168992248062" y="3.6000000000000014" type="line"/>
      <point x="1124.168992248062" y="758.6372093023256" type="line"/>
      <point x="1067.4480620155039" y="698.3627906976744" type="line"/>
      <point x="1696.4248062015504" y="698.3627906976744" type="line"/>
      <point x="1696.4248062015504" y="758.7054263565891" type="line"/>
      <point x="1062.7713178294573" y="758.7054263565891" type="line"/>
      <point x="1124.168992248062" y="706.1263565891472" type="line"/>
      <point x="1124.168992248062" y="1434.9" type="line"/>
      <point x="1031.3751937984496" y="1377.762015503876" type="line"/>
      <point x="1696.4248062015504" y="1377.762015503876" type="line"/>
      <point x="1696.4248062015504" y="1438.1046511627908" type="line"/>
      <point x="1009.1007751937984" y="1438.1046511627908" type="line"/>
    </contour>
  </outline>
</glyph>
<glyph name="Thorn" format="2">
  <advance width="1040.2186046511629"/>
  <unicode hex="00DE"/>
  <note>
Thorn
</note>
  <anchor x="519.9434108527132" y="5.046511627906977" name="bottom"/>
  <anchor x="519.9434108527132" y="1430.0" name="top"/>
  <outline>
    <contour>
      <point x="225.7015503875969" y="326.5403100775194" type="line"/>
      <point x="463.11240310077517" y="326.5403100775194" type="line" smooth="yes"/>
      <point x="608.1945736434109" y="326.5403100775194"/>
      <point x="721.8635658914728" y="355.84961240310076"/>
      <point x="794.6589147286821" y="405.0449612403101" type="curve" smooth="yes"/>
      <point x="902.8232558139534" y="478.0682170542636"/>
      <point x="943.95503875969" y="585.8860465116279"/>
      <point x="943.95503875969" y="733.4" type="curve" smooth="yes"/>
      <point x="943.95503875969" y="872.2139534883721"/>
      <point x="906.9232558139535" y="967.7953488372093"/>
      <point x="823.8635658914728" y="1039.2186046511629" type="curve" smooth="yes"/>
      <point x="748.9682170542636" y="1103.913953488372"/>
      <point x="623.7627906976744" y="1138.2596899224807"/>
      <point x="463.4124031007752" y="1138.2596899224807" type="curve" smooth="yes"/>
      <point x="231.7015503875969" y="1138.2596899224807" type="line"/>
      <point x="231.7015503875969" y="1081.1263565891472" type="line"/>
      <point x="417.05271317829454" y="1081.1263565891472" type="line" smooth="yes"/>
      <point x="720.4790697674418" y="1081.1263565891472"/>
      <point x="829.0418604651163" y="980.5953488372093"/>
      <point x="829.0418604651163" y="732.8" type="curve" smooth="yes"/>
      <point x="829.0418604651163" y="482.0728682170543"/>
      <point x="719.0790697674419" y="383.6736434108527"/>
      <point x="417.05271317829454" y="383.6736434108527" type="curve" smooth="yes"/>
      <point x="225.7015503875969" y="383.6736434108527" type="line"/>
    </contour>
    <contour>
      <point x="164.66356589147287" y="0.0" type="line"/>
      <point x="277.95891472868215" y="0.0" type="line"/>
      <point x="277.95891472868215" y="1431.1046511627908" type="line"/>
      <point x="164.66356589147287" y="1431.1046511627908" type="line"/>
    </contour>
  </outline>
</glyph>
<glyph name="germandbls" format="2">
  <advance width="1063.9697674418605"/>
  <unicode hex="00DF"/>
  <note>
germandbls
</note>
  <anchor x="532.3348837209303" y="8.36046511627907" name="bottom"/>
  <anchor x="532.3348837209303" y="939.077519379845" name="top"/>
  <outline>
    <contour>
      <point x="665.3728682170542" y="-26.304651162790698" type="curve" smooth="yes"/>
      <point x="883.9914728682171" y="-26.304651162790698"/>
      <point x="1002.6062015503876" y="75.34961240310078"/>
      <point x="1002.6062015503876" y="257.2503875968992" type="curve" smooth="yes"/>
      <point x="1002.6062015503876" y="416.22403100775193"/>
      <point x="922.3697674418605" y="484.79147286821706"/>
      <point x="691.1697674418605" y="534.2325581395348" type="curve" smooth="yes"/>
      <point x="521.8937984496124" y="569.691472868217"/>
      <point x="500.162015503876" y="610.6821705426356"/>
      <point x="500.162015503876" y="720.9767441860465" type="curve" smooth="yes"/>
      <point x="500.162015503876" y="809.4992248062016"/>
      <point x="564.3434108527132" y="854.4031007751938"/>
      <point x="642.898449612403" y="914.453488372093" type="curve" smooth="yes"/>
      <point x="722.6480620155039" y="977.5806201550388"/>
      <point x="823.4658914728682" y="1048.653488372093"/>
      <point x="823.4658914728682" y="1215.812403100775" type="curve" smooth="yes"/>
      <point x="823.4658914728682" y="1384.0317829457365"/>
      <point x="714.5147286821706" y="1540.8736434108528"/>
      <point x="495.84883720930236" y="1540.8736434108528" type="curve" smooth="yes"/>
      <point x="303.78837209302327" y="1540.8736434108528"/>
      <point x="197.7139534883721" y="1361.108527131783"/>
      <point x="197.7139534883721" y="1136.4403100775194" type="curve" smooth="yes"/>
      <point x="197.7139534883721" y="0.0" type="line"/>
      <point x="302.9953488372093" y="0.0" type="line"/>
      <point x="302.9953488372093" y="1117.6612403100776" type="line" smooth="yes"/>
      <point x="302.9953488372093" y="1374.3697674418604"/>
      <point x="390.2527131782946" y="1476.7581395348836"/>
      <point x="503.8852713178295" y="1476.7581395348836" type="curve" smooth="yes"/>
      <point x="643.5573643410853" y="1476.7581395348836"/>
      <point x="727.3627906976744" y="1344.6503875968992"/>
      <point x="727.3627906976744" y="1199.58992248062" type="curve" smooth="yes"/>
      <point x="727.3627906976744" y="1080.4356589147287"/>
      <point x="664.8542635658915" y="1016.9806201550388"/>
      <point x="589.7953488372093" y="958.453488372093" type="curve" smooth="yes"/>
      <point x="511.1139534883721" y="896.1992248062015"/>
      <point x="413.5503875968992" y="838.4813953488372"/>
      <point x="413.5503875968992" y="698.439534883721" type="curve" smooth="yes"/>
      <point x="413.5503875968992" y="563.408527131783"/>
      <point x="467.37751937984495" y="497.1945736434109"/>
      <point x="664.1953488372093" y="456.88992248062016" type="curve" smooth="yes"/>
      <point x="846.6751937984496" y="420.30387596899226"/>
      <point x="903.7666666666667" y="375.85968992248064"/>
      <point x="903.7666666666667" y="246.02325581395348" type="curve" smooth="yes"/>
      <point x="903.7666666666667" y="116.81937984496125"/>
      <point x="822.8581395348838" y="45.0201550387597"/>
      <point x="665.5457364341086" y="45.0201550387597" type="curve" smooth="yes"/>
      <point x="551.4968992248062" y="45.0201550387597"/>
      <point x="468.1062015503876" y="88.42868217054264"/>
      <point x="397.5279069767442" y="172.5062015503876" type="curve"/>
      <point x="394.95038759689925" y="70.37286821705426" type="line"/>
      <point x="465.00077519379846" y="4.295348837209302"/>
      <point x="555.8100775193799" y="-26.304651162790698"/>
    </contour>
    <contour>
      <point x="46.900000000000006" y="880.1348837209302" type="line"/>
      <point x="240.53953488372093" y="880.1348837209302" type="line"/>
      <point x="240.53953488372093" y="941.9186046511628" type="line"/>
      <point x="46.900000000000006" y="941.9186046511628" type="line"/>
    </contour>
  </outline>
</glyph>
